<?xml version="1.0" encoding="UTF-8" standalone="no"?>
<svg
   xmlns:dc="http://purl.org/dc/elements/1.1/"
   xmlns:cc="http://creativecommons.org/ns#"
   xmlns:rdf="http://www.w3.org/1999/02/22-rdf-syntax-ns#"
   xmlns:svg="http://www.w3.org/2000/svg"
   xmlns="http://www.w3.org/2000/svg"
   xmlns:sodipodi="http://sodipodi.sourceforge.net/DTD/sodipodi-0.dtd"
   xmlns:inkscape="http://www.inkscape.org/namespaces/inkscape"
   sodipodi:docname="绘图-1.svg"
   inkscape:version="1.0 (4035a4fb49, 2020-05-01)"
   id="svg8"
   version="1.1"
   viewBox="0 0 210 297"
   height="297mm"
   width="210mm">
  <defs
     id="defs2" />
  <sodipodi:namedview
     inkscape:window-maximized="1"
     inkscape:window-y="-8"
     inkscape:window-x="-8"
     inkscape:window-height="1017"
     inkscape:window-width="1920"
     showgrid="false"
     inkscape:document-rotation="0"
     inkscape:current-layer="layer1"
     inkscape:document-units="mm"
     inkscape:cy="580.05355"
     inkscape:cx="220.5827"
     inkscape:zoom="0.7"
     inkscape:pageshadow="2"
     inkscape:pageopacity="0.0"
     borderopacity="1.0"
     bordercolor="#666666"
     pagecolor="#ffffff"
     id="base" />
  <metadata
     id="metadata5">
    <rdf:RDF>
      <cc:Work
         rdf:about="">
        <dc:format>image/svg+xml</dc:format>
        <dc:type
           rdf:resource="http://purl.org/dc/dcmitype/StillImage" />
        <dc:title></dc:title>
      </cc:Work>
    </rdf:RDF>
  </metadata>
  <g
     id="layer1"
     inkscape:groupmode="layer"
     inkscape:label="图层 1">
    <path
       id="path560"
       d="m 129.74663,130.50259 c 0.63994,0.56197 1.48484,1.13135 2.46944,1.68557 0.55528,0.31256 1.39806,0.76588 1.11725,1.41111 -0.51223,1.17651 -4.1596,1.17863 -5.70336,1.41111 -4.5727,0.68792 -9.45021,1.63089 -14.11111,2.22426 -3.01766,0.38418 -5.97641,1.33421 -8.81944,1.38183 -0.20356,-1.58079 -1.90007,-2.5467 -3.17501,-3.60609 -2.709329,-2.25178 -5.681482,-4.73463 -8.466662,-7.05563 -2.893484,-2.41123 -5.735462,-4.62297 -8.466668,-7.00655 -1.793875,-1.56549 -2.922411,-2.46884 -4.586111,-3.87075 -2.227792,-1.87709 -5.112103,-4.25989 -7.408334,-6.11484 -0.995539,-0.80422 -1.776589,-1.43167 -2.822222,-2.31267 -0.963789,-0.81195 -1.579739,-1.33043 -2.469445,-2.10685 -1.114425,-0.97254 -2.601031,-1.89735 -3.527778,-3.20439 2.372078,-1.54489 5.110339,-1.87173 8.11389,-2.08728 0.77858,-0.0558 1.303161,0.056 2.116666,0.27439 5.172076,1.38881 11.133668,5.55466 15.875001,8.2217 0.867128,0.48782 2.063045,1.00594 2.812345,1.44049 0.427567,0.2479 0.846314,0.71209 1.499306,0.97014 1.036461,0.40961 2.085622,0.11899 3.449461,-0.0294 2.985201,-0.32481 7.881061,-1.09273 10.554051,0.62716 1.07633,0.69265 1.44251,2.77908 1.44039,3.63556 -0.002,1.05025 -0.64452,1.81236 -0.49988,2.82222 0.13688,0.95461 0.53022,1.08341 1.55822,1.67569 1.91452,1.10303 3.46604,2.50808 5.29166,2.59683 1.1303,0.055 1.54764,0.0232 2.46945,-0.0686 0.68686,-0.0684 1.16734,-0.23459 1.76389,-0.294 1.01882,-0.10142 4.23227,-0.27164 5.28179,0.30378 0.96484,0.52895 1.16558,1.21479 1.4799,2.13628 0.59584,1.74776 -0.23072,1.36556 0.0586,2.82222 0.12594,0.63394 0.55492,1.04422 0.94086,1.32292 0.54857,0.39617 1.14476,0.76129 1.67569,0.50941 1.32045,-0.62583 0.62266,-2.30735 0.19615,-3.59622 -0.69145,-2.08813 -2.06516,-2.96005 -3.28295,-3.175 M 67.657736,106.5137 c 2.963334,-1.92984 5.78485,0.37878 8.819445,2.90061 1.43757,1.19464 3.572581,2.93631 4.938889,4.12556 0.634647,0.55224 1.073503,0.86586 1.763889,1.39149 2.066925,1.5742 4.314473,3.53487 6.350001,5.31128 2.844094,2.48183 5.881511,4.87945 8.819445,7.30053 2.612675,2.15297 6.958545,5.68392 8.819445,7.19275 l -2.46944,1.76389 M 93.763293,112.15814 c -1.081969,0.89571 -1.68028,1.06126 -3.880556,1.76389 m 15.875003,-1.05833 c 1.70356,2.98132 0.80398,2.17314 0.82303,4.23333 0.006,0.61521 0.72602,1.64776 2.35197,1.76389 m -26.105559,-4.23333 c -1.3589,1.18762 -1.749072,1.13414 -3.175,2.11666 m 13.405557,-1.76389 c 2.286353,0 1.610077,-0.16146 3.527778,0.0294 0.885472,0.0882 1.244247,0.2389 2.116666,0.31359 3.542948,0.30345 5.619748,1.52922 7.055558,2.12647 m 9.17222,5.99722 -4.93889,2.11667 m 5.29167,0.70555 c 5.84341,-0.6138 8.42186,1.96007 11.28889,2.11667 M 21.443844,143.20258 c 1.320271,-0.25505 2.123511,-0.49741 3.880556,-1.05833 -0.378001,-1.55116 -0.185032,-2.34738 -1.773696,-2.43028 -0.760977,-0.0395 -3.575128,0.70626 -3.645363,1.75401 -0.05413,0.80786 0.745282,1.52929 1.185725,2.08738 1.953437,2.47474 4.147574,5.11352 6.212806,7.76111 1.283017,1.64465 1.291554,1.67182 2.596832,2.90054 0.525145,0.4946 1.335088,1.49754 1.773696,2.03835 1.039249,-1.03505 1.430691,-1.90041 3.880556,-2.51848 1.202267,-0.30339 5.050861,-0.36583 4.948697,-2.07751 -0.08075,-1.35255 -1.969488,-3.15454 -2.724221,-4.22345 -2.114409,-2.99473 -4.423551,-6.03885 -6.389229,-9.17222 -0.883532,-1.40829 -1.456585,-2.96369 -2.890803,-3.61598 -1.090154,-0.49565 -1.733656,0.0847 -2.822222,0.30375 -1.569085,0.31608 -2.524372,0.53657 -3.175,0.84278 -1.068106,-1.7653 -1.38864,-2.72309 -2.116667,-4.58611 2.973917,-1.64923 9.592275,-3.1266 13.052778,-1.81292 4.444472,1.68733 6.755836,5.99193 10.583334,9.08402 5.493139,4.43795 11.603921,7.23406 18.344446,8.46667 1.587147,0.29034 3.465689,0.6283 4.586111,0.16651 0.651581,-0.26846 1.095375,-0.59302 1.763889,-0.83291 1.692276,-0.60713 4.569884,-1.137 6.350001,-1.52858 6.387395,-1.40476 13.097228,-2.55376 19.050001,-3.89044 0.839964,-0.18873 1.59632,-0.37676 2.469445,-0.54857 2.579511,-0.50764 5.110694,-1.20897 7.761114,-1.34267 m 29.28055,-5.29166 3.175,-0.0293 1.76389,-0.29422 5.29167,-0.72496 1.76389,-0.0882 3.88056,-0.59796 1.76388,-0.1076 3.52778,-0.59796 2.46945,-0.0392 2.11666,-0.31362 5.64445,-0.41133 2.46944,-0.3235 12.34723,-1.03858 3.52777,0.83291 2.11667,1.96956 c 1.11901,-0.50765 2.13254,-0.77294 3.88056,0.30374 1.32044,0.81315 2.11631,1.82033 1.43086,3.22403 -0.48683,0.9966 -1.29293,1.6884 -2.13642,2.39113 -2.51707,2.09656 -5.39362,3.43782 -8.11389,4.5272 -4.40302,1.76318 -10.61508,3.04765 -15.16944,3.88055 -3.25367,0.59514 -6.51581,0.99519 -9.87778,1.47003 -0.98743,0.13935 -1.61855,-0.12171 -2.82222,0.11747 -1.79635,0.35666 -1.70357,1.1303 -2.11667,2.07751 -0.27305,0.62618 -0.86007,2.29694 -1.19556,3.175 -1.18604,3.1055 -2.90054,7.20655 -3.97863,10.23056 -0.31856,0.89429 -0.74295,1.35925 -0.48013,2.09691 0.33055,0.9278 2.11419,0.65863 2.79294,1.19556 0.7052,0.5581 0.9532,1.57903 1.14653,2.35197 0.16792,0.67134 0.28187,1.10243 0.29386,1.76389 0.0229,1.22802 -1.03399,2.42852 -2.10679,2.82222 -0.008,-1.8863 -1.03575,-5.2331 -1.41111,-7.05555 m 39.86389,-34.57222 -3.52778,2.46944 m -3.52777,1.05833 1.05833,-0.70555 m -156.986122,1.41111 1.058333,3.175 m 2.116667,3.175 c 0.08266,0.21167 0.128164,0.41275 0.440972,1.07809 0.712682,1.51553 3.082502,6.82448 3.62578,8.09413 0.533259,1.24636 0.337185,1.54481 0.166581,2.11667 m 41.627781,-5.64445 c -3.723217,0 -1.396295,0.0342 -4.586112,1.0975 -0.414514,0.13828 -2.841978,0.72037 -3.527778,0.89182 -4.783314,1.19591 -9.847086,2.34667 -14.816667,3.43958 -1.175385,0.25859 -2.037892,0.47907 -3.175,0.81315 -1.333712,0.39229 -2.33606,0.63641 -3.527778,0.88195 -0.749195,0.15451 -1.328914,0.28716 -2.116667,0.50976 -1.257935,0.3556 -1.396824,0.59373 -1.763889,0.83291 0.788599,0.50024 1.661971,0.55351 4.586111,0.69568 3.597311,0.17498 3.126776,0.62053 5.321054,1.87184 0.933132,0.53198 4.130569,0.0441 5.26228,-0.0688 4.920192,-0.48965 10.132131,-0.26282 15.169446,-0.76411 10.257367,-1.02129 20.887973,-1.24531 31.044446,-3.00849 2.667002,-0.4632 5.421492,-0.89182 8.113892,-1.16628 0.56797,-0.0579 2.08315,-0.15452 2.45956,-0.36231 1.99461,-1.10207 0.63888,-1.59173 2.13643,-2.51848 0.99977,-0.61912 3.43958,-1.24601 4.57623,-1.61713 1.36525,-0.44556 5.03096,-1.46826 6.70278,-1.81293 2.97885,-0.61348 5.37668,-1.28093 8.11389,-1.75401 0.57361,-0.0991 0.82444,-0.0437 1.41111,-0.10759 0.7045,-0.0769 1.04352,-0.1905 1.76389,-0.30375 1.67605,-0.26387 2.65465,-0.3115 3.88055,-0.38241 1.04564,-0.0603 1.37725,-0.26987 2.46945,-0.33302 2.38689,-0.13829 2.927,-0.01 4.58611,-0.01 0.81104,0 1.08338,-0.0399 1.76389,0.0293 0.85901,0.0875 1.64006,0.24342 2.46944,0.71544 1.53247,0.87206 1.73567,1.61537 2.11667,2.07751 m -84.666672,-0.70556 c 0.856192,0.85619 0.353484,0.35348 1.058334,1.05833 m 42.686118,5.99723 c 0.67945,0.21978 1.65981,0.0772 2.93017,1.77376 0.7112,0.95003 0.90311,1.84044 0.95038,2.81235 0.0512,1.05233 0,4.28483 0,5.29166 0,1.02588 0.0124,1.47567 0,2.82222 -0.013,1.4097 -0.25541,1.65947 -0.3429,3.175 -0.0917,1.58574 -0.01,1.91806 -0.01,3.52778 0,1.87431 -0.25153,3.35845 -0.3429,4.93889 -0.0878,1.51906 -0.006,1.73531 -0.01,3.52778 -0.004,1.70674 -0.1771,2.01365 -0.26459,3.52778 -0.0794,1.37018 -0.0882,1.8041 -0.0882,3.17499 0,2.20204 -0.15099,2.50049 -0.3235,4.23334 -0.19861,1.99707 -0.0293,2.39712 -0.0293,3.88055 0,2.03341 -0.16757,2.66771 -0.3235,4.23334 -0.0885,0.89111 0.049,2.72556 0.049,3.52777 0,0.71896 -0.0501,1.52824 -0.0783,2.46945 -0.0275,0.9144 -0.7747,2.12619 0.11748,3.05752 1.25201,1.30634 5.12586,-0.073 6.5853,-0.2353 0.59267,-0.066 0.84243,-0.12206 1.41111,-0.21555 0.7613,-0.12523 1.18992,-0.0974 1.76389,-0.16651 1.17087,-0.14111 2.24861,-0.87136 2.90054,-2.08738 1.35749,-2.53118 3.15524,-6.44102 4.4196,-9.17223 0.4131,-0.89252 0.9906,-2.35973 1.42099,-3.175 0.86536,-1.63971 1.71873,-1.79352 2.21474,-3.175 0.2854,-0.79621 0.0222,-1.4739 -0.0198,-1.76388 -0.20496,-1.41147 -2.13607,-2.02142 -4.93889,-2.82223 m -97.36667,-31.04444 0.352778,2.82222 c 0.528849,0.0444 1.193342,0.0219 2.116667,0.0198 0.658742,-0.002 1.426916,-0.0466 1.558114,0.72496 0.155116,0.91228 -0.501333,1.80199 -0.862366,2.78306 -0.918704,2.49626 -1.5367,6.54791 -3.273001,8.37847 -1.35375,1.42734 -1.953931,0.78917 -3.067192,0.79375 0.388973,-3.56058 2.921388,-9.93281 3.175,-12.34722 m 0.705556,-1.76389 c 2.315175,-0.11677 3.182867,-0.38594 5.644445,-1.05833 m 9.525,2.46944 c -0.805709,0.80928 -1.51518,1.40053 -2.459637,2.82223 -0.408446,0.61489 -1.166566,1.78682 -1.616922,2.46944 -1.444731,2.19004 -3.828239,6.64563 -5.340632,8.43739 -0.823878,0.97578 -1.362287,1.05092 -2.577254,1.08761 -2.034081,0.0614 -4.700976,0.54751 -6.35,0.6664 -0.466549,0.0335 -0.897008,-0.0603 -1.146528,-0.4311 -0.585752,-0.87101 -0.09853,-0.98919 0.08819,-1.99919 M 115.2824,160.48856 c 1.08832,-0.0183 4.13773,-1.16275 4.54695,0.71544 0.50871,2.33327 -0.31362,5.96194 -0.31362,8.45679 0,4.93783 0.15664,10.14483 -0.67627,14.81666 -0.15487,0.86925 -0.0452,1.6122 -0.0293,2.46945 0.0342,1.8422 -0.33585,3.80329 -0.35278,5.64444 -0.0229,2.46874 0.22542,8.86001 -0.47025,10.54417 -0.57503,1.39207 -2.8628,1.28165 -4.46864,1.45027 m 14.81667,-37.04166 c 2.0066,-0.3877 4.00367,-1.04669 5.99722,-1.33279 4.058,-0.58244 7.56814,-0.4311 9.87778,-0.4311 m -10.23056,3.52778 c 1.81716,0.3436 6.76593,0.6477 7.47678,2.14595 0.7119,1.50036 0.18873,2.19921 0.28433,3.14571 1.54729,-0.006 2.38372,-0.0183 4.93889,-0.70555 m -4.93889,0.70555 c -0.7567,0.64912 -1.21884,0.92675 -1.8422,2.11667 -0.81704,1.55998 -2.29623,5.16643 -2.74391,6.35 2.32481,0.99625 4.52014,0.41522 5.01721,3.52778 0.1718,1.07491 0.27552,1.76248 -0.22543,2.82222 -0.6036,1.27776 -1.50424,1.54975 -2.32233,1.76389 0.0286,-1.69404 0.0705,-4.81718 -0.35278,-7.05556 m -15.16945,0.70556 c 4.47076,-0.46955 10.1212,-1.41111 12.7,-1.41111 m -22.57777,2.11667 c 0.99483,-0.0166 2.03341,-0.34361 4.23333,-0.35278 m 15.875,6.70277 c 1.19204,0.20532 2.60844,0.27376 4.93889,-0.35277"
       style="fill:none;stroke:#010101;stroke-width:0.352778" />
  </g>
</svg>
