<?xml version="1.0" encoding="UTF-8" standalone="no"?>
<svg
   xmlns:dc="http://purl.org/dc/elements/1.1/"
   xmlns:cc="http://creativecommons.org/ns#"
   xmlns:rdf="http://www.w3.org/1999/02/22-rdf-syntax-ns#"
   xmlns:svg="http://www.w3.org/2000/svg"
   xmlns="http://www.w3.org/2000/svg"
   xmlns:sodipodi="http://sodipodi.sourceforge.net/DTD/sodipodi-0.dtd"
   xmlns:inkscape="http://www.inkscape.org/namespaces/inkscape"
   sodipodi:docname="绘图.svg"
   inkscape:version="1.0 (4035a4fb49, 2020-05-01)"
   id="svg8"
   version="1.1"
   viewBox="0 0 210 297"
   height="297mm"
   width="210mm">
  <defs
     id="defs2" />
  <sodipodi:namedview
     inkscape:window-maximized="1"
     inkscape:window-y="-8"
     inkscape:window-x="-8"
     inkscape:window-height="1017"
     inkscape:window-width="1920"
     showgrid="false"
     inkscape:document-rotation="0"
     inkscape:current-layer="layer1"
     inkscape:document-units="mm"
     inkscape:cy="347.06184"
     inkscape:cx="781.5901"
     inkscape:zoom="0.49497475"
     inkscape:pageshadow="2"
     inkscape:pageopacity="0.0"
     borderopacity="1.0"
     bordercolor="#666666"
     pagecolor="#ffffff"
     id="base" />
  <metadata
     id="metadata5">
    <rdf:RDF>
      <cc:Work
         rdf:about="">
        <dc:format>image/svg+xml</dc:format>
        <dc:type
           rdf:resource="http://purl.org/dc/dcmitype/StillImage" />
        <dc:title></dc:title>
      </cc:Work>
    </rdf:RDF>
  </metadata>
  <g
     id="layer1"
     inkscape:groupmode="layer"
     inkscape:label="图层 1">
    <path
       id="path46"
       d="m 46.285253,167.8264 v 0.26455 c 2.198486,1.09922 3.496698,0.50027 5.555606,-0.52911 -0.299739,1.1389 0.142858,2.25082 -0.0881,3.43919 -0.666144,3.42543 -1.450728,7.08974 -1.49922,10.5821 -0.02934,2.11219 -0.03955,4.28523 -0.44093,6.34927 -0.134525,0.6918 -0.0614,1.50557 -0.485004,2.11642 -0.720457,1.0389 -2.968281,1.23519 -4.100566,1.67541 -3.057752,1.18916 -5.945582,2.62489 -8.730237,4.36512 -0.9944,0.6217 -3.650271,2.30187 -3.395083,3.74792 0.280108,1.58731 2.884391,0.56905 3.836013,0.74947 3.182965,0.60371 6.239659,0.83784 9.61207,0.83784 2.215073,0 4.457976,-0.0976 6.349263,-1.41086 1.698957,-1.1799 1.596575,-2.83574 1.851869,-4.67385 0.2336,-1.68176 0.693127,-3.39474 1.146306,-5.0265 0.962972,-3.46643 3.227278,-6.26381 4.585755,-9.52389 0.429369,-1.0307 0.815881,-2.08389 1.058211,-3.17464 0.215875,-0.9717 0.181218,-2.32885 0.749478,-3.17463 0.861647,-1.28228 2.815104,-1.25609 3.306907,-2.91008 l 6.349264,0.26456 c -1.328848,4.20797 -3.760352,7.92864 -4.938404,12.16942 -1.347896,4.85269 -0.447623,11.03025 2.645526,15.0795 2.844734,3.72411 8.168856,5.06988 12.61043,4.14474 0.864823,-0.18016 1.843403,-0.38201 2.645526,-0.74974 0.512174,-0.23466 1.181757,-0.82752 1.763773,-0.83757 0.875934,-0.0151 2.106103,0.84762 2.998175,1.05821 1.331229,0.31429 2.859285,0.48625 4.232842,0.35265 6.804297,-0.66165 11.613597,-6.28445 15.432157,-11.37577 1.33096,-1.77462 3.42013,-4.16432 3.88019,-6.34926 1.36853,0.54022 2.50611,1.69234 3.70374,2.55743 2.65981,1.92092 5.31222,3.85189 7.93658,5.82016 1.24948,0.93704 3.55585,2.13467 3.92411,3.79183 0.22831,1.02673 -0.82144,2.4905 -1.19049,3.43919 -0.85794,2.2061 -1.47964,5.04184 0,7.14292 0.99922,1.41879 3.22648,2.47912 4.9384,2.64552 0.95028,0.0923 2.07806,-0.26905 2.91008,0.30874 2.72093,1.88943 3.90877,6.47069 7.67203,6.56963 0.17355,2.19949 1.58308,1.74049 3.17463,2.20452 0.54948,0.16032 0.97646,0.50027 1.58732,0.44101 0.57408,-0.0558 1.01614,-0.44974 1.58731,-0.52911 1.12832,-0.15661 1.65002,0.75213 2.64553,0.79366 1.99076,0.0831 2.08362,-2.61272 1.76377,-3.96829 -0.91773,-3.88707 -4.13892,-7.66382 -6.43762,-10.84666 -1.48176,-2.05187 -2.66643,-4.30268 -4.14448,-6.34926 -3.98152,-5.51275 -8.47945,-10.68846 -12.56625,-16.13771 -2.15346,-2.87093 -4.25692,-5.78074 -6.30535,-8.73024 -0.56429,-0.81297 -2.00081,-2.14658 -2.07224,-3.17463 -0.0561,-0.80821 1.0135,-1.97991 1.41086,-2.64553 1.5471,-2.59049 3.66432,-4.75189 6.39344,-6.04053 2.20002,-1.03889 4.46036,-1.86192 6.61382,-2.99844 4.29421,-2.26642 8.13314,-5.62333 11.37576,-9.21516 1.79155,-1.98441 3.02436,-4.45215 4.58549,-6.61381 1.71615,-2.37621 3.50426,-4.70375 5.46751,-6.87837 1.36774,-1.51509 2.76272,-3.27675 4.49739,-4.4093 1.54975,-1.01138 3.37834,0.5508 4.76195,1.14657 2.64368,1.13811 5.68682,-0.53122 7.05483,-2.82198 0.74445,-1.24657 1.32329,-2.60928 1.85186,-3.96829 0.29339,-0.75477 0.42144,-1.71166 0.96985,-2.33679 0.98388,-1.12144 3.16405,-1.36668 4.4093,-2.2487 1.29102,-0.91456 1.73547,-2.24896 2.73363,-3.30691 0.33095,-0.3508 0.85106,-0.34207 1.19048,-0.66138 0.29419,-0.27672 0.24233,-0.65424 0.44101,-0.97012 0.52752,-0.83783 1.26298,-1.30503 1.32276,-2.38097 0.0251,-0.45291 -0.18148,-0.87435 -0.0881,-1.32276 0.14074,-0.67646 0.62778,-1.10398 0.44074,-1.85187 -0.15185,-0.60768 -0.65291,-1.01906 -0.88175,-1.58732 -0.32249,-0.80027 -0.0204,-2.28785 -0.92593,-2.7778 -0.56853,-0.30741 -1.32912,0.14233 -1.85187,0.35265 -1.51377,0.60979 -3.03495,1.14101 -4.4974,1.85187 -6.13497,2.9823 -11.98476,6.18206 -17.72502,10.00908 -9.17972,6.11963 -17.75704,13.07604 -26.45527,19.84145 -3.50691,2.72754 -7.29477,5.05216 -10.84665,7.71594 -1.72542,1.29419 -3.43654,2.55214 -5.29106,3.65982 -1.57541,0.94075 -3.3913,1.76086 -4.76194,2.99818 -0.82938,0.74868 -1.59076,1.59075 -2.38098,2.38097 -0.25979,0.25979 -0.63678,0.79366 -1.05821,0.79366 -0.91297,0 -1.84102,-1.79102 -2.38097,-2.38097 -1.20425,-1.31536 -3.00083,-2.804 -4.76196,-3.17464 0.93969,-1.62303 2.47516,-2.97701 3.61565,-4.49739 2.91378,-3.88496 5.66857,-8.88553 3.57146,-13.75674 -0.46746,-1.08572 -1.08969,-2.03467 -1.89605,-2.91008 l 2.11642,0.26456 v -0.26456 c -0.56005,-0.22116 -1.10133,-0.49445 -1.58731,-0.88175 -4.19105,-3.34077 0.2963,-8.9858 2.11642,-12.34588 0.36429,-0.67249 0.68598,-1.41139 0.97011,-2.11642 1.76589,-4.3847 1.03149,-9.6776 -2.55743,-12.96308 -1.02223,-0.93572 -2.30425,-1.39975 -3.43919,-2.116419 3.31538,-0.959797 6.18551,-2.323301 6.87838,-6.084711 -1.4516,0.420163 -2.55849,1.680333 -4.23284,1.587316 -3.87703,-0.215372 -4.75376,-4.540543 -5.90827,-7.407474 -1.27964,-3.176695 -3.26907,-5.79693 -6.261163,-7.583851 -3.965644,-2.368434 -8.326529,-1.983774 -12.433974,-0.04407 -1.634141,0.771673 -3.233891,1.800545 -5.0265,2.248697 -1.144983,0.28622 -2.304782,0.204552 -3.439184,0.440904 -3.350559,0.698022 -6.284712,1.822873 -8.994789,3.968289 -3.11934,2.469572 -4.393426,6.703711 -4.761948,10.49393 -0.140742,1.446574 0.525402,3.711139 -0.132276,5.026499 -0.990749,1.98176 -4.16591,2.98971 -5.952434,4.05638 -3.169341,1.89288 -5.955662,4.67941 -7.848404,7.84848 -1.640041,2.74606 -2.464916,6.58895 -0.793657,9.5239 1.050723,1.84525 3.561592,2.64076 2.99836,5.0265 -0.762706,3.22992 -3.624636,5.33761 -5.732062,7.67203 -2.08695,2.31166 -3.839902,5.19925 -4.673772,8.20113 -1.526046,5.4937 -0.435533,10.91888 3.880114,14.81495 1.747291,1.57752 4.218239,2.2106 5.202877,4.49739 0.921067,2.13917 -1.489643,3.55691 -3.351009,3.70374 M 112.95252,94.809871 c -1.70531,4.31988 -6.8871,4.341573 -10.58211,3.174631 2.18124,1.951605 5.231,2.320918 7.40748,4.497398 4.10003,4.10003 4.12437,9.39505 1.54313,14.28584 -1.1471,2.17383 -3.23204,4.19845 -3.83601,6.61381 -0.5053,2.02172 0.0802,3.33257 0.44101,5.29106 -1.20292,-0.47488 -2.10928,-1.35504 -2.38098,-2.64553 h -0.26455 c 0.62434,2.96511 4.1839,4.20824 5.20296,7.14292 1.66456,4.79422 -0.88414,9.98607 -3.65982,13.75674 -0.91694,1.24578 -2.24579,3.12913 -3.65956,3.83601 -0.55265,0.27646 -1.25848,0.0804 -1.85187,0.22037 -1.2307,0.29075 -2.16986,1.13441 -3.439184,1.23467 -0.345505,-1.87594 1.121704,-2.45029 2.028325,-3.96829 1.056619,-1.76959 1.881759,-3.69791 1.675409,-5.82016 -0.24127,-2.48097 -2.086259,-4.50665 -3.968286,-5.99661 -0.648683,-0.5135 -1.819329,-1.00398 -2.248698,-1.71959 -0.344712,-0.57435 -0.01243,-1.22673 0.04418,-1.80769 0.09841,-1.0143 -0.275135,-2.29843 -0.749743,-3.17463 -2.537588,-4.68497 -8.914365,-4.72042 -13.448003,-5.55561 v -1.85187 c 5.981535,-1.10186 10.071254,-5.50269 13.492184,-10.31755 h 0.264552 c -0.08677,1.60769 -0.192065,3.24712 1.058211,4.4974 2.564838,2.56483 7.392393,0.63201 7.672023,-2.91008 h -0.26455 c -0.27513,3.48574 -6.551645,5.71566 -7.58393,1.58731 -0.906092,-3.62516 1.127524,-6.6117 1.940229,-10.053 0.500798,-2.12144 0.0881,-3.97834 0.0881,-6.084707 h -0.264552 c -0.08386,3.191297 -0.206616,6.608787 -1.587316,9.523897 h -0.264553 c 0.0373,-1.41906 0.392067,-2.82357 0.529106,-4.23284 0.30106,-3.09633 -0.466407,-7.017263 -1.851869,-9.788452 -1.527262,4.836022 -4.495543,9.259342 -10.053,9.259342 l 2.380974,-2.64553 2.380974,-3.703733 -3.174632,3.703733 -2.645526,1.76378 -1.851869,0.13227 -1.587316,1.19049 -2.380973,0.0881 c 0,-2.0852 2.344465,-3.81511 3.703737,-5.291053 l -2.645527,1.851863 1.058211,-1.851863 c -3.44183,3.534953 -5.555605,8.538433 -5.555605,13.492183 h -0.264556 c -0.903183,-1.8061 -1.652396,-3.504 -1.851868,-5.55561 -0.396829,-4.08257 1.721973,-8.142924 2.910078,-11.904863 h -0.264552 l -1.587316,3.96829 c -1.168264,-0.378046 -0.745245,-1.394986 -0.484925,-2.380974 0.565349,-2.142347 1.433082,-4.234906 2.601346,-6.08471 -1.952398,1.13038 -3.505058,3.547492 -4.453214,5.555605 -0.271167,0.573947 -0.315083,1.547633 -0.705562,2.028325 -0.32831,0.403972 -1.032549,0.423813 -1.45504,0.705297 -1.358477,0.905828 -2.474096,2.73442 -2.380973,4.4093 0.07884,1.42118 0.641275,3.05346 1.410859,4.23284 0.453178,0.69418 1.141544,1.30794 1.411124,2.11642 0.453178,1.35953 0.216933,2.83627 0.352648,4.23284 0.06905,0.709 0.437835,1.39499 0.176457,2.11642 -0.5381,1.48493 -2.89791,1.51007 -4.144746,1.14631 -2.786798,-0.81271 -3.96829,-2.59341 -3.96829,-5.37915 h -0.264552 c 0,0.75371 -0.134129,1.65345 0.0881,2.38097 1.165089,3.81247 5.382852,4.01353 8.377588,2.91008 0,2.79474 0.423284,6.99054 -1.675412,9.21516 -0.73043,0.77408 -2.397376,0.96059 -3.351088,1.41113 -2.593145,1.22435 -5.805343,3.46881 -6.790272,6.30508 -0.655826,1.88891 -0.427782,3.87252 -0.617202,5.82016 -0.459528,4.72729 -0.06958,9.55855 -0.529105,14.28584 -0.173282,1.78308 -0.282278,3.51432 -0.529105,5.29105 -0.09021,0.64974 -0.06826,1.80796 -0.573286,2.29288 -1.294456,1.2426 -4.569353,0.68704 -6.04053,0.17619 -5.045363,-1.75187 -8.484864,-6.48339 -8.99479,-11.72841 -0.39876,-4.10162 1.801842,-9.18368 4.497395,-12.16942 2.894285,-3.20585 6.613816,-5.91937 6.613816,-10.58211 2.471451,0 5.009833,-0.33201 6.349263,-2.64552 -2.367481,2.30531 -7.036306,2.76695 -9.171167,-0.26456 -0.99768,-1.41667 -1.044639,-3.61643 -0.881833,-5.29105 0.456883,-4.69925 4.489987,-8.81357 8.201132,-11.28767 2.164569,-1.44287 4.88708,-2.28282 6.613815,-4.32093 1.146307,-1.35292 0.3672,-3.889716 0.529106,-5.555604 0.217991,-2.24084 0.850007,-4.632025 1.896048,-6.613816 1.721709,-3.262357 5.135232,-6.068414 8.686057,-7.054745 2.080442,-0.577889 4.33443,-0.45101 6.349263,-1.234562 3.212198,-1.249191 6.559583,-3.275928 10.053,-3.615561 5.404281,-0.525428 9.891626,2.941666 12.125236,7.672026 1.4188,3.004498 2.02806,7.038053 5.59979,8.377509 2.09367,0.785087 3.13363,-0.20733 5.0265,-0.705482 m -39.947447,-1.322763 -1.322763,5.0265 -1.322763,-0.264553 c 0.314288,-1.706603 1.122761,-3.85649 2.645526,-4.761947 m 1.851868,1.322763 0.264553,0.264552 -0.264553,-0.264552 m 19.841448,1.05821 c 0.426988,5.409835 2.851083,11.579195 -1.587316,16.137705 H 92.84652 c -0.475401,-0.4627 -0.94022,-1.0098 -1.587315,-1.23467 -1.04075,-0.36138 -2.742618,0.54075 -2.910079,-0.88175 -1.794196,0.70821 -2.170655,2.50214 -1.851869,4.23284 l 2.380974,-0.0881 1.587316,-2.29288 c 2.123299,0.63122 0.420109,2.48997 -0.529106,3.43918 l 1.851869,-1.05821 c -1.979383,5.3728 -9.759876,9.22945 -15.0795,6.56964 -2.709019,-1.35451 -4.805334,-4.60851 -5.820158,-7.3633 h -0.264553 c 0.23995,3.03786 1.834673,5.80297 3.96829,7.93658 0.748155,0.74816 1.607157,1.68203 2.645526,2.02833 1.027787,0.34259 1.945785,-0.2381 2.910079,-0.44101 0.21561,1.36509 0.0381,2.63177 1.322763,3.43918 l -0.529105,-1.32276 c 3.547915,0 8.904048,0.70821 11.640316,3.17463 1.66721,1.50293 2.834681,4.02358 1.587316,6.08471 l -5.291053,-2.38097 7.672026,4.67385 2.645527,2.99817 c -2.024093,-0.58598 -4.006386,-0.14471 -5.820158,0.83784 -0.930961,0.50424 -1.608745,1.27038 -2.645527,1.54314 -0.492068,-2.33706 -2.445789,-4.89687 -4.497394,-6.08471 1.970388,1.97039 4.232842,4.17676 4.232842,7.14292 -2.30346,-0.90927 -4.30242,-2.13044 -6.878369,-2.38097 -4.224112,-0.41059 -9.096377,1.65107 -11.904868,4.76194 -0.937046,1.03784 -1.427791,2.32066 -2.204517,3.43919 -0.482015,0.69418 -1.192074,1.19683 -1.719592,1.85187 -0.570111,0.70741 -0.745774,1.53758 -1.631496,1.85186 0.257674,-3.2651 2.529916,-6.9117 3.968289,-9.78844 -1.453981,0.43228 -1.804513,2.19816 -2.425154,3.43918 -1.938112,3.87623 -2.998439,8.06991 -4.365118,12.16942 -0.550005,1.65055 -0.980168,3.3167 -1.146307,5.0265 -0.161377,1.65981 0.161377,3.3667 0,5.0265 -0.256351,2.63733 -0.568523,5.33603 -1.146306,7.93658 -1.078846,4.85454 -4.246864,8.57812 -5.732062,13.22763 -0.63281,1.98071 -0.938633,4.04369 -1.278583,6.08471 -0.147885,0.88678 -0.114816,2.15426 -0.661382,2.91008 -1.928853,2.66749 -7.12964,2.49129 -9.964904,1.93997 -0.981093,-0.19075 -3.344818,0.82011 -3.174631,-0.88176 0.131774,-1.31773 1.401441,-1.22752 2.380974,-1.32276 1.549008,-0.15053 3.880034,0.0804 4.761947,-1.32276 -2.077505,0.76535 -4.226863,0.38069 -6.349263,0.88175 -1.527527,0.36085 -2.816428,1.33017 -4.232842,1.94023 -0.559979,0.24101 -2.420948,0.82435 -2.601426,-0.17646 -0.233415,-1.29445 2.256925,-2.47647 3.130531,-2.99817 2.82238,-1.68573 5.662299,-3.12807 8.730237,-4.3212 1.08784,-0.42302 3.405797,-0.5844 3.968289,-1.67542 0.764451,-1.48255 0.636858,-3.67834 0.793658,-5.29105 0.334395,-3.43892 0.723816,-6.87705 1.058211,-10.31755 0.230954,-2.37516 0.778843,-4.91645 1.675411,-7.14292 0.786515,-1.95267 1.898695,-3.76617 2.469335,-5.82016 0.933077,-3.35929 1.075935,-6.87281 1.410859,-10.31755 0.400003,-4.11353 -0.134922,-8.32574 0.264552,-12.43398 0.178044,-1.83097 0.300532,-3.85744 1.102391,-5.5556 1.252922,-2.65347 4.26115,-4.56116 6.834188,-5.77598 0.912178,-0.43096 2.437059,-0.57461 3.086536,-1.36694 0.540481,-0.65953 0.748684,-1.58441 0.96985,-2.38098 0.996834,-3.58786 0.527782,-6.70323 0.176456,-10.31755 -0.141006,-1.45001 0.13307,-3.09791 -0.352648,-4.4974 -0.56773,-1.63493 -2.212983,-2.71192 -2.733887,-4.49739 -0.666408,-2.28547 0.858209,-6.310898 3.615641,-6.349258 0.756091,-0.01058 2.162188,0.469581 2.248697,1.322763 0.120107,1.184935 -0.699477,2.774895 -0.881754,3.968285 -0.550269,3.60188 -0.08572,8.30245 3.395004,10.31755 -0.400533,-2.17383 -0.722758,-5.21327 0.617201,-7.14292 1.139164,-1.64022 5.328884,-3.89765 7.275198,-2.29287 0.635455,0.52408 0.624079,1.55477 0.837838,2.29287 h 0.264553 l -0.529106,-2.64552 c 3.102409,0 6.127304,-0.83996 8.113036,-3.43919 1.085988,-1.421965 1.649485,-4.037544 2.998175,-5.026495 m -14.814948,2.645527 -0.264552,0.529105 0.264552,-0.529105 M 67.71402,106.18562 h 0.264553 c -0.455824,-2.47409 -0.799478,-5.19819 2.116421,-6.349255 -0.757943,-0.516936 -1.702396,0.323285 -2.160601,1.058205 -1.051332,1.68706 -0.782282,3.51168 -0.220373,5.29105 m 2.116421,-3.96828 0.793658,-0.26455 -0.793658,0.26455 m 1.058211,-0.52911 0.264553,0.26456 -0.264553,-0.26456 m -1.587316,0.52911 0.264553,0.26455 -0.264553,-0.26455 m -0.264552,0.5291 -0.264553,1.05821 h 0.264553 v -1.05821 m -0.264553,2.38098 0.264553,0.26455 -0.264553,-0.26455 m 8.730237,1.32276 2.645526,-0.52911 c -0.484396,-1.4971 -2.092611,-0.40053 -2.645526,0.52911 m -8.465684,-0.79366 0.529105,0.5291 -0.529105,-0.5291 m -1.058211,0.79366 0.529105,0.5291 -0.529105,-0.5291 m 2.910079,0 0.264553,0.26455 -0.264553,-0.26455 m -2.380974,0.79365 0.793658,0.52911 v -0.26455 l -0.793658,-0.26456 m 8.465685,0 c 0.136244,1.72568 0.06825,4.33073 2.116421,4.76195 l -0.529106,-0.5291 v -0.26456 c 1.447103,-0.11428 2.593674,-0.61349 2.910079,-2.11642 h 0.529106 l 1.05821,1.32277 c -0.08995,-3.41697 -3.607175,-3.17464 -6.08471,-3.17464 m 6.08471,0 0.529105,1.32277 -0.529105,-1.32277 m 6.084711,1.58732 2.380973,-0.70556 2.645527,0.44101 c -0.644451,-1.99182 -4.188662,-1.14446 -5.0265,0.26455 m 93.122526,3.96829 c 2.02674,0.71217 2.69605,-0.88572 4.23284,-1.85187 1.38811,2.29367 -1.25662,2.55108 -2.91008,2.64553 l 0.26455,0.79365 c 0.63599,-0.18412 1.98388,-0.8291 2.60135,-0.39682 0.71323,0.49921 0.10132,1.78652 -0.48492,2.11642 -0.71985,0.40503 -1.48626,-0.0984 -2.11643,-0.39683 l -0.26455,0.26455 v 0.52911 l 1.85187,0.5291 v 0.52911 h -1.85187 c -0.0738,0.64603 -0.0143,1.25477 -0.30873,1.85186 -1.32911,2.69633 -4.62068,2.45347 -6.52546,4.32094 -0.70794,0.69392 -0.81879,2.42807 -1.19048,3.35109 -0.92435,2.295 -2.5704,5.33841 -5.20296,5.99662 -2.83045,0.70741 -5.53444,-3.10956 -8.20113,-1.14658 -7.92441,5.83339 -11.57391,15.36125 -18.78324,21.86978 -2.71907,2.45478 -6.16963,5.03496 -9.52389,6.52572 -2.29156,1.01826 -4.90798,1.41906 -6.87837,3.08627 -2.23891,1.89446 -3.87094,4.94819 -5.55561,7.31938 -1.09075,-0.68572 -1.81271,-2.12304 -2.60134,-3.17464 -1.58626,-2.11483 -3.32146,-4.07199 -5.0265,-6.08471 -0.54234,-0.63995 -2.32807,-2.06377 -2.29288,-2.91008 0.0405,-0.97117 1.60901,-2.23652 2.20452,-2.91007 1.26482,-1.43044 2.69394,-2.05293 4.27702,-2.99818 2.25055,-1.34419 4.43337,-2.86749 6.61382,-4.3212 9.61569,-6.41038 18.54037,-13.8832 27.77802,-20.8113 3.81168,-2.85876 7.54028,-5.97307 11.64032,-8.42177 5.17465,-3.0905 10.22734,-6.11434 15.6086,-8.73024 1.35345,-0.65767 2.79659,-1.24075 4.23284,-1.71959 0.42805,-0.14259 1.10663,-0.50847 1.54314,-0.22037 0.43625,0.28783 0.31482,1.0135 0.30873,1.45504 -0.0344,2.486 -1.84499,1.94499 -3.43918,2.91008 m -91.006105,-3.43919 1.322763,1.58732 v -1.58732 h -1.322763 m -29.365342,1.05822 -0.264553,0.5291 0.264553,-0.5291 m -0.44101,0.97011 0.08836,0.17619 -0.08836,-0.17619 m 41.975777,0.88175 c -0.93837,1.28599 -1.73679,1.2098 -3.17464,0.79366 v 0.26455 c 0.92329,0.55874 4.42068,0.65504 3.17464,-1.05821 m -20.106004,4.23285 -1.058211,1.05821 c 0.741277,-0.0585 1.615623,-0.27778 1.058211,-1.05821 m -5.0265,0.26455 c 0.41085,1.41959 4.001887,3.66035 4.761947,1.58731 l -2.910079,-0.26455 -1.851868,-1.32276 m 0.529105,2.64552 1.851868,1.05822 c -0.116403,-0.98837 -0.951331,-0.98705 -1.851868,-1.05822 m -22.486974,4.23285 -2.116421,0.79365 v 0.26456 l 2.380974,-0.79366 -0.264553,-0.26455 m 20.635106,5.5556 v 0.26455 l 2.645526,0.57329 2.910079,1.54314 0.264552,-2.38098 -0.793657,1.32277 -2.116422,-1.23467 -2.910078,-0.0881 m 11.640315,2.38098 0.264553,0.26455 -0.264553,-0.26455 m -2.645526,3.96829 0.264553,0.26455 -0.264553,-0.26455 m 10.053,4.27702 c 0.902124,-0.15053 3.177012,-0.3799 3.880193,0.30847 1.219855,1.19472 0.889695,4.02464 0.529105,5.46751 -0.754239,3.01642 -4.065909,6.82651 -7.319377,7.14292 -1.000538,0.0974 -3.240241,0.19127 -3.836013,-0.83784 -0.459793,-0.79419 1.005564,-3.29448 1.278583,-4.18866 0.333336,-1.09049 0.595243,-2.30399 0.705562,-3.43919 0.05741,-0.58916 -0.154764,-1.30186 0.132276,-1.85187 0.688101,-1.31906 3.233627,-2.3688 4.629671,-2.60134 m -15.873158,1.58731 c 2.716162,-0.41508 5.743438,0.10794 8.201132,1.23441 0.568788,0.26085 1.598427,0.39021 1.984144,0.92593 0.581487,0.80768 0.145769,3.27463 -0.132276,4.14475 -1.192603,3.73336 -4.462474,6.75376 -8.465684,7.14292 -3.997919,0.38863 -8.023881,-1.05583 -9.435799,-5.29105 -0.244976,-0.73493 0.10635,-1.39631 0.176457,-2.11643 0.06984,-0.71826 -0.231748,-1.72356 0.132276,-2.38097 0.321696,-0.58069 1.184402,-1.04683 1.719592,-1.41086 1.72991,-1.17726 3.74633,-1.93203 5.820158,-2.2487 m -9.259342,6.30509 -0.529105,2.11642 c 1.192603,0.13624 1.805042,1.80504 2.645526,2.64552 1.470119,1.47012 3.263521,2.3995 5.291053,2.82199 2.669336,0.55609 5.276237,0.019 7.672026,-1.27885 0.806885,-0.43704 1.522236,-1.37726 2.380974,-1.67541 0.798949,-0.27725 2.102135,0.64709 2.910079,0.83784 1.174878,0.27725 2.287057,-0.0855 3.439184,-0.17646 l -0.132277,1.85187 -2.248697,2.11642 -3.924109,3.70374 -12.56625,15.6086 -3.880193,4.76195 -2.116422,2.91008 c 6.764082,-6.76408 11.850636,-15.12924 18.254132,-22.22242 1.284668,-1.42303 2.463779,-2.84447 3.968289,-4.05639 2.820396,-2.27224 6.016192,-5.54158 9.788448,-5.90852 2.12462,-0.20635 4.17755,1.44393 5.5556,2.82199 3.31749,3.31749 6.20694,7.14874 9.08289,10.84665 5.87571,7.5543 11.59349,15.25887 17.19592,23.01608 4.12914,5.71698 8.68897,11.04931 12.61043,16.93137 2.12542,3.18839 4.42279,6.37651 6.12889,9.78845 0.56297,1.12593 1.68044,3.10135 0.44075,4.18866 -0.47673,0.41852 -1.1897,0.42672 -1.45504,-0.22037 -0.26112,-0.63757 -0.014,-1.45054 -0.0881,-2.11642 -0.0852,-0.76694 -0.53492,-1.4143 -0.79366,-2.11642 h -0.26455 c 0.35159,1.11323 0.72302,2.24076 0.52911,3.43918 -0.1127,0.6971 -0.93361,1.1217 -1.45504,0.44101 -0.29233,-0.38175 -0.0897,-1.06112 -0.13228,-1.49922 -0.0794,-0.81747 -0.26455,-1.54499 -0.26455,-2.38097 h -0.52911 c 0.0881,1.11482 0.83731,2.60928 0.44101,3.70373 -0.42699,1.17806 -1.77779,1.17806 -2.20478,0 -0.38122,-1.05212 -0.0328,-2.33467 -0.35265,-3.43918 h -0.26455 c 0,0.84842 0.30767,2.42939 -0.13228,3.17463 -1.04234,1.76615 -2.1733,-0.63387 -2.2487,-1.58732 -4.14368,0 -4.70612,-4.58946 -7.67202,-6.52572 -1.2188,-0.79551 -3.10797,-0.22301 -4.4974,-0.70529 -4.822,-1.67436 -4.45162,-6.53207 -2.11642,-10.22946 l 1.85187,2.38097 c -1.09366,-1.73149 -1.0008,-4.00294 -2.38097,-5.5556 -2.89527,-3.25717 -7.11673,-5.55799 -10.58211,-8.15695 -8.22124,-6.16593 -17.24698,-13.67473 -20.899655,-23.58937 h -0.264553 c 0.40556,1.92621 1.706894,3.87517 2.733623,5.55561 0.434655,0.71112 1.315095,1.54155 1.455035,2.38097 0.26773,1.60637 -1.17752,4.00348 -1.587312,5.55561 -1.601601,6.06989 -4.166968,12.9972 -7.980494,17.98958 -4.646073,6.0818 -14.458595,9.79215 -20.547009,3.43918 -0.871172,-0.909 -1.591549,-2.02965 -2.116421,-3.17463 -2.458488,-5.36434 -2.177798,-10.60777 0.308733,-15.87316 1.627527,-3.44659 3.602942,-6.82837 4.54131,-10.5821 0.28413,-1.13573 0.771171,-2.52437 0.705562,-3.70374 -0.183335,-3.29924 -2.278327,-5.71751 -4.497395,-7.93658 -1.063237,-1.06324 -3.330717,-2.93468 -3.439184,-4.4974 -0.115345,-1.66059 1.614036,-2.91616 2.601346,-3.96828 0.571169,-0.60874 1.001596,-1.33864 1.631496,-1.85187 m -0.793658,2.11642 -2.910079,3.70373 2.910079,-3.70373 m 27.248921,2.38097 c -0.352913,1.08837 -1.015617,1.56218 -2.116421,1.85187 0,-1.34366 0.717996,-2.33018 2.116421,-1.85187 m -31.481763,1.05821 c 1.519855,4.12544 6.323866,6.19424 7.58393,10.31755 0.22196,0.72673 0.0881,1.62912 0.0881,2.38098 0,2.16483 -0.06429,4.74766 -2.645526,5.29105 l 0.529105,-1.32276 c -1.355832,1.32012 -3.228865,1.81509 -5.0265,1.05821 0.2336,-1.26747 0.356617,-2.09367 -0.793658,-2.91008 1.365886,2.25663 -1.148952,4.54475 -3.174631,5.29105 l 0.529105,-4.76195 0.0881,-7.40747 1.411124,-3.70374 1.410859,-4.23284 m 1.058211,0.52911 0.264552,0.26455 -0.264552,-0.26455 m -7.672027,7.93658 v 1.85186 c 0.920379,-0.0995 1.13546,-0.43333 1.322763,-1.32276 l -1.05821,0.52911 -0.264553,-1.05821 m -3.968289,0.5291 -2.645527,5.82016 h -0.264552 v -3.17463 h -0.264553 c -0.348945,1.65742 -1.455489,2.77436 -3.174631,2.91008 v -0.26456 c 2.304253,-1.68149 1.026411,-2.81537 0.793658,-5.0265 l 5.555605,-0.26455 m 10.053,5.55561 0.264552,0.26455 -0.264552,-0.26455 m 36.772815,5.5556 c 3.08098,3.77676 6.51884,8.45484 10.84666,10.84666 -0.37831,1.79658 -1.87012,3.46881 -2.82198,5.0265 -3.38522,5.53947 -8.54135,11.22973 -15.167601,12.61043 -2.516689,0.52434 -4.725968,-0.51482 -7.142921,-0.70556 0.412967,-1.42647 1.929912,-2.35346 2.910079,-3.43919 1.152921,-1.27699 2.203459,-2.75425 3.086536,-4.23284 2.217745,-3.71379 4.120936,-7.95721 5.291052,-12.16942 0.494185,-1.77912 1.089425,-3.5331 1.675415,-5.29105 0.31243,-0.93705 0.56826,-2.05267 1.32276,-2.64553 m -62.169868,25.39705 c -0.263838,1.25319 -1.217048,1.72092 -2.380973,1.32277 z"
       style="fill:#010101;stroke:none;stroke-width:0.264553" />
  </g>
</svg>
