<?xml version="1.0" encoding="UTF-8" standalone="no"?>
<svg
   xmlns:dc="http://purl.org/dc/elements/1.1/"
   xmlns:cc="http://creativecommons.org/ns#"
   xmlns:rdf="http://www.w3.org/1999/02/22-rdf-syntax-ns#"
   xmlns:svg="http://www.w3.org/2000/svg"
   xmlns="http://www.w3.org/2000/svg"
   xmlns:sodipodi="http://sodipodi.sourceforge.net/DTD/sodipodi-0.dtd"
   xmlns:inkscape="http://www.inkscape.org/namespaces/inkscape"
   sodipodi:docname="绘图.svg"
   inkscape:version="1.0 (4035a4fb49, 2020-05-01)"
   id="svg8"
   version="1.1"
   viewBox="0 0 210 297"
   height="297mm"
   width="210mm">
  <defs
     id="defs2" />
  <sodipodi:namedview
     inkscape:window-maximized="0"
     inkscape:window-y="4"
     inkscape:window-x="314"
     inkscape:window-height="1040"
     inkscape:window-width="1301"
     showgrid="false"
     inkscape:document-rotation="0"
     inkscape:current-layer="layer1"
     inkscape:document-units="mm"
     inkscape:cy="592.36685"
     inkscape:cx="514.16852"
     inkscape:zoom="0.7"
     inkscape:pageshadow="2"
     inkscape:pageopacity="0.0"
     borderopacity="1.0"
     bordercolor="#666666"
     pagecolor="#ffffff"
     id="base" />
  <metadata
     id="metadata5">
    <rdf:RDF>
      <cc:Work
         rdf:about="">
        <dc:format>image/svg+xml</dc:format>
        <dc:type
           rdf:resource="http://purl.org/dc/dcmitype/StillImage" />
        <dc:title></dc:title>
      </cc:Work>
    </rdf:RDF>
  </metadata>
  <g
     id="layer1"
     inkscape:groupmode="layer"
     inkscape:label="图层 1">
    <path
       id="path38"
       d="m 113.73091,123.73194 c -0.90145,0.34186 -0.95621,0.26134 -1.65961,0 1.60318,-0.84532 5.37381,0.57697 6.91392,2.48258 0.8038,0.99455 1.81976,2.63139 2.21391,2.21964 m -11.61724,-4.42561 2.21281,-0.55321 m -2.76601,3.59582 c -0.84336,0.14054 -0.47188,-0.22059 0.2766,-0.5532 -0.0708,-1.00448 0.89923,-1.62421 2.76601,-2.48941 m -0.2766,0.2766 1.1064,0.8298 -0.8298,0.2766 v 0.2766 l 0.2766,0.2766 0.2766,-0.2766 m 0.5532,-1.383 c 1.12162,1.69741 0.99604,3.48771 0,5.53202 l 0.55321,-0.2766 m 1.1064,-4.70222 c 1.05634,0.21312 2.72673,0.50463 2.48941,1.93621 m -9.12783,-1.65961 -0.27661,1.65961 0.27661,0.2766 m -0.27661,-1.38301 c -0.90503,1.39327 0.0183,4.30416 -0.11257,5.53202 -0.0531,0.49891 -0.36567,1.46322 -0.25171,2.21281 0.12392,0.81584 0.57561,1.65305 0.62484,2.21281 0.1679,1.91021 0.60825,4.1161 1.39905,5.80862 m -1.383,-15.48966 h 0.5532 m 3.04261,0 0.5532,0.2766 m 2.48941,-0.2766 0.8298,9.12784 m -8.02143,-8.57463 h 0.55321 m 3.31921,0 v 0.2766 m 0.5532,-0.2766 c -0.20109,2.5471 -0.36428,5.06348 -0.8298,6.63842 l -0.55321,-4.70222 m -3.04261,-1.383 -0.2766,0.2766 m 1.38301,0 -0.5532,0.5532 m 5.25542,-0.2766 -0.27661,1.383 m -5.80862,0 v -1.1064 m 6.91503,0.5532 c 0.0924,1.20958 0.15849,1.91411 0.18283,3.04261 0.0249,1.14231 0.14079,1.9054 0.29237,3.04262 0.43509,3.27025 1.6549,5.50519 3.06889,8.29803 0.71612,1.41398 0.32832,3.38725 0.32832,4.97882 m -11.34064,-19.08548 0.2766,0.55321 m 11.06404,-0.55321 0.2766,0.82981 0.55321,-0.82981 m 2.48941,0 1.1064,1.38301 c -0.84585,0.62611 -0.82593,0.59287 -1.65961,1.1064 -0.11589,-0.68185 -0.0855,-1.02561 0,-2.21281 m -17.14926,0.27661 c -0.79689,1.88888 -0.43703,2.83657 0,3.87241 1.32547,-1.05194 2.49909,-2.09558 3.87241,-1.1064 m -1.1064,-2.76601 -0.2766,1.1064 1.383,0.2766 m -0.5532,-1.383 v 0.8298 m 11.34064,-0.5532 0.83091,1.84271 0.82234,1.24131 -1.65325,2.448 c -0.21823,-1.28279 0.17482,-1.85265 1.10641,-3.04261 m -0.2766,-2.48941 -0.2766,0.8298 m 3.04261,-0.8298 -0.5532,1.1064 m -0.55321,-0.8298 0.55321,0.5532 m -8.02143,-0.2766 0.0141,2.76601 0.16154,1.93621 0.3582,2.21281 1.40236,7.74482 0.2766,-1.6596 m 3.31922,-13.00025 v 0.2766 m 0.8298,0.5532 v 0.82981 m 1.1064,-0.55321 0.55321,2.48941 c 0.58943,-0.64298 0.88706,-1.00647 0.2766,-2.48941 m -7.74483,0.2766 v 0.55321 m -7.74483,-0.2766 0.8298,1.9362 c -0.23954,0.32044 -0.43896,0.43288 -1.1064,1.93621 -0.40024,-1.77451 0.37286,-1.96071 0.5532,-2.21281 m 13.55345,-0.8298 -0.5532,1.1064 m -15.48966,-0.5532 0.5532,-0.2766 m 5.53202,0.2766 c -0.14106,1.99806 -0.37037,2.51793 0.2766,4.70222 m 0.82981,-4.70222 0.2766,2.21281 m -7.19163,-1.93621 -0.8298,0.8298 0.8298,1.38301 m 14.10665,-1.93621 0.55321,0.5532 m 2.48941,-0.5532 1.383,6.36183 c 0.79827,-1.35258 0.22792,-3.9032 -0.5532,-6.36183 m -21.85148,3.31922 c 0.45058,-1.53163 1.78767,-2.09791 3.04261,-2.76602 m 7.46823,0 c 0,1.83254 1.0284,7.45689 2.2128,10.51084 m 4.42562,-10.51084 v 0.55321 m 2.21281,-0.55321 c 0.23954,0.41504 0.45224,0.71364 0.72331,1.66088 0.36235,1.26695 0.80297,4.21939 2.0427,4.97755 l 0.2766,-0.8298 m -3.04261,-5.25542 c 0,0.81567 0,1.23195 0,2.76601 m -10.23424,-2.21281 v 1.1064 m -3.59581,-0.8298 c -0.0426,0.65701 -0.0401,1.52794 -0.0791,2.21281 -0.0456,0.79744 0.0144,1.30002 -0.16347,2.21281 -0.42044,2.1608 -1.99457,2.70101 -2.61831,5.25542 -0.41352,1.69418 0.80934,2.36964 2.03108,3.59581 0.0957,-0.14632 0.74074,-0.86521 0.70866,-1.66099 -0.0484,-1.20017 -0.58833,-1.14291 -0.31699,-2.57903 l 0.16154,-0.4622 c 1.35921,1.83802 1.1501,2.18902 0.5532,3.04261 m -1.38301,-11.34064 0.5532,0.5532 m -4.14901,6.36183 c 0.56012,-0.9233 1.00489,-1.87729 1.70663,-2.67197 1.00572,-1.13877 1.29919,-1.6975 2.71899,-2.30685 m 0.8298,0.2766 c 0.52167,1.74895 0.29015,3.63509 -0.5532,2.76601 m 14.10665,-2.21281 c 0.12696,2.95327 -0.13083,5.74003 -0.58612,8.29803 -0.2257,1.26767 -0.43813,1.07985 -0.24368,2.21281 l 0.2766,-1.1064 m -15.48966,-8.57464 1.383,-0.2766 m 15.48966,0 0.55321,1.38301 m 2.2128,-0.8298 0.12503,2.2128 0.28019,1.93621 -0.23013,2.21281 0.10151,2.48941 c 0.40246,-0.59884 0.81128,-0.915 0.27661,-2.21281 m -2.76601,-5.80862 0.2766,1.65961 0.5532,-1.10641 m 0.2766,-0.2766 1.1064,1.1064 m -14.65985,-0.8298 c 0.29734,1.90606 1.42947,3.15049 2.37849,4.97882 1.82833,3.52334 1.27707,5.50962 2.32373,7.46823 l 0.2766,-1.38301 m -6.91503,-10.78744 c 0.25641,1.56335 0.6868,2.34364 0,3.87242 m -0.8298,-3.59582 c 0.19085,0.80436 0.11368,0.60465 0.5532,1.38301 m 15.48966,-1.10641 1.1064,-0.2766 m -1.6596,0.55321 c -1.10834,2.47032 -0.37452,4.17446 0.0874,6.91392 0.15877,0.9432 -0.12391,1.36447 -0.46247,2.26093 -0.26775,0.7081 -0.53882,1.4126 -0.50121,2.14394 0.052,1.0118 0.75983,0.97391 1.08871,1.73097 0.2849,0.65609 0.0509,1.29145 -0.18616,1.88669 -0.35073,0.88098 -0.86023,1.65657 -1.40928,2.48941 m 2.21281,-17.42586 c 0.23262,1.01816 0.40162,1.70441 1.1064,3.04261 m -3.04261,-2.76601 v 0.5532 m 3.04261,-0.5532 -0.8298,0.8298 m -16.87266,-0.5532 -0.2766,1.1064 m 15.76626,-0.8298 h 1.1064 m -3.87241,0.2766 1.6596,0.2766 m 1.65961,0 c 0.001,1.60401 0.19251,2.24379 0.50618,3.59581 0.23262,1.00158 0.34824,1.75614 0.2979,2.76601 -0.0661,1.3335 -0.46995,1.57469 0.61571,2.6078 0.72248,0.68735 1.23724,1.10834 1.89942,1.54122 -0.0769,-0.64033 -0.28462,-1.2483 -0.40052,-1.93676 -0.2766,-1.6455 -0.21187,-2.18017 0.12392,-3.59526 l 0.2766,0.5532 v 0.2766 0.2766 m -1.93621,-5.80862 h 0.5532 m -21.57488,0.2766 -1.9362,1.65961 m 14.93645,-1.10641 0.5532,3.04262 -0.2766,-1.65961 m 0.2766,-1.38301 v 1.10641 m 8.29804,-1.10641 v 1.10641 m -1.38301,-0.8298 -0.2766,1.383 m -14.65986,-1.1064 c 0.6207,1.94091 0.8453,2.93944 1.38301,4.14901 m 15.76626,-4.14901 1.62309,2.48941 0.26112,3.04261 -1.60761,2.48941 m -19.08547,-7.46823 c 0.0545,-0.12171 -0.0868,0.6229 -0.6135,0.94902 -1.33073,0.82371 -2.35084,0.88512 -2.99891,2.92339 -0.3358,1.05662 -1.11526,3.96038 0.0166,4.14902 m 4.14902,-6.91503 c 0.0971,0.18173 0.33137,0.46718 0.42984,0.87406 0.53826,2.22194 0.51558,4.67069 1.78297,6.31757 0.40384,-1.59875 -0.15711,-3.46526 -0.2766,-4.97882 m 1.9362,-1.383 c 0.38752,1.55449 0.75264,1.6289 1.0226,3.31921 0.48156,3.01772 0.94017,5.49468 2.02002,6.91503 l 0.25779,-1.93677 -0.25779,-2.48885 m 2.2128,-5.80862 v 1.383 m 0.55321,-1.383 c 0.23815,1.22755 0.66273,2.9718 0.4196,4.14901 -0.15158,0.73327 -0.42375,1.18192 -0.74046,1.93621 -0.41297,0.98221 -0.91002,1.38854 -1.30251,2.36521 -0.40993,1.02039 0.62373,1.0013 1.11276,0.69925 1.22977,-0.7601 0.81819,-0.95759 1.34041,-1.95806 0.89978,1.05275 0.91749,1.2436 1.1064,1.93621 h -1.383 c -0.0174,1.34428 0.005,2.06593 -0.5532,3.31921 -0.30537,-0.81459 -0.45197,-1.24774 -0.55321,-2.48941 m -9.40443,-9.68103 -0.8298,1.1064 c 0.67712,1.08234 0.70035,1.3429 0.5532,2.21281 l 0.5532,-0.5532 m 20.46848,-2.76601 c 0.19555,0.33911 0.41573,0.55154 0.63618,1.38992 0.27411,1.04195 0.56814,2.92616 -0.0769,3.69594 -0.50479,0.60244 -1.23142,0.46607 -1.94229,0.72276 m -4.70222,-5.53202 v 3.31921 m 3.87242,-3.31921 v 0.2766 m -1.10641,0 c -0.38475,3.04427 -0.77724,3.53054 -2.07782,5.06982 l -0.41158,0.4622 m -14.65986,-5.25542 c 0,0.46331 -0.22598,0.0758 0.2766,0.8298 m 11.89385,-0.2766 -0.2766,1.93621 0.2766,-1.1064 m 7.74483,-0.82981 c -0.36263,0.64089 -0.28933,0.993 -1.38301,2.48941 m -14.38325,-2.21281 c 0,2.17796 -0.60631,4.40626 0.5532,6.36183 -1.2743,0.57477 -2.1503,0.26249 -3.31921,0 l 0.2766,-1.38301 m 6.63842,-4.97882 0.8298,3.31922 0.27661,-1.38301 m -9.12784,-1.65961 -0.2766,0.27661 m 14.10665,0 0.55321,0.5532 m -13.83006,0 v 1.1064 m 14.38326,-1.1064 0.5532,0.5532 m -2.21281,-0.2766 -1.1064,1.65961 m -1.10641,-1.38301 0.2766,0.8298 0.27661,-0.8298 m -12.17045,0.2766 v 0.8298 m 1.1064,-0.5532 v 0.82981 m 17.97907,-0.82981 0.5532,0.82981 m 1.10641,-0.55321 c -0.91915,0.91915 -0.36926,0.36927 -0.82981,0.82981 m -16.59606,-0.55321 c -0.0523,1.09341 0.002,1.6455 -0.8298,2.21281 m 9.12783,-2.21281 c -0.3972,0.97419 -0.61958,1.30777 -0.8298,2.48941 m 8.02143,-2.48941 0.2766,0.27661 m -1.1064,0 h 0.2766 m -9.68104,0.2766 c -0.10206,0.80739 -0.24368,1.16642 -0.2766,2.76601 m 8.85123,-2.76601 -1.9362,1.9362 m -17.42587,-1.6596 3.87242,3.87241 0.2766,-0.8298 m 7.46822,-3.04261 0.27661,0.2766 m -8.29804,0 0.27661,1.1064 m 10.78744,-1.1064 c -0.35488,1.41371 -0.52278,1.62171 -0.82981,2.21281 m 4.14902,-1.93621 v 0.2766 m 0.5532,0 1.65961,0.2766 m -22.68129,0 0.2766,4.42562 c 0.4528,-0.83921 0.48737,-0.93049 0.5532,-1.93621 m 17.70247,-2.48941 1.10641,0.8298 m 4.14901,-0.8298 c -0.16762,1.24332 -0.74184,3.77616 -0.84087,5.80862 -0.0584,1.19713 -0.21934,1.66099 -0.66384,3.04262 -0.49428,1.53651 -1.07653,2.0532 -1.74203,3.31921 -0.90449,1.72046 -2.04962,3.7579 -3.37813,5.25514 -0.78527,0.8854 -1.43999,1.64993 -2.50296,2.21309 m -6.63843,-19.36208 0.5532,0.5532 m 7.46823,0 0.5532,-0.2766 m -9.95763,0.2766 0.5532,0.55321 m 11.06404,-0.55321 0.5532,3.59582 m 0.5532,-3.31921 -1.6596,0.8298 h 0.5532 m 1.65961,-0.5532 c -0.73936,-0.24645 -0.3842,-0.16901 -0.82981,0.2766 m -10.23424,-0.2766 v 0.5532 m 6.36183,-0.5532 h 0.5532 v 1.1064 m -2.48941,-0.8298 v 0.8298 m 4.42562,-0.5532 -0.8298,0.8298 m -7.19163,-0.5532 c 0.72359,1.63361 1.44607,1.72737 2.21281,1.38301 m 4.14901,-0.82981 0.5532,1.65961 m 0.27661,-1.65961 1.1064,1.65961 m -11.34064,-1.38301 c -0.0714,1.35867 0.0418,1.42201 -0.004,3.31922 -0.0622,2.58068 0.10123,6.47855 0.55735,8.02143 l 1.1064,-1.38301 m 4.42562,-9.95764 v 1.10641 m -6.63843,-0.82981 0.27661,0.27661 m 10.51084,-0.27661 -0.55321,0.55321 m -15.48966,0.2766 c 0.63259,0.89618 0.83091,1.48866 1.65961,3.04261 m -2.21281,-2.76601 c -0.026,3.1397 0.29486,4.93262 1.93621,7.74483 m 10.23424,-7.46823 -0.8298,-0.2766 m 1.383,0 -0.2766,0.5532 m 1.93621,-0.5532 h 0.2766 m -1.38301,0.5532 -0.8298,0.2766 m 0.5532,0.2766 1.10641,0.2766 0.2766,0.82981 m 6.63842,-1.10641 -1.1064,3.59582 m -20.46848,-1.10641 0.2766,0.82981 m 0,0.2766 0.2766,0.2766 m 0,0 c 0.0144,1.60843 0.17343,1.88365 0.5532,3.31921 m 2.76601,-3.04261 v 0.2766 m 9.40444,0.2766 c -1.08123,2.27587 -3.57037,5.08669 -5.80862,5.53202 v -1.383 m 14.93645,-3.59582 c 0.0163,1.48369 0.44423,2.21917 0.53827,3.59582 0.22875,3.35129 0.91998,8.0997 -0.81487,10.51084 m -21.85148,-13.27685 c 0.049,1.1584 0.50895,1.63941 -0.17785,2.75522 -0.51448,0.83589 -1.23586,1.16504 -1.977148,1.85433 -1.059382,0.98526 -2.298001,2.82161 -3.227657,3.96508 -0.810441,0.99714 -2.450962,2.90459 -3.167359,3.87131 -0.399688,0.53909 -0.879038,1.12742 -1.185235,1.77771 -0.311176,0.6608 -0.256686,1.35369 -0.222387,1.81921 l 0.276601,-0.2766 m 31.532515,-14.38326 c -0.1181,1.44275 -0.0622,1.97936 -1.0981,3.59581 -0.50867,0.79385 -1.02675,1.30694 -1.66901,1.88808 -1.00572,0.91057 -2.48001,1.92957 -3.59471,2.81414 2.46064,0.6348 4.74426,-2.14919 4.97882,-3.87241 m -20.19188,-2.48941 c 0.40827,0.38503 0.47935,0.67186 1.93621,0.8298 m 4.97882,0 c -1.266,1.98876 -1.36005,2.75716 -3.0357,4.34679 -1.52047,1.44164 -2.8075,2.9115 -2.21972,4.78105 m -6.085225,-6.36183 c 1.440815,0.76895 3.193915,0.46193 4.978815,0 m 3.59582,2.21281 1.93621,0.2766 m 4.42561,0 -2.48941,0.2766 m 6.91503,0.5532 c -0.26222,-0.18504 -0.23152,-0.15766 0.2766,-0.5532 m -13.27685,0.82981 3.59581,1.6596 m -3.87241,7.74483 c -0.0642,-0.37562 -0.0644,-0.71529 -0.42735,-1.06104 -0.33745,-0.32196 -0.78389,-0.4705 -0.78002,-0.91389 0.0138,-1.55892 0.83921,-0.9977 1.76057,-1.62088 l -0.2766,-0.2766 -0.8298,0.5532 c -0.62761,-1.13711 -1.77108,-3.17925 0,-4.97882 m 8.29803,11.89384 c 0.52582,2.42663 0,7.10699 0,9.95764 0,0.88374 0.30011,2.70295 -0.64116,3.15132 -1.27099,0.6052 -3.50454,-0.14715 -3.90257,-1.49697 -0.73548,-2.49549 0.0476,-7.75949 0.74185,-10.22677 0.50811,-1.80731 1.86373,-1.61286 3.52528,-1.66182 -0.10401,-1.26185 -0.69704,-4.09203 -1.26241,-5.19761 -0.82178,-1.60677 -2.62743,-0.8782 -3.99301,-1.44081 1.14264,-0.99798 1.73346,-1.02343 3.31921,-1.09562 0.97336,-0.044 1.47456,-0.0108 2.48941,-0.0108 1.86429,0 3.30317,-0.0238 4.97882,-0.53605 2.00646,-0.6135 3.83867,-2.01891 5.80862,-2.78316 m -31.809121,7.46823 c -0.818739,0.43288 -2.552198,-0.0243 -1.659606,-1.93621 l 3.319213,2.48941 -0.829804,-1.1064 c 1.289515,-0.68376 1.302515,-0.57257 2.767117,-1.06575 2.632136,-0.88678 6.062541,-4.401 7.743721,-5.29608 m 22.40469,0.55321 c 0.2849,1.08566 1.13766,1.91767 1.0804,2.74139 -0.0296,0.42652 -1.00074,1.34179 -0.61295,2.67307 0.20164,0.69261 0.33441,1.34539 0.36235,1.77716 h 0.8298 l 0.55321,3.31922 -0.27661,-1.10641 m -34.575126,-6.63842 -1.659607,2.48941 0.534947,-2.48803 0.848058,-1.66099 m 1.106405,0 c 0.108427,0.86327 0.777525,1.88531 -0.276601,2.48941 l -0.276601,-0.2766 1.106404,0.2766 m 30.979321,-2.48941 c -0.15545,0.46635 0.36317,-0.0866 -0.55321,0.8298 m -33.468723,1.65961 c -0.656651,-1.41675 -0.01355,-1.69612 0.553202,-2.21281 m 33.192121,0.2766 c 0.67436,0.3546 0.47991,0.39361 1.38301,0.2766 m -22.95789,0 c -0.58777,0.93436 -0.65195,1.5108 0,2.48941 m -10.234235,-2.21281 v 0.27661 m -1.383006,0 -1.659606,1.1064 1.106404,0.8298 m 30.702713,-0.2766 0.2766,2.21281 c 0.26471,-0.90504 0.51144,-1.54952 -0.5532,-2.76601 l 1.93621,-1.1064 m 1.93621,1.6596 -0.55321,-1.6596 1.10641,1.1064 m -33.745329,-0.8298 0.553203,0.5532 m 1.383005,-0.5532 -0.553202,0.5532 m 32.085723,-0.5532 -0.2766,0.2766 m -30.702719,0 -0.276601,0.8298 m 11.06404,-0.8298 h 1.38301 m 15.48966,0 c 1.72211,1.09091 1.91573,0.88899 2.4894,0.8298 m -32.085716,-0.5532 -0.829804,0.8298 m 3.042612,-0.5532 c 0.854421,-0.26111 0.841144,-0.24175 1.659606,-0.2766 m 25.447292,0 0.27661,0.5532 m 1.6596,-0.5532 v 0.5532 m -29.043108,-0.2766 v 1.1064 m 10.787438,-1.1064 c 0.25005,2.08557 -0.0141,2.97789 -0.5532,4.70222 l 0.5532,-0.5532 m 0.82981,-4.14902 v 0.5532 m 0.5532,-0.5532 c 0.22958,1.92736 0.39581,2.69105 0,3.87241 -0.22184,-0.75014 -0.27328,-1.14844 -0.2766,-2.48941 m 14.10665,-1.383 c -0.2542,2.01117 0.29126,2.01753 -0.11258,4.12412 -0.13083,0.68155 -0.48598,0.8334 -0.87516,1.45492 -0.4149,0.66246 -0.40135,1.0663 -0.4008,1.88919 0.002,3.39887 0.006,7.58993 0.006,11.06404 m 3.31921,-18.53227 0.43564,2.21281 0.11756,2.21281 c 1.50913,0.62041 2.04297,-0.17979 2.76601,-0.82981 m 0.2766,-3.59581 c 0.58474,1.48341 -0.0393,1.57746 -0.2766,1.93621 m -32.638923,-1.65961 v 0.5532 m 0.829803,-0.5532 v 0.8298 m 7.74483,-0.8298 0.8298,1.65961 m 1.38301,-1.65961 v 1.38301 m 0.5532,-1.38301 h 0.5532 m 2.21281,0 v 0.8298 m 0.5532,-0.8298 v 2.21281 m 0.5532,-2.21281 0.27661,3.04261 1.1064,-2.76601 m 2.48941,-0.2766 0.43896,3.59581 0.66744,2.76601 0.55321,-1.9362 m 2.4894,-4.42562 c -1.20764,1.67731 -0.9504,2.33424 -1.6596,3.31921 -0.38448,-0.72054 -0.55154,-1.06076 -0.5532,-3.04261 m 5.53202,-0.2766 0.5532,0.8298 m -24.894095,-0.5532 0.276601,0.2766 m 19.085474,-0.2766 c 0.005,1.81229 0.11617,1.94727 0.2766,2.48941 m 3.31921,-2.48941 c 0.0999,0.69925 0.12586,1.2082 0.0678,1.93676 -0.15351,1.93317 -1.57331,3.52971 -1.93068,5.25542 -0.65471,3.16432 -0.3499,8.9403 -0.3499,11.89329 l 3.04262,-0.2766 m 0,-18.80887 0.2766,0.8298 m 3.87241,-0.8298 -0.2766,1.38301 m 0.8298,-1.38301 0.2766,3.31921 1.10641,-1.9362 m -32.085723,-1.10641 -0.553202,0.5532 m 16.596065,-0.5532 v 1.10641 m 2.48941,-1.10641 v 1.38301 m 4.97882,3.31921 c 1.35534,-1.61341 0.21934,-3.51256 0.8298,-4.70222 l 0.8298,1.65961 m -29.043108,-1.38301 0.276601,1.38301 m 23.787687,-1.38301 v 1.10641 -1.10641 m 2.76601,0 0.0152,3.31922 0.53799,2.2128 m -25.447301,-4.97881 1.106405,0.2766 m 9.127836,-0.55321 1.383,3.87242 c 0.88347,-0.71004 -0.0957,-2.11489 -0.2766,-3.31921 m 16.87267,-0.55321 c 0.0124,1.05828 -0.1455,1.75117 0.8298,1.65961 m -30.149515,-1.383 v 0.5532 m 3.595814,-0.5532 h 0.553202 m -1.106404,0.2766 0.829803,0.2766 m 9.12783,-0.2766 v 1.1064 m 0.55321,-1.1064 v 1.6596 m 22.68128,-1.6596 c 0.47825,0.50673 0.69814,0.61239 0.2766,1.6596 m -17.14926,-1.383 0.2766,4.14901 m 3.59581,-4.14901 -0.5532,1.1064 m -22.404684,-0.8298 h 0.553202 m 1.106404,0 -0.553202,0.5532 m 13.27685,-0.5532 v 1.1064 m 5.53202,-1.1064 c 0,1.3086 -0.43565,2.35636 0.8298,3.59581 m -17.425861,-3.31921 -0.553202,0.5532 m 23.511093,-0.5532 c 0,0.81155 0,0.78333 0,1.65961 -1.22756,0.40383 -0.8464,0.88401 -1.93621,1.6596 l -0.2766,0.2766 h -0.2766 m 7.46822,-3.59581 0.82981,2.76601 0.8298,-0.5532 m -0.5532,-2.21281 v 1.38301 m -21.57488,-1.10641 c 0.0213,1.45382 -0.13775,1.7791 -0.51144,3.04261 -0.806844,2.72923 -1.909929,5.20508 -2.531175,6.91503 l 0.553203,-0.5532 m -8.021431,-9.12784 0.829803,0.2766 m 11.34064,-0.2766 -1.1064,1.10641 m 6.91503,-1.10641 c 0.0102,1.23613 0.0987,1.63471 0.2766,3.04261 m 4.70221,-3.04261 v 1.10641 m 1.38301,-1.10641 0.5532,0.82981 m -7.74483,-0.55321 v 2.48941 l 0.5532,-0.5532 m 11.34065,-1.93621 v 1.10641 m 4.97882,-1.10641 0.5532,0.55321 m -18.53227,-0.27661 0.2766,1.38301 m 8.02143,0.5532 c -0.0257,-1.25106 -0.1076,-1.37056 -0.2766,-1.93621 l -0.5532,0.55321 m 9.95763,-0.55321 v 0.82981 m -20.46847,-0.5532 0.8298,0.8298 m 16.87266,-0.8298 0.2766,1.383 m -19.63867,-1.1064 0.5532,0.5532 m 1.93621,0 -0.8298,0.5532 m 1.6596,-0.5532 1.10641,0.5532 m 10.78744,-0.5532 -0.2766,0.2766 m -13.83006,0 c -1.96912,3.17151 -1.31191,9.28135 -4.149011,13.00025 -1.225066,-1.08732 -1.702756,-1.55173 -1.659607,-2.76601 l 0.276601,1.1064 m 13.553447,-11.34064 -0.5532,0.8298 m 1.93621,-0.8298 0.2766,1.383 m 1.65961,-1.383 v 0.5532 m 5.25542,-0.5532 1.383,0.2766 m 3.31921,-0.2766 c 0.93353,3.15795 1.10447,8.82385 1.10641,11.89384 1.08787,-0.0467 2.95272,-0.0202 3.26223,-1.39932 0.19279,-0.85829 -0.25419,-1.90025 -0.46026,-2.74969 -0.45418,-1.87038 -1.0024,-4.31442 -1.14236,-6.08522 m -22.68129,-1.10641 c 0.96866,0.64725 0.69316,1.19547 0.2766,2.48941 -0.73852,2.2933 -2.52979,7.59353 -1.49171,9.84866 0.6691,1.45381 3.06861,1.54813 4.25772,0.93878 m -0.2766,-13.27685 -0.8298,0.2766 m 11.89384,0 h 0.5532 m 3.59582,-0.2766 c 0.85663,2.89823 -10e-4,6.40608 0,9.40444 0.001,2.38734 0.7128,3.30815 3.04261,1.9362 m -17.42587,-11.06404 0.55321,0.5532 m 19.36207,0.27661 c 0.39913,1.72405 1.15204,3.47189 1.87646,4.97881 0.36982,0.76923 1.08953,1.58327 1.16145,2.47337 0.091,1.12743 -1.08068,1.2129 -1.93151,1.39905 m -31.255916,-2.48941 0.553203,0.2766 m -0.829804,0.2766 0.276601,1.65961 m 0.276601,-1.65961 v 0.5532 m -0.829803,0.27661 v 0.8298 m 2.48941,2.21281 c 0.988848,0.75429 1.621158,1.38439 3.319208,0.8298 m 20.46848,-0.2766 c -0.2329,1.25466 -0.18366,1.39213 -0.32334,2.76601 -0.22018,2.16745 -1.18828,4.77054 -1.00766,6.91503 0.17121,2.03135 1.76195,3.41132 1.46903,5.50187 -0.11922,0.85082 -0.75264,0.95565 -1.24443,1.13655 m -2.48941,-15.48966 2.48941,-0.2766 m -17.42587,0.5532 c 0.2412,3.03072 2.30879,6.80301 2.41639,9.95764 0.0805,2.35609 -0.78002,4.80788 -1.15647,6.91503 -0.17481,0.97834 -0.16568,1.48756 -0.1466,2.48941 0.0348,1.85516 -0.14964,3.10429 0.1773,4.70221 0.18118,0.88596 0.39416,1.62393 0.61046,2.48941 0.26581,1.06326 0.48682,1.92459 0.76148,3.04262 0.28463,1.15951 0.47852,2.10272 0.61074,3.31921 0.18836,1.73373 0.51088,3.7673 0.58833,5.53202 0.0454,1.0367 0.30426,3.63896 0.47658,4.14763 0.21492,0.63287 0.13941,1.03726 0.95317,1.23447 0.87848,0.21326 1.54371,-1.266 2.82216,-0.94404 l 0.46109,0.26416 c -0.92689,0.43924 -1.05246,0.41905 -1.9362,0 m 0.2766,-42.87317 c 1.6892,0.13471 2.54943,0.86079 4.14901,0 m -1.383,1.10641 0.25171,3.31921 0.0498,2.48941 0.23097,2.21281 -0.17675,1.93621 -0.71502,2.76601 -0.36262,1.81173 -0.66108,0.67768 c -0.92495,-1.64827 -5.69079,-0.78998 -5.80862,0.2766 m 0.8298,-6.91503 v 0.2766 m 6.91503,1.65961 c 0.79495,1.292 0.97696,2.10161 1.38301,3.87241 2.15444,-0.83118 3.98001,-1.54205 6.36182,-1.1064 m 1.1064,0.5532 c 0.27522,3.48656 0.32363,6.81158 -0.33109,10.23424 -0.50784,2.65454 -0.99493,5.45319 -1.31468,8.29803 -0.0949,0.84557 -0.2069,1.33515 -0.26554,2.21281 -0.1466,2.18874 0.56482,3.30926 -0.0299,5.53202 -0.42873,1.6029 -0.44837,1.32824 -0.48129,3.04261 -0.0227,1.17168 -0.64448,1.75808 -1.11,2.48941 -0.42237,0.66357 -1.86014,1.58271 -0.28379,2.36079 0.5875,0.29016 1.67261,0.0445 1.86374,-0.0354 0.84169,-0.35212 0.85193,-2.12624 0.0163,-3.43179 m -5.80863,-29.87292 -0.15904,6.63843 0.94183,6.08522 0.094,1.93621 0.21768,1.93621 -0.47934,4.70222 -0.062,3.31921 c -0.94128,-2.20783 -1.17583,-2.91925 -1.93621,-4.42562 -0.60493,0.50978 -1.07819,0.8558 -1.11138,1.66403 -0.0545,1.33875 1.13544,4.0688 2.0308,5.251 0.94985,1.25438 1.18136,1.76278 1.29339,2.48941 l 2.21281,-1.10641 c -0.27688,-0.21215 -0.54823,-1.26296 -2.21281,-0.5532 m -10.51084,-27.6601 h 0.5532 m 1.93621,0 h 0.2766 m 0.8298,0 h 0.2766 m 3.87242,0.2766 c -0.013,1.58326 -0.36899,1.72045 -0.19362,3.59581 0.078,0.83451 0.18117,1.25549 0.19251,2.21281 0.0163,1.38217 0.005,1.89527 -0.15904,3.04261 -0.11313,0.7897 -0.49429,3.34383 -0.59082,4.14902 -0.0888,0.74405 -0.0777,1.22506 -0.0788,1.9362 -0.003,2.03274 0.13443,3.85333 0.27661,4.97882 M 11.111918,233.81916 c 4.600733,-2.6183 10.182653,-3.97614 15.213058,-5.53893 8.577121,-2.66505 17.406503,-4.54345 26.277099,-5.91899 4.546491,-0.70533 9.218836,-1.81588 13.830052,-1.81893 m -4.149015,4.14902 -2.48941,-0.2766 c 2.414727,-1.06879 8.467035,-2.51541 11.617244,-2.76601 m 47.851984,0 3.31921,0.2766 m -6.36182,0.5532 0.8298,-0.5532 m 38.44754,0 c 6.96952,0 13.83227,0.1596 20.74508,1.1064 2.80225,0.38392 6.92692,1.18717 9.40444,1.38301 m -79.6611,-1.38301 c 1.77688,-0.34464 4.73319,-0.5532 6.91502,-0.5532 m -101.789182,7.74483 c 4.362386,-2.29856 9.650721,-3.59858 14.383254,-4.9401 2.79096,-0.79107 4.98626,-1.40347 7.191628,-1.42172 m 35.958136,3.04261 c 8.97515,-2.32318 18.700167,-3.04261 27.936705,-3.04261 m -37.617742,0.8298 0.829803,-0.2766 m 3.042612,0 h 4.978819 m -3.042612,0.2766 -3.042612,1.1064 m 116.449041,-0.2766 11.89384,2.21281 m -63.06503,0.2766 43.97956,0.52831 19.08547,1.6845 M 12.494923,242.3938 c 12.372835,-5.15115 24.760773,-12.1876 38.447546,-13.27685 m -40.107152,1.1064 h 0.276601 m 93.491152,1.383 c 0.12447,1.20792 -0.0332,1.4812 -0.2766,2.21281 l -0.2766,-1.9362 0.5532,-0.27661 m -93.767753,2.21281 h 0.276601 m 93.214552,0 0.047,5.25542 0.27633,2.76601 0.31256,3.04262 -0.0827,3.04261 c -0.57699,-1.48784 -1.9445,-3.77782 -3.04261,-3.59582 m 17.97907,-9.40443 c -1.41371,2.06842 -1.49448,3.67271 -2.76601,6.08522 m -1.38301,-3.87241 0.2766,0.2766 -0.8298,0.5532 0.5532,-0.8298 m 16.04286,0.8298 11.06405,-0.82566 24.89409,0.27246 m -55.59681,0.5532 1.1064,1.93621 m 1.93621,-1.93621 -0.5532,0.5532 m 9.68104,1.10641 24.61749,-1.6585 21.57488,1.10529 m -40.10715,-0.8298 h 0.2766 m -37.617742,0.5532 4.425616,3.04261 -2.76601,0.55321 m 0.276601,-3.04262 0.276601,0.27661 m 76.065284,-0.27661 6.08523,0.82981 m -82.150514,-0.5532 c 1.271258,0.0868 1.589073,0.53162 3.042612,0.2766 0.852761,2.27034 3.983332,3.24453 4.702222,4.42561 m -5.808627,-4.70221 0.553202,0.2766 m -3.042611,0.2766 c -1.222023,2.06316 -0.889272,4.84826 -1.383005,6.36182 -0.216302,-0.74737 -0.345198,-1.02121 0,-2.21281 m 4.425616,-4.14901 0.553203,0.5532 m 0.276601,-0.5532 2.766011,1.1064 -1.383006,-0.8298 m 76.065286,-0.2766 h 0.2766 m -48.12858,4.70222 -0.8298,1.1064 c -0.48682,-1.14817 -0.86327,-1.3429 -1.38301,-1.93621 l 4.14902,-1.8618 2.21281,-0.55154 4.70221,-0.58225 29.31971,-0.32362 m -50.06478,0.2766 v 0.2766 m -18.532275,0.5532 3.872415,2.21281 m 0,-2.21281 0.2766,0.55321 m 25.1707,-0.27661 h 1.6596 m -34.575128,0.27661 v 0.2766 m -82.427112,0 h 0.276601 m 81.320708,0.2766 v 1.383 m 8.574631,-1.1064 0.2766,0.5532 m 14.38326,-0.5532 c -0.15739,1.4303 -0.0138,1.73069 0,2.48941 m 9.95763,-2.48941 v 0.8298 m -24.06429,0 v 0.5532 M 95.475237,244.33 h 0.829803 m 24.34089,1.38301 0.82981,-1.38301 m -19.63868,0.2766 0.2766,0.27661 m 16.04286,0.8298 c 1.05192,-0.69565 1.11166,-0.86106 2.21281,-0.5532 m 5.80862,-0.55321 -0.8298,1.38301 0.2766,-0.8298 m -11.06404,-0.2766 0.8298,1.1064 m 11.06404,-0.8298 0.55321,0.5532 m -8.02143,-0.2766 c 0.63784,0.36013 0.36096,0.3109 1.383,0.5532 m 7.46823,-0.5532 c 0.48737,0.68818 1.01374,1.40402 0.30896,2.39536 -0.76369,1.07432 -1.83856,1.69142 -2.61609,2.86006 -0.79606,1.1963 -0.43565,1.27623 -0.79689,2.48028 -0.16928,0.56399 -0.4362,0.97087 -1.04832,1.06381 -0.88954,0.13525 -1.19298,-0.3889 -1.37968,-0.50148 -0.66523,0.72663 -1.25466,1.4859 -1.04057,2.20423 0.12087,0.40661 0.50341,1.20571 1.31828,0.98083 1.5509,-0.42763 0.81403,-0.59193 1.9351,-1.80206 -0.44229,-0.39802 -0.29431,-0.23317 -0.55321,0 m -10.78744,-9.40443 c 0.81985,0.92274 1.0049,1.15398 1.36088,2.21281 0.14079,0.41932 0.25281,0.8392 0.66301,1.383 0.55044,0.72968 0.66412,0.7471 1.29422,1.38162 0.85027,0.85636 1.50388,1.50416 1.66071,1.66099 l -1.30777,-2.21225 -0.35183,-1.93676 m -2.48941,-1.65961 0.8298,-0.5532 m 10.51084,0 -1.1064,1.383 1.6596,0.82981 m -1.93621,-1.10641 c -0.60935,-0.48128 0.0913,-0.5402 0.82981,-0.2766 v 0 m 1.383,-0.5532 c 0.56621,0.81542 0.67021,0.915 1.38301,1.65961 m -0.5532,-1.65961 v 0.8298 m -33.745331,-0.5532 c -0.189472,1.02011 -0.276325,2.36992 -0.276601,3.31921 -2.77e-4,0.8027 -5.53e-4,1.2685 0,2.21281 8.3e-4,1.6408 -0.104555,2.0203 0.829803,3.31922 l 0.553202,-1.10641 c -1.57469,0.79412 -1.382729,1.88255 -1.383005,3.59581 h 3.042611 m 13.830051,-11.34064 c -0.23953,1.55312 -0.69233,1.70303 -0.99383,2.21281 0.002,-0.003 -0.26996,0.42348 -0.21492,0.8298 0.0805,0.59193 0.34714,0.72387 0.42929,0.82289 0.40356,0.4871 0.83395,0.88927 1.33266,1.38992 0.45667,-0.3286 1.37969,-0.85138 2.48831,-0.82316 0.5106,0.013 0.86852,0.0246 1.29421,0.2777 1.54648,0.91915 1.87923,2.2402 3.68571,1.09866 m 6.08522,-5.80862 v 0.5532 m -4.70221,0 -0.2766,0.55321 m 3.04261,0.5532 1.1064,-0.82981 m 1.93621,0 v 0.27661 m -20.19188,0.2766 -0.5532,1.1064 c 2.02168,0.45778 2.77984,0.42763 3.87242,0.2766 m -2.48941,-1.383 c -0.19252,0.57726 -0.009,0.28573 -0.55321,0.8298 m 4.70222,-0.8298 c 1.16919,1.90799 0.93076,2.4883 1.10641,3.04261 m 6.36182,-3.04261 c 1.49531,1.62365 1.84023,2.08502 2.21281,2.48941 m -0.5532,-2.48941 -0.55321,0.8298 m 5.80863,-0.8298 c -0.41684,1.50194 -0.92136,1.71575 -1.38301,2.21281 m 6.08522,-2.21281 c 0.0141,1.37941 -1.1454,3.57783 -0.8298,4.70221 l 0.8298,-1.383 m -4.14901,-3.04261 h 0.5532 m -21.02168,0.8298 -1.1064,0.2766 1.1064,-0.5532 m 1.38301,0 v 0.2766 m 19.36207,-0.2766 -0.5532,1.38301 -0.82981,-0.82981 m -24.617489,1.65961 c 1.188559,-0.84806 2.333959,-1.19492 4.149019,-1.93621 m 13.27685,0 0.8298,0.2766 m -16.04286,0.2766 0.5532,-0.2766 m 1.38301,0 -0.82981,0.2766 m 13.27685,-0.2766 h 0.2766 m -35.128328,0.2766 h 0.553202 m 22.404686,0 0.5532,1.38301 c -2.23217,0.25171 -1.62116,1.15591 -1.1064,1.93621 -1.11581,0.60824 -1.55699,0.59801 -2.48941,1.1064 0.94099,1.37056 1.18551,1.67261 1.6596,2.21281 -1.48368,0.19417 -1.55145,-0.0758 -3.042608,-1.38301 v 1.65961 l 0.829798,-0.5532 m 5.25542,-6.36183 h 0.55321 m 23.51109,0.82981 1.6596,-0.2766 -0.2766,1.1064 0.2766,0.2766 0.82981,-0.5532 0.2766,0.2766 -0.2766,0.8298 0.2766,-0.2766 m -81.320711,7.46823 c 9.319519,-3.82346 19.281859,-7.92877 29.319711,-9.40444 m 25.4473,0 c 0.51254,1.92542 1.12991,1.60567 1.6596,1.65961 l -0.8298,-1.383 m 0.8298,-0.27661 -0.5532,0.55321 m 1.1064,-0.55321 1.38301,2.21281 -2.21281,-1.9362 m 8.02143,-0.27661 -0.5532,1.10641 m 3.04261,-1.10641 1.38301,1.38301 m 10.51084,-1.38301 0.2766,0.27661 m -5.25542,0 -1.65961,0.8298 m 5.53202,0 c -0.24894,-0.74682 -0.53467,-0.28269 0.2766,-0.5532 m -24.06429,0.8298 0.8298,-0.5532 m 22.12809,1.1064 -0.8298,-0.2766 1.383,-0.8298 m -108.42761,0.5532 -8.574632,4.42562 m 93.767752,-4.42562 c -0.11534,1.7625 2.76933,1.20709 3.04261,1.1064 l -0.5532,-0.8298 m -2.48941,-0.2766 h 1.10641 m -11.064045,0.2766 3.042612,0.57699 1.936207,0.5438 2.212806,-1.12079 m 8.85124,0 c 0.31145,0.2932 0.43951,1.07183 2.48941,1.38301 -0.12669,1.05219 -0.002,1.27208 0.5532,1.9362 -1.28841,1.44192 -1.45354,2.13343 -2.21281,3.04261 -0.83727,-1.40513 -1.73927,-1.63415 -1.65961,-0.8298 l 0.2766,0.2766 0.55321,-0.5532 m 3.59581,-5.25542 -1.1064,1.1064 m 5.80862,-1.1064 -0.5532,0.5532 m 7.74482,0 0.27661,-0.5532 m 14.65985,1.38301 13.55345,-1.10641 h 5.53202 m -66.107647,3.59582 c 2.312938,-0.58668 3.227104,-0.58834 4.149016,-1.10641 -0.445328,-0.23788 -0.624842,-0.18975 -2.766011,-0.8298 1.657117,-1.05358 2.080317,-1.50969 4.149016,-1.65961 m 4.702216,0 -1.1064,1.10641 m 3.04261,-1.10641 v 0.5532 m 3.87241,-0.5532 c -0.15323,1.59184 0.59663,1.42533 1.93621,4.42562 m 9.68104,-4.42562 1.6596,2.48941 m 3.31922,-2.48941 c 0,0.47161 -0.1726,0.3286 0.2766,0.5532 m -22.40469,-0.2766 0.5532,1.10641 0.55321,-0.55321 m 14.10665,-0.5532 c 0.0597,0.61129 0.57948,1.10613 0.25613,2.21281 -0.11506,0.3936 -1.39628,1.90163 -0.53273,2.21281 m 4.97882,-2.76601 1.1064,0.5532 c -0.008,-1.47954 -0.13194,-1.71244 0,-2.21281 m 9.40444,0.82981 -0.82981,1.383 -1.6596,-1.383 3.59581,-0.55321 m -39.277347,0 0.276601,0.2766 m 10.510836,-0.2766 h 0.55321 m 20.74507,0 c -0.429,1.8051 -0.1441,2.27394 0,2.76601 0.23733,-0.22487 1.29948,-1.15702 0.82981,-0.2766 m 0.2766,-2.48941 2.21281,0.55321 m 31.53252,0 c 4.6776,-0.36927 9.13834,-0.57312 13.83005,-0.25171 2.42745,0.16596 4.79239,0.42265 6.08522,0.80491 -1.2223,0.58805 -2.92395,0.5532 -5.25542,0.5532 -4.34097,0 -8.67753,0.27605 -13.00025,0.2766 m -65.27784,-1.65961 0.8298,0.82981 m 8.57463,-0.82981 c -0.32058,0.33856 -2.97208,1.09424 -0.2766,3.87242 m 12.72365,-3.87242 v 1.10641 m 4.42562,-1.10641 -0.55321,0.55321 m 1.93621,-0.55321 c -1.66763,1.40376 -1.78131,2.35665 -0.5532,2.76602 -0.0492,-0.68072 0.0462,-0.65749 -0.5532,-1.65961 m 6.63842,-1.10641 c 0,0.93768 0,-0.10593 0,0.82981 m -29.31971,-0.5532 h 0.2766 m 2.48941,0 -0.2766,1.1064 c 1.0154,0.31698 0.73963,0.2163 1.38301,0.2766 m 7.46822,-1.383 -1.6596,1.6596 m 9.68103,-1.6596 h 0.82981 m -19.08548,0.2766 -0.87101,1.20072 -1.29754,0.82815 -0.87406,0.73714 m 3.59582,-2.76601 0.5532,0.8298 m 10.51084,-0.8298 c 0.24368,0.20911 0.26581,1.08068 1.75088,0.82648 l 0.46193,-0.27328 c -0.004,-0.0279 0.31975,0.38364 -0.0462,0.8298 -0.24119,0.29403 -1.38383,1.40209 -0.78361,0.2766 m 1.65961,-1.6596 -0.5532,0.5532 m -25.170697,0.5532 1.383005,-0.8298 m 7.191632,0 c 0.96699,0.77531 0.69288,0.55292 1.383,1.1064 m 8.29803,-1.1064 0.5532,0.5532 m 3.31922,-0.5532 c -0.18062,0.38696 -0.53218,2.6396 -2.76601,1.6596 m 11.34064,-1.6596 h 0.8298 m 5.80862,0.8298 c -0.17342,-0.56344 -0.18642,-0.37064 0,-0.8298 0.38559,0.9244 0.64587,1.31413 1.65961,1.1064 l -0.2766,-0.5532 m 50.89459,-0.5532 c 1.10751,0.20551 1.73844,0.27549 3.31921,0.2766 m -81.0441,0 -1.38301,0.8298 m 25.7239,-0.5532 0.5532,-0.2766 m -31.809118,1.1064 c 0.498158,-0.78637 0.594692,-0.70727 1.383008,-0.8298 m 10.23424,0 c -0.44146,0.50618 -0.52333,0.63314 -1.65961,1.93621 m -10.787441,-1.65961 h 0.829803 m 8.021428,0 c -0.54601,0.54629 -2.43685,2.60835 -2.84401,2.96019 -1.02785,0.88816 -1.44579,0.78333 -2.68801,-0.47078 m 23.23449,-2.48941 -0.5532,0.5532 m 5.53202,-0.5532 0.2766,1.10641 0.2766,-0.55321 m 4.14902,-0.5532 -1.10641,0.5532 m 1.10641,-0.5532 1.9362,1.93621 c -0.77808,0.56205 -2.52841,1.01761 -3.02767,1.95004 -0.39139,0.73105 -0.3712,0.9172 -1.1443,1.05163 -0.68431,0.11894 -1.19021,0.0409 -1.91325,0.0409 -0.92136,0 -1.39296,0.0141 -2.21281,-10e-4 -1.53043,-0.0288 -1.8925,-0.14356 -1.93621,-1.65823 -2.54638,0.7128 -5.36384,2.50352 -8.82634,1.57165 -1.0165,-0.27356 -1.05744,-0.60797 -1.70386,-1.30002 -0.44394,-0.47493 -1.08317,-1.32963 -1.36364,-1.93123 m -20.191877,-1.38301 0.553202,0.5532 m 0.829803,-0.2766 0.829803,-0.2766 m 15.489659,0.2766 0.8298,-0.2766 m 3.87242,0 -1.65961,1.10641 m 4.14902,-1.10641 0.5532,0.5532 m 2.21281,-0.5532 -0.82981,1.10641 m 4.42562,-1.10641 0.5532,0.82981 m 15.21306,0 11.06404,-0.82981 m -47.29878,0.2766 0.55321,1.38301 m 6.08522,-1.38301 c -0.71612,0.71612 -0.50756,0.50757 -1.38301,1.38301 m 21.85149,-1.38301 0.5532,0.55321 m -25.7239,-0.27661 -1.1064,1.38301 m 15.76626,-1.38301 c 0.80269,0.49291 0.78693,0.49733 1.6596,0.55321 m -112.300022,3.59581 6.915026,-3.87241 m 82.980316,0 v 0.5532 m 4.14901,-0.5532 c -1.37415,1.37415 -1.61618,1.61618 -2.2128,2.2128 m 23.23448,-2.2128 -0.8298,1.9362 m 2.21281,-1.9362 c 1.20598,1.20598 1.25024,1.25023 1.6596,1.6596 l -0.5532,-1.1064 m 0.2766,-0.5532 v 0.5532 m -118.108643,-0.2766 h 0.276601 m 94.874162,0.8298 c 0.62926,0.59414 0.96727,-0.0714 2.21281,-0.5532 m 8.57463,-0.2766 h 1.1064 m 1.10641,0 c -0.66163,0.63452 -1.20239,1.04444 -2.76601,2.2128 m 4.70221,-2.2128 -0.8298,0.5532 m 4.14902,-0.2766 c 0.38668,-0.22433 0.56786,-0.1643 1.383,0.2766 m 3.59581,0 c 0.90836,-0.3286 1.45825,-0.36124 2.76602,0.5532 l 0.2766,-0.2766 c -0.18837,-0.56537 0.0174,-0.4669 -0.55321,-0.2766 m 0.27661,-0.5532 v 0.2766 m -29.59632,1.383 1.65961,-1.383 m 3.59581,0 c 0.33663,1.73816 -0.24258,1.80897 -1.38411,2.67805 -0.53826,0.40964 -0.8298,0.5142 -1.3819,0.60022 -0.6478,0.10069 -1.72405,0.0412 -2.48941,0.0409 -1.6076,-5.5e-4 -2.393149,-0.2506 -4.149012,0 m 13.830052,-3.31921 -0.8298,0.8298 m 11.34064,-0.8298 -0.2766,1.1064 m 1.93621,-1.1064 c -0.12364,1.2187 -0.88374,1.10087 -1.65961,0.5532 v 0 m 5.53202,-0.5532 -1.383,1.383 m 3.31921,-1.1064 -0.5532,0.2766 m 3.04261,-0.5532 -0.2766,0.2766 m 5.80862,1.6596 c -0.51365,-1.2151 -0.2683,-2.30685 1.93621,-1.383 l -1.93621,1.93621 c -0.74848,-0.36069 -1.08926,-0.53716 -1.93621,-1.65961 m -116.725641,-0.5532 -5.53202,3.04261 m 82.15051,-2.76601 c 0.785547,0.0285 0.996594,0.221 0.553202,0.8298 m 3.319213,-1.1064 1.659606,1.383 m 13.83005,-1.383 -0.8298,0.5532 m 2.48941,-0.5532 v 0.8298 m 2.48941,-0.8298 c -0.6171,0.6171 -0.51586,0.11175 -0.2766,0.8298 m 2.48941,-0.8298 h 0.2766 m 8.02143,0 c 1.25134,1.12908 1.99761,1.35756 3.59581,1.383 m 3.04261,-1.383 h 0.82981 m -39.830555,0.5532 c 0.552373,-0.36816 0.266367,-0.2766 0.829804,-0.2766 l -0.553202,1.383 m 1.383005,-1.383 -0.553202,1.1064 m 9.40444,-1.1064 c 0.40881,0.2636 0.55956,0.28462 1.1064,1.93621 l 1.1064,-1.10641 m 10.51084,-0.8298 c -0.9468,2.03108 -1.07653,1.62586 -2.2128,2.76601 m 21.29828,-2.76601 h 0.5532 m -57.256419,2.76601 7.468228,-2.48941 m 33.745331,0 h 0.5532 m 3.31921,0 0.2766,1.1064 h 1.65961 c 0.18864,-0.56564 0.18726,-0.26775 0,-0.8298 m -16.04286,0 c 0.1264,1.5852 0.41379,1.3382 1.1064,2.21281 m 3.59582,-2.21281 c -0.39167,0.82649 -0.45557,0.97502 0,1.93621 m 1.1064,-1.93621 v 0.2766 m 11.61724,-0.2766 v 0.2766 m 0.82981,-0.2766 c 0.0808,1.10004 0.143,1.21843 0.8298,1.65961 m 3.59581,-1.65961 h 0.55321 m 1.1064,0 h 0.2766 m 1.10641,0 h 0.2766 m -40.936958,0.2766 0.829798,0.82981 -0.829798,0.8298 m 1.383008,-1.65961 -0.55321,0.5532 m 6.08523,-0.5532 v 0.82981 m 6.91502,-0.82981 c -0.27106,0.68597 -0.39139,0.82676 -0.8298,1.93621 l 1.65961,-0.5532 m 6.63842,-1.38301 c 0.64144,0.72414 0.65444,1.09396 1.93621,1.65961 m -0.5532,-1.65961 -0.5532,0.5532 m 1.1064,-0.5532 v 1.65961 m 1.65961,-1.65961 1.383,1.38301 c -0.65001,0.35875 -0.66854,0.42818 -1.65961,0.5532 m 18.80888,-1.1064 c 1.11968,-0.33773 1.43749,-0.55321 2.76601,-0.82981 m -43.97957,0.2766 -1.38301,0.82981 m 17.70247,-0.82981 h 0.5532 m 5.25542,0 c -0.3203,1.24996 -0.50784,1.22673 -0.8298,1.65961 m 5.53202,-1.65961 -1.93621,0.82981 m 13.00025,-0.2766 3.59582,-0.55321 m -50.064792,0.2766 c -1.243322,0.772 -2.733372,1.30556 -4.425617,1.38301 m 5.532021,-1.38301 c 0.556521,0.55653 0.273282,0.27329 0.829803,0.82981 m 0.276601,-0.82981 -1.936207,1.38301 m 11.340641,-1.38301 c 1.36945,0.92026 1.162,1.13822 2.48941,1.34207 1.14513,0.17592 3.90948,0.0409 5.25542,0.0409 m -4.42562,-1.38301 c 0.81736,0.81736 0.55514,0.55514 1.38301,1.38301 m 0.8298,-1.38301 c 0.69814,0.69815 0.44201,0.44201 1.38301,1.38301 m 0.2766,-1.38301 0.5532,1.10641 m 32.36232,-1.10641 h 1.10641 m -130.832297,0.27661 -0.553202,0.5532 m 79.107899,-0.5532 v 0.5532 m 9.68104,-0.5532 v 1.1064 m 12.44704,-1.1064 -0.2766,0.5532 m 12.44705,-0.2766 c 1.33903,0.13885 1.79431,0.39775 2.48941,0.5532 m 18.53227,-0.5532 6.91503,-0.2766 m -60.022432,0.5532 2.766011,-0.2766 m 2.766011,0 v 0.8298 m 28.76651,-0.8298 0.2766,0.2766 m 7.74483,-0.2766 1.1064,0.5532 m -13.55345,-0.2766 h 0.5532 m 1.10641,0 v 0.5532 m 3.87241,0 1.10641,-0.5532 m -121.427863,0.5532 h 0.276601 m 94.597562,0 h 0.5532"
       style="fill:none;stroke:#010101;stroke-width:0.276601" />
  </g>
</svg>
