<?xml version="1.0" encoding="UTF-8" standalone="no"?>
<svg
   xmlns:dc="http://purl.org/dc/elements/1.1/"
   xmlns:cc="http://creativecommons.org/ns#"
   xmlns:rdf="http://www.w3.org/1999/02/22-rdf-syntax-ns#"
   xmlns:svg="http://www.w3.org/2000/svg"
   xmlns="http://www.w3.org/2000/svg"
   xmlns:sodipodi="http://sodipodi.sourceforge.net/DTD/sodipodi-0.dtd"
   xmlns:inkscape="http://www.inkscape.org/namespaces/inkscape"
   sodipodi:docname="绘图-1.svg"
   inkscape:version="1.0 (4035a4fb49, 2020-05-01)"
   id="svg8"
   version="1.1"
   viewBox="0 0 210 297"
   height="297mm"
   width="210mm">
  <defs
     id="defs2" />
  <sodipodi:namedview
     inkscape:window-maximized="1"
     inkscape:window-y="-8"
     inkscape:window-x="-8"
     inkscape:window-height="1017"
     inkscape:window-width="1920"
     showgrid="false"
     inkscape:document-rotation="0"
     inkscape:current-layer="layer1"
     inkscape:document-units="mm"
     inkscape:cy="588.50972"
     inkscape:cx="154.40867"
     inkscape:zoom="0.7"
     inkscape:pageshadow="2"
     inkscape:pageopacity="0.0"
     borderopacity="1.0"
     bordercolor="#666666"
     pagecolor="#ffffff"
     id="base" />
  <metadata
     id="metadata5">
    <rdf:RDF>
      <cc:Work
         rdf:about="">
        <dc:format>image/svg+xml</dc:format>
        <dc:type
           rdf:resource="http://purl.org/dc/dcmitype/StillImage" />
        <dc:title></dc:title>
      </cc:Work>
    </rdf:RDF>
  </metadata>
  <g
     id="layer1"
     inkscape:groupmode="layer"
     inkscape:label="图层 1">
    <path
       id="path60"
       d="m 97.17561,56.565276 c -4.409047,0.09101 -8.769397,1.231453 -12.964996,2.635151 -5.496842,1.838943 -11.129974,4.219316 -16.12719,7.440864 -3.118238,2.010207 -6.037578,4.17631 -8.854148,6.553963 -1.5773,1.3316 -2.48896,2.465563 -4.11085,3.608064 0.53663,-5.239439 6.75508,-12.153545 10.75146,-15.580383 3.151761,-2.702601 6.521712,-5.131071 10.119024,-7.187161 1.737625,-0.993119 3.595098,-2.00695 5.375729,-2.802305 0.984392,-0.439703 1.824586,-0.881367 2.845975,-1.305132 5.650525,-2.344514 11.536949,-3.482082 17.708296,-3.482082 m 13.59743,2.213536 c 2.00926,-0.158584 3.46703,-0.575835 5.05951,-0.575835 0.73458,0 1.17729,0.130345 1.89732,0.207155 4.34675,0.463672 8.86521,1.862342 12.96499,3.925421 2.57182,1.294223 4.99912,2.81957 7.27305,4.555678 10.62118,8.108561 19.07973,21.340572 21.81914,34.5772 M 127.53268,56.565276 c 15.16936,9.317721 25.95497,22.649531 36.40507,36.681451 2.29228,3.078079 3.22766,6.179239 5.6091,9.116613 0.97775,1.20606 2.36248,2.66952 3.51794,4.16461 2.86717,3.70957 5.3068,7.54246 7.20348,11.70011 1.83123,4.01409 3.0882,8.4146 3.49771,12.64878 0.14862,1.53335 0.0537,2.944 0.0537,4.74329 0,1.15578 0.0553,1.75407 -0.0541,2.84598 -0.30104,3.0123 -1.75059,8.4421 -2.7919,10.11902 -1.3471,-3.02528 -3.28805,-8.90664 -5.20339,-12.965 -0.68999,-1.46157 -1.60292,-2.50604 -2.7021,-3.79463 m -61.6627,-73.046688 v 0.632439 m 0.31622,0.632439 c 0.34436,7.895682 6.36929,15.208888 12.01634,20.291482 2.2929,2.063648 4.53015,4.017252 6.95682,5.880416 8.92909,6.855321 17.51666,13.967732 24.84599,22.525892 2.94148,3.43478 6.03221,7.20917 8.29033,11.06768 0.55212,0.94297 0.75197,1.60292 1.19626,2.52976 0.5382,1.12289 2.86431,3.34971 2.66509,4.42707 m -66.40607,-63.243887 -0.31622,0.316219 m 22.7678,-0.316219 c 8.18375,10.083604 20.7209,15.700293 30.67328,24.007377 3.47873,2.903526 8.00383,6.959989 10.75146,9.19566 M 100.33781,64.154542 c -10.527266,8.032605 -25.176447,9.164038 -37.313894,13.614194 -4.23703,1.553586 -9.55109,4.407149 -12.965,7.01343 -1.34235,1.024551 -2.59901,1.596908 -3.47841,3.088831 l 1.589,0.313373 4.73539,-0.811735 11.70011,-1.082735 M 105.0811,64.154542 104.76488,64.470761 M 104.44866,65.1032 C 97.059241,73.125686 87.438898,76.057356 77.886226,80.679535 73.550225,82.777651 70.14644,85.973048 65.237446,85.97368 M 105.71354,72.376246 c -3.75226,3.445843 -8.415237,5.649576 -13.281221,7.273046 -6.657684,2.221442 -13.764399,4.156704 -20.870481,5.059511 M 114.56768,72.692466 c 1.42141,2.435205 2.64107,4.760366 4.31766,6.956826 5.03137,6.590013 12.10709,11.332671 18.76636,16.082603 4.41505,3.148911 8.92909,6.476495 12.965,10.110175 0.79782,0.71813 1.45524,1.21459 2.15946,1.96309 2.37164,2.51963 6.24976,7.73883 7.0109,10.10668 -3.51478,-1.33254 -9.41955,-6.25482 -13.28122,-8.98822 -5.84911,-4.14026 -11.43354,-8.38202 -16.75963,-13.200895 -5.11864,-4.631034 -9.59093,-9.530853 -13.59743,-15.124774 m -6.32439,-6.324388 v 0.316219 m 0.31622,0.632439 c 0.41014,2.73593 1.85336,5.598032 3.22765,7.905485 2.23125,3.746567 5.43581,7.562703 8.4848,10.751459 2.60818,2.727709 5.266,4.966541 7.89315,7.589275 3.35383,3.34844 8.08637,8.00256 9.48659,10.43524 -1.96214,0.64224 -3.88255,-0.35038 -6.95683,-0.31496 -0.63307,0.007 -1.17128,0.0373 -1.89732,0.13281 -0.81869,0.10783 -1.71264,0.1755 -2.52975,0.18215 M 55.118426,76.803318 c -1.83375,2.251482 -6.37055,7.338503 -6.95683,8.854143 m 59.449264,-8.537924 c -0.83261,3.597628 -2.74732,6.842356 -4.83626,9.802802 -1.15515,1.637067 -2.37829,3.289946 -3.730135,4.743291 -1.260449,1.355632 -2.552521,2.732768 -3.856294,4.019464 -2.253063,2.22239 -5.238807,4.382806 -7.815363,6.380366 -1.099495,0.85252 -1.91376,1.51722 -2.624937,2.56549 -0.613782,0.9047 -0.877825,1.71549 -1.351838,2.84565 -4.387544,10.46244 -5.17999,23.00022 -1.715174,33.83548 M 103.81622,79.016854 c -2.77767,2.754271 -6.078372,4.68226 -9.486585,6.340831 -2.969616,1.445439 -6.290236,2.875383 -9.486582,4.157653 -8.137274,3.264333 -17.171979,6.235846 -24.981337,10.469708 -3.92681,2.128794 -7.80398,4.698704 -11.06768,7.820114 -1.75628,1.67975 -3.3554,3.69692 -4.42707,5.04717 -0.28491,-1.75154 0.85032,-2.99934 2.21354,-5.05951 m -10.75146,0.31622 c 0.7865,-0.78865 1.57999,-1.60734 2.34189,-2.50477 0.84797,-0.99894 1.62982,-1.5362 2.71793,-2.2148 2.9361,-1.83123 7.09407,-3.712424 10.43493,-4.734124 1.69936,-0.519551 2.8134,-0.467375 4.11085,-1.761977 0.82597,-0.823752 1.56054,-1.674382 2.44058,-2.503193 0.70327,-0.66248 1.40212,-1.395476 2.30398,-1.757231 0.99514,-0.398753 1.59564,-0.169178 2.52849,-0.272581 1.24717,-0.138504 3.13183,-0.54453 4.42707,-0.828811 9.438833,-2.073451 17.688365,-5.341579 26.56243,-9.036286 m -47.11669,5.37573 c -0.75861,0.651728 -1.37492,1.211753 -1.96531,2.218279 -1.74553,2.974676 -3.54039,7.383723 -4.92195,10.430504 -0.84484,1.86285 -0.62887,2.06902 -0.70201,3.79463 m -19.28938,4.74329 c 2.08139,-4.83025 6.03818,-9.576394 10.11902,-12.680717 4.07335,-3.098634 10.42259,-6.140981 15.17853,-7.241109 m 18.97317,0 c -1.47359,1.34583 -2.0997,1.712645 -2.84598,2.529756 m -20.55426,7.589266 c 3.59478,-1.3082 7.23605,-3.425289 11.06768,-4.518776 2.64043,-0.753551 5.07311,-1.185507 6.64061,-1.489393 m 36.997668,2.529755 c 2.467776,1.317054 3.08219,0.405077 6.008176,1.278159 2.67679,0.799086 5.47249,2.867165 7.58926,4.418539 1.73921,1.275 2.49529,1.98364 4.42707,3.47367 m -38.262549,-7.273052 -0.948658,0.632439 m -0.632439,0.316219 c -6.061926,4.625344 -12.978598,8.233414 -18.973168,12.854644 -3.1995,2.46651 -6.36138,5.14141 -9.16562,8.01584 -3.67763,3.76965 -7.12081,8.23499 -9.39032,12.965 -0.50842,1.05965 -0.86616,1.82743 -1.32806,2.84597 -0.62074,1.36891 -0.94037,2.48612 -1.21242,4.11085 -0.15238,0.91008 -0.25876,1.53968 -0.3782,2.52976 -0.1446,1.19879 0.0464,1.96404 0.19666,3.16219 0.57625,4.59341 1.50423,9.43219 2.93724,13.91366 m 17.07585,-60.081694 -0.31622,0.31622 m -24.98134,15.494754 c 2.24118,-5.383 5.7829,-10.96491 11.06768,-13.59743 m 130.914844,1.89731 c 0.18815,1.83819 1.42994,4.31766 2.66383,7.58927 1.76482,4.67973 2.80866,9.31171 3.47842,14.22987 0.44428,3.26465 0.10119,7.9409 -0.13408,9.8028 M 78.518665,104.31441 c -2.009891,2.44596 -2.609443,4.15576 -2.213536,6.00817 2.151557,-1.5947 5.730212,-4.73349 8.221705,-5.69195 m 11.067679,-0.31622 c 1.119417,2.37006 1.402749,2.71949 1.581097,3.47841 -1.130801,-0.0316 -1.872651,0.54485 -4.110852,-1.26487 m 0.316219,-1.89732 c 1.134912,1.38219 1.627898,1.82838 2.529755,2.52975 m 1.581097,-2.52975 c 1.115936,2.5911 1.869176,4.1624 -0.316219,3.16219 m 3.1622,-1.89731 c 0.32349,2.27298 -0.18467,3.24852 2.84597,3.47841 v -1.89732 m -1.26487,-1.58109 c 3.67889,0.16823 6.2077,2.48074 8.2217,5.69195 m -72.098034,-5.05951 c -0.0166,2.00356 -0.63243,8.47499 -0.63243,12.01633 m 9.8028,-11.70012 -0.31622,0.31622 m 59.133034,-0.31622 c -0.43797,1.82143 -0.59386,2.76155 -2.52976,2.84598 m 38.89499,-2.84598 0.31622,0.94866 m -43.638285,0.63244 h 1.581105 m 42.3734,0 c 0.17013,0.46105 0.38452,1.12448 0.65268,1.84514 0.351,0.94234 0.78359,1.66806 1.14376,2.5832 0.74976,1.9068 1.9321,4.90614 2.43236,6.95556 0.40476,1.65952 0.25551,1.72371 0.45884,3.16219 0.0964,0.68209 0.36523,1.54821 0.55496,2.21354 0.2865,1.00526 0.53599,1.95613 0.99894,2.84597 0.77094,1.48054 1.24843,2.33434 1.88277,4.11086 1.05649,2.95823 2.02602,6.39395 2.69356,9.48658 0.67196,3.11381 1.02075,6.48218 1.22693,9.48658 0.21439,3.12773 0.20491,6.17893 0,9.17036 -0.18657,2.72012 -0.14673,4.5425 -1.14978,6.59033 l -0.45978,0.68272 c -2.5013,-2.62114 -4.70693,-5.66539 -7.58927,-8.20558 -2.27836,-2.00799 -6.03093,-3.83068 -9.17036,-3.3554 -1.10708,0.16759 -2.16705,0.33203 -3.16219,0.84905 -3.40663,1.77019 -6.08027,5.77322 -7.6582,9.13083 -1.50458,3.20078 -1.82839,7.07541 -2.279,10.43524 -0.13755,1.02519 -0.24538,1.59185 -0.13913,2.52976 0.10245,0.90407 0.23937,1.58521 0.27669,2.52975 0.0607,1.53114 0.25013,2.96077 0.44713,4.42708 0.22831,1.69683 0.39622,3.63905 0.81458,5.37573 M 35.512826,108.74148 c -1.93172,2.26635 -3.51266,4.96243 -4.60884,7.58927 -3.80117,9.1087 -3.71725,19.17206 -0.76689,28.45974 m 67.987172,-36.04901 c 0.172024,0.7994 0.05123,1.87613 1.640867,3.3143 0.756085,0.6843 1.533985,1.25223 2.469995,1.18329 0.73837,-0.0544 1.25918,-0.41994 1.83122,-0.89648 0.65521,-0.5458 0.8519,-0.98566 1.44924,-1.47074 1.13396,-0.92051 1.42014,-0.73616 2.09527,-2.13037 m -12.016347,0.31622 h 0.316219 m 5.691958,0.31622 1.26487,1.89732 m -83.481924,-1.5811 -0.31622,0.94866 m 51.227544,-0.94866 -0.316219,3.16219 m 35.100359,-2.84597 v 0.31622 m 3.79463,-0.31622 c -1.62094,1.97479 -0.26309,3.11602 1.26488,4.74329 m -33.835481,-4.42707 c -1.450498,1.43848 -2.807712,2.65466 -4.426756,3.76744 -0.900592,0.61915 -1.797707,1.35531 -2.486117,2.24547 -0.897746,1.16084 -1.237682,1.49983 -2.257806,2.52501 -1.300614,1.30757 -3.983104,3.13184 -4.667714,4.83342 -0.5167,1.28385 0.34689,1.92356 0.8734,2.75585 l 0.31622,-1.5811 m 42.689624,-14.22987 1.26488,0.63244 m 35.73279,0 c 0.074,0.90502 0.67449,2.98258 0.90976,4.74329 0.11985,0.89838 -0.043,1.53999 0.28492,2.52975 0.30641,0.92494 0.79149,1.4603 1.33855,2.21196 0.67893,0.93316 1.18867,1.47295 1.57762,1.89889 m -38.26255,-11.06767 -0.63244,0.63243 m -90.122534,-0.31621 -0.94866,3.47841 m 42.68962,-3.1622 c 3.2e-4,3.98405 0.59481,7.67908 1.89732,9.80281 2.58541,-2.56359 4.28667,-3.88286 6.324388,-5.05951 m 70.833156,-4.7433 c 1.68608,1.61494 2.97467,3.25201 5.05951,5.69195 m -69.568278,-5.37573 c 0,2.56012 -0.58469,8.73525 0.135026,13.59744 0.406025,2.7413 1.844507,8.25048 2.778936,10.43461 0.437964,1.02391 0.499626,1.58236 0.564451,2.21416 -2.047204,-1.45397 -4.753726,-5.39913 -6.077104,-8.2217 -1.274681,-2.71854 -2.762177,-8.43863 -2.776723,-11.38232 -0.0054,-1.10455 -3.16e-4,-1.45429 -3.16e-4,-1.89889 m -25.297556,-4.42708 c -1.93463,2.14998 -3.45469,4.71736 -4.81235,7.27305 -1.18298,2.22682 -2.4003,4.82709 -3.19755,7.27305 -0.86995,2.6692 -1.44316,5.34157 -1.47668,6.95682 m 35.100355,-20.55426 0.632439,1.26488 m 34.1517,-0.63244 2.21354,0.31622 m -79.054864,0.63244 v 0.31622 m 114.471434,-0.31622 c -2.22682,3.0278 -4.02484,4.87768 -4.74329,6.00817 h 1.89732 M 27.291116,116.33075 v 0.31622 m 98.344244,0.94865 c 1.8951,-0.35701 4.09599,-0.97743 6.00817,-0.45251 1.583,0.43449 3.66656,2.18508 4.1839,2.99334 0.57109,0.89237 0.46959,1.35468 0.55939,1.88625 l 0.31622,0.31622 0.31622,-0.31622 0.31622,-0.31622 m 22.7678,-3.79464 2.01526,2.38525 2.09559,1.72561 m -30.67328,-3.79464 c -0.36618,1.7566 -1.22757,1.82111 -2.21354,1.89732 0.17392,1.18013 0.0737,1.93242 -1.26488,3.47841 2.82321,1.50647 5.79314,-1.06566 6.32439,-1.58109 m -6.64061,-3.47842 c 0.081,0.49647 -0.18941,1.29808 1.26488,1.26488 m 4.42707,-0.31622 -0.94865,0.94866 1.26487,0.94866 m 8.85415,-1.5811 c -0.20397,2.58067 -0.95214,6.09039 -1.90523,9.17036 -2.06649,6.67539 -5.0614,12.81701 -7.52064,19.28939 -1.08084,2.84471 -2.131,6.46921 -2.27425,8.2217 M 122.78939,120.4416 c 3.41896,-0.43038 3.42086,-0.16317 6.6406,-0.31622 m -3.47841,0.31622 c -0.12933,2.51141 2.40675,3.08409 4.11085,3.16219 m -1.89731,-3.16219 0.94866,1.26488 m 4.42707,-1.26488 h 0.94866 m 27.8273,0.31622 c 0.11195,2.16073 1.01349,3.1818 2.10476,6.32439 0.75861,2.18507 1.3316,3.78483 1.88751,6.00817 1.08495,4.33821 1.80562,9.07391 1.69494,13.59743 -0.14009,5.7359 -1.5675,12.24022 -3.88855,17.39207 -0.91893,2.04024 -1.80435,3.80823 -2.88234,5.69195 -1.65826,2.89688 -2.29038,3.76933 -3.65961,5.37573 -0.5537,-1.16844 -0.90881,-2.11773 -1.85368,-3.79432 -0.35321,-0.62675 -1.07166,-2.08484 -1.83786,-1.78822 -0.98692,0.38168 -1.14408,2.3416 -1.55896,3.369 -1.21271,3.00282 -2.1016,4.24778 -2.9712,6.64061 1.51627,0.22103 4.17536,-1.06535 6.00817,-2.20974 0.46294,-0.28903 1.03625,-0.83988 1.8834,-0.80794 0.8481,0.0319 1.22282,0.77695 1.41951,1.13048 0.38832,0.69821 0.68936,1.50394 1.12416,2.20342 3.6302,-1.56244 8.39246,-2.64644 12.01634,-5.29889 3.33548,-2.44122 6.15426,-5.66823 7.64776,-9.56343 0.43259,-1.12763 0.65584,-2.01178 0.88889,-3.16219 0.61505,-3.03412 1.12353,-6.80599 0.001,-9.8028 -1.10424,1.56497 -1.21112,3.03286 -2.84597,5.05951 M 62.075256,122.0227 c -0.65426,0.55654 -1.27689,1.1387 -1.98807,1.91028 -1.28923,1.39832 -4.08081,4.14152 -5.59993,5.67898 -0.79656,0.80636 -1.80783,1.99819 -2.49402,2.81752 -0.91767,1.09538 -1.38663,1.45271 -2.16895,2.86336 -0.82059,1.47959 -1.18962,1.47327 -2.0178,2.86179 -1.3686,2.29354 -2.51205,4.89729 -3.41896,7.2683 -1.04637,2.7353 -1.87139,5.962 -2.48359,8.85415 -1.04416,4.93144 -1.07388,9.84485 -1.01412,14.86231 0.013,1.09728 0.7545,4.76447 0.25235,5.55692 -0.52967,0.83672 -1.38125,0.17613 -2.14969,-0.39907 -1.96161,-1.46852 -3.76681,-4.15892 -4.78722,-6.42273 -3.50143,-7.76793 -2.82618,-15.72907 -2.17084,-24.03268 m 104.984844,-21.81913 1.89732,1.26487 m -2.21354,-0.94865 c -0.11352,0.77252 -0.35922,1.30503 -0.63244,3.16219 m -74.311564,-2.84598 0.63244,0.63244 m 57.551934,-0.63244 -0.63244,10.11903 m -57.235714,-8.53793 c -2.4994,2.18381 -4.69175,4.58835 -6.87429,7.27305 -1.30188,1.60133 -2.59617,3.31999 -3.74404,5.05951 -0.6998,1.06028 -1.24369,1.68323 -1.76735,2.84597 -0.74027,1.6434 -1.67976,3.14639 -2.47663,5.05951 m 16.12719,-18.0245 c 1.79834,9.63995 9.494485,17.02462 14.974884,24.969 0.733629,1.06344 1.371127,1.88941 2.164521,2.86305 1.244324,1.52734 2.555686,3.19034 3.794317,4.73855 1.062181,1.3278 1.969415,2.47789 2.988273,3.79463 2.768501,3.57802 5.574316,7.20854 7.889675,11.06768 0.604295,1.00684 1.09823,1.82395 1.626,2.84597 1.258237,2.43774 2.432679,4.98552 3.340234,7.58927 2.35804,6.76614 2.11709,13.11899 2.11709,19.28938 2.3552,-1.14756 4.4394,-3.76238 5.91804,-7.27304 1.90206,-4.51499 1.76957,-11.19038 0.95973,-15.81097 -0.24349,-1.38947 -0.58754,-2.44438 -1.08495,-3.79464 -2.0861,-5.66096 -6.11853,-11.6726 -9.704464,-16.44341 -0.681452,-0.90628 -1.071035,-1.88593 -1.849251,-2.71189 -1.380297,-1.4641 -2.902578,-2.78242 -4.357819,-4.24493 -4.79357,-4.81666 -9.948895,-9.67632 -13.913971,-14.5461 m 90.438755,-12.01633 4.11085,4.42707 m -4.74329,-4.11085 c 1.51248,4.16271 4.46629,12.41351 5.69195,15.17853 1.05649,-1.66648 1.46789,-3.64317 2.21354,-5.37573 m -150.204224,-8.53793 1.89731,12.01634 M 149.0356,128.6633 c 0.0155,1.87171 0.22989,5.72421 -0.0285,9.48659 -0.40887,5.96263 -2.36659,14.65455 -5.66349,19.28938 M 63.340136,129.61196 c 0,1.75597 0.45883,6.89011 1.15799,10.11902 2.02602,9.35757 6.115054,18.10072 6.115054,27.82731 m 63.87633,-36.68145 c -1.56371,6.58337 -7.71196,12.10709 -12.64878,16.12719 m -12.64878,-14.22987 -0.63244,2.21353 m 1.89732,0 h 2.52976 m 5.69194,0.63244 -0.31621,0.31622 m -68.619624,0.63244 v 1.5811 m 64.508764,-1.26488 3.1622,-0.31622 m -59.449254,0.94866 c 0.42341,20.50809 17.736744,36.69346 25.29755,54.38973 m 13.597435,-52.80864 c 1.423303,0.99072 1.551372,0.96605 3.478419,0.95182 1.88435,-0.0139 4.09061,-0.003 6.00817,-0.003 m -27.511096,0.31622 c -0.433537,1.79992 0.08159,8.01933 -0.632439,10.43524 M 98.440488,140.6798 c 1.412867,1.21713 1.387257,3.77598 2.953492,5.69069 1.98143,2.42224 4.95927,3.49928 7.79797,3.47809 1.25002,-0.009 2.11994,-0.11257 3.1622,-0.60556 1.09095,-0.51607 2.01811,-1.43026 2.84597,-2.23883 -2.36564,-1.38504 -3.29279,-1.66363 -5.69195,-2.45228 -3.2305,-1.06187 -4.36003,-0.35101 -8.17111,-2.01369 -0.44334,-0.19384 -0.7779,-0.45599 -0.99925,-0.59354 m 7.27305,-1.26488 c 3.04171,1.44481 6.61404,2.06175 8.85414,4.74329 m -66.722304,-4.11085 c 0.0876,2.03361 1.23168,6.27506 2.40453,9.17036 3.16694,7.81758 8.10218,15.03118 9.78605,23.40024 0.80825,4.01757 1.15483,9.50745 -0.59291,13.28121 -0.97491,2.10539 -2.8814,4.20446 -4.64084,5.41842 -1.1659,0.80415 -2.10096,1.34868 -2.84598,1.85463 0.86328,1.34709 1.69621,2.2382 4.7433,4.42707 M 173.70071,142.26074 c 0,2.48011 0.3918,4.95357 0.31148,8.2217 -0.0933,3.81835 -1.07705,7.63923 -2.62367,11.06768 -1.84008,4.07923 -4.77365,7.9779 -8.12336,10.77644 -0.98661,0.8247 -2.56929,1.9827 -3.47652,2.6379 -1.07736,0.77759 -1.4467,1.08938 -1.8989,1.44797 M 46.896726,145.10671 c -0.94392,2.79507 -1.94918,5.97781 -2.39568,8.85415 -0.29377,1.89478 -0.66722,3.70925 -0.75418,5.69194 -0.18373,4.19592 -0.0734,8.80766 0.70264,12.965 1.18171,6.33198 3.61154,13.23125 7.08078,18.65695 0.76968,1.20353 1.10519,2.02443 2.00704,2.84597 m 61.662794,-47.11669 2.21354,-0.31622 m 63.5601,2.21354 -0.31622,2.84597 m -62.29522,-1.26488 -3.1622,3.1622 M 78.518665,153.0122 c 0,1.60418 0.181194,5.27169 0.59133,8.2217 0.816162,5.87473 2.272985,12.24591 3.068909,18.02451 0.379464,2.75522 0.450613,7.11652 0.450613,9.48658 m 34.467923,-35.10035 -0.63244,14.22987 m -4.42707,-10.43524 c -3.46008,3.30196 -7.28728,4.5387 -11.70012,2.21353 m -2.529761,-1.26487 1.264876,0.63244 m -15.810969,1.89731 c 6.688673,8.70173 12.734788,18.84921 14.861996,29.72463 0.585953,2.99459 0.647303,6.09987 0.632443,9.17036 -0.005,1.06092 -0.0983,1.85684 -0.22673,2.84597 -0.221357,1.70411 -0.505006,3.6283 -1.045741,5.37573 -0.922728,2.981 -2.860521,6.68235 -5.063938,8.83707 -0.676077,0.6609 -1.410338,1.03847 -2.06428,1.74205 -1.039097,1.11784 -1.189617,2.97531 -1.71802,4.59941 m 64.824984,-55.65461 v 1.26488 m -36.68145,-0.31622 c 0.98471,4.25694 3.60648,7.82611 6.00817,10.43524 m -52.17621,-7.58927 v 1.5811 m 80.31973,0 c -2.54461,3.05974 -6.06761,4.59214 -10.11902,4.41474 -2.23788,-0.0983 -3.83352,-1.1112 -5.69195,-1.88498 m -64.82498,-1.5811 v 0.31622 m -29.092184,0.94866 c 1.86348,3.36109 2.5522,8.92466 4.11085,12.96499 M 157.57352,175.14756 v 0.94865 m -124.590454,0.94866 c -0.25591,1.3784 -0.33102,3.08188 -0.31498,4.42707 0.0112,0.94044 0.0584,1.54442 0.25424,2.52976 0.40587,2.04214 1.48319,4.53269 2.83108,6.32312 2.33771,3.10528 5.84917,4.80875 8.61356,4.11212 -1.86791,-1.31958 -3.54007,-1.50236 -5.84446,-4.42707 -1.27749,-1.62126 -2.20784,-3.33137 -2.69346,-5.37573 m 33.519256,-6.95683 v 0.63244 m -0.316219,0.63244 c -1.149458,3.97171 -2.963607,8.10628 -6.036627,10.97629 -2.20753,2.06175 -5.49368,3.78578 -7.24459,3.5698 m 98.344244,-13.59743 c 2.24737,0 3.30418,0.0262 4.74329,-0.31622 m -26.87865,2.84597 c 1.7566,1.61304 3.17801,2.79791 5.69195,3.1818 3.56095,0.54358 6.51855,-0.56888 8.80007,-2.89499 0.97554,-0.99451 1.57382,-1.934 2.58383,-2.81656 m 10.75146,0 c 0.26689,1.80624 1.90332,5.84689 2.83807,8.85414 0.37282,1.20005 0.53314,3.29785 1.50299,4.17441 1.81162,1.6377 7.3015,0.91293 9.25637,0.39654 0.90629,-0.23938 1.3784,-0.27068 2.2088,-0.67386 0.92367,-0.44872 2.22586,-1.9593 2.85071,-2.63221 m -41.42474,-8.53793 c 3.87084,0.71845 8.30203,-0.61726 10.11902,0 m -111.625454,2.21354 v 0.31622 m 70.200714,18.65694 15.17853,-15.49475 m -38.578772,4.11086 -2.213536,9.8028 m -0.31622,-7.58927 c -2.159146,3.00282 -4.539962,6.12327 -8.221704,7.2604 -5.161022,1.59374 -10.714782,0.0734 -15.178212,3.87463 -2.86305,2.43837 -4.09093,5.77575 -4.80559,9.41923 -0.21408,1.09128 -0.58848,2.19709 -0.32602,3.1622 0.25519,0.93885 0.94644,1.51216 1.65446,2.2012 0.87023,0.84715 1.81193,1.59786 2.84439,2.26856 3.60269,2.34034 7.96399,3.80095 12.332558,3.75068 2.646757,-0.0304 5.744758,-0.78707 7.904221,-2.24548 0.714023,-0.48223 1.768931,-1.22661 1.655092,-2.1816 -0.152418,-1.27784 -1.622838,-2.18096 -2.602486,-3.16093 m 89.173879,-24.34889 c 0.15906,0.49046 0.45061,1.1795 0.59892,1.8989 0.18815,0.91039 0.18151,1.5773 0.45978,2.52817 0.57394,1.96056 0.92621,7.0381 2.58193,8.21285 1.41287,1.00273 4.57538,0.20175 6.16217,-0.11763 6.83287,-1.37461 11.36872,-5.99837 14.86231,-11.57363 m -13.91365,-0.94866 c -1.43058,1.44576 -5.21541,2.31662 -6.95683,2.84598 1.41603,1.53366 4.38913,2.01906 7.90549,2.43963 3.37722,0.40381 6.83635,-0.12048 9.8028,-1.8072 M 52.904896,193.8045 c -1.75692,1.29998 -1.8521,1.33761 -5.05951,1.26013 -1.29903,-0.0313 -2.03551,-0.22261 -3.1622,-0.31147 m 39.843648,-0.31622 c 0.878141,1.51026 1.54568,3.12836 2.210057,4.74329 0.705486,1.71517 2.728974,5.41431 2.061434,7.23099 -0.502156,1.36575 -2.987324,1.6864 -4.271491,1.84767 -4.795152,0.60145 -8.906953,-2.76882 -13.281216,-4.01915 m 93.917172,-8.53792 2.84597,0.63244 m -127.436424,3.47841 c 1.31769,4.04223 3.42149,7.55891 5.51898,11.06768 1.53967,2.5756 2.61481,4.45173 4.91626,5.69195 M 185.71705,202.0262 c -1.26962,2.14492 -2.68154,4.45554 -4.24525,5.93924 -1.00368,0.95213 -1.66363,1.1153 -2.71158,1.88403 -2.07882,1.5245 -7.18039,3.57897 -9.48658,3.87685 0.14673,1.84546 1.10455,6.97865 1.58584,9.17037 0.18657,0.84904 0.50722,1.64528 0.61758,2.52975 0.0993,0.79845 0.0335,1.38662 0.14641,2.21354 0.93095,6.81864 3.00661,15.08809 3.0259,22.13535 m 14.54609,-46.16803 c -0.006,2.24642 -0.42088,3.10939 -0.83956,5.05951 -0.32128,1.49698 -0.38168,2.71222 -0.85411,4.11085 -0.92146,2.72803 -2.86558,5.27043 -4.94725,7.2604 -2.5073,2.39694 -8.41776,5.0437 -10.75114,5.38838 m -69.88449,-21.50292 c -0.36397,2.81752 -0.72604,4.33379 -1.89732,7.27305 -1.67502,4.20382 -4.365414,8.15087 -7.589271,11.3839 m 75.260221,-16.12719 c 0.0832,1.91059 1.03214,5.15406 1.26488,6.95682 m -79.687295,-6.32438 c 0.29693,1.44259 0.25677,1.77272 1.264877,1.89731 m 40.476088,-1.26488 2.63822,6.95683 1.60671,4.74329 4.01441,15.49475 4.38944,19.28939 m 36.99767,-45.21938 c -0.80225,1.79992 -3.88539,4.86029 -6.64061,6.74812 -1.60544,1.0995 -1.79359,1.35469 -3.79463,1.78981 m -80.003517,-8.22171 c -0.796557,0.87245 -1.307884,1.58964 -2.059853,2.52976 -0.692837,0.86644 -1.5675,1.71359 -2.362475,2.52975 -2.426352,2.49118 -4.746138,4.39355 -6.329132,6.64061 2.956968,1.42299 6.795555,0.17392 9.802802,-1.5811 m 83.165705,-2.21353 c 1.82238,0.39464 6.36392,-0.50406 9.17037,-2.06017 2.85862,-1.58458 4.6968,-4.50107 6.32439,-5.84532 m -98.028026,1.26488 c 0.0013,1.93495 0.316219,4.05773 0.316219,7.27304 m -44.270717,-6.32438 c 0.0651,1.42836 1.88277,6.85437 3.49075,9.17036 0.92177,1.32749 1.47864,2.21069 2.47157,3.74087 0.96573,1.48813 2.08926,2.48802 3.52426,3.81994 2.27394,2.11013 4.89192,3.70862 7.58927,4.8312 3.83005,1.59437 8.207156,2.18665 12.332555,1.31009 5.6325,-1.19657 10.596828,-5.05129 12.964996,-10.53991 m -37.313891,-5.69195 c 10e-4,2.11962 0.16728,3.12299 0,4.11086 m 27.194869,-1.26488 0.948659,0.31622 m -27.511088,4.11085 c 0.29914,1.60513 0.83071,5.26853 1.34393,8.2217 0.93791,5.39724 2.41813,10.90831 4.0397,16.12719 0.47971,1.54316 0.90281,2.91428 1.5732,4.42708 m 52.808644,-11.70012 c -1.84925,2.60438 -3.03349,5.16007 -4.11528,8.2217 -0.41045,1.16211 -0.78675,1.89858 -0.94423,3.1622 m -1.89732,-6.00817 c 0.67576,2.02728 1.10297,3.03001 1.89732,4.42707 m -31.938168,-3.16219 4.427072,5.05951 m 96.130706,-3.79464 v 1.5811"
       style="fill:none;stroke:#010101;stroke-width:0.316219" />
  </g>
</svg>
