<?xml version="1.0" encoding="UTF-8" standalone="no"?>
<svg
   xmlns:dc="http://purl.org/dc/elements/1.1/"
   xmlns:cc="http://creativecommons.org/ns#"
   xmlns:rdf="http://www.w3.org/1999/02/22-rdf-syntax-ns#"
   xmlns:svg="http://www.w3.org/2000/svg"
   xmlns="http://www.w3.org/2000/svg"
   xmlns:sodipodi="http://sodipodi.sourceforge.net/DTD/sodipodi-0.dtd"
   xmlns:inkscape="http://www.inkscape.org/namespaces/inkscape"
   width="210mm"
   height="297mm"
   viewBox="0 0 210 297"
   version="1.1"
   id="svg8"
   inkscape:version="1.0 (4035a4fb49, 2020-05-01)"
   sodipodi:docname="美女.svg">
  <defs
     id="defs2" />
  <sodipodi:namedview
     id="base"
     pagecolor="#ffffff"
     bordercolor="#666666"
     borderopacity="1.0"
     inkscape:pageopacity="0.0"
     inkscape:pageshadow="2"
     inkscape:zoom="0.35"
     inkscape:cx="400"
     inkscape:cy="788.57143"
     inkscape:document-units="mm"
     inkscape:current-layer="layer1"
     inkscape:document-rotation="0"
     showgrid="false"
     units="mm"
     inkscape:window-width="1920"
     inkscape:window-height="1017"
     inkscape:window-x="-8"
     inkscape:window-y="-8"
     inkscape:window-maximized="1" />
  <metadata
     id="metadata5">
    <rdf:RDF>
      <cc:Work
         rdf:about="">
        <dc:format>image/svg+xml</dc:format>
        <dc:type
           rdf:resource="http://purl.org/dc/dcmitype/StillImage" />
        <dc:title></dc:title>
      </cc:Work>
    </rdf:RDF>
  </metadata>
  <g
     inkscape:label="图层 1"
     inkscape:groupmode="layer"
     id="layer1">
    <path
       style="fill:#000000;stroke-width:0.27903"
       d="m 143.31474,207.18063 c -2.03897,-0.65555 -2.63843,-0.99964 -4.1254,-2.36802 -4.03597,-3.71406 -4.4988,-9.23383 -1.20197,-14.33469 0.60422,-0.93483 2.27658,-3.06036 3.71637,-4.72338 4.89423,-5.65309 6.8502,-8.58938 8.00274,-12.01362 0.84958,-2.52413 0.77479,-4.40275 -0.25307,-6.35674 -0.99941,-1.89989 -1.0279,-2.15931 -0.22439,-2.04238 0.95938,0.13962 2.00326,2.44646 2.13113,4.70958 0.2434,4.30764 -2.3097,9.18709 -8.42931,16.10983 -4.75662,5.38091 -6.26749,8.38009 -5.9554,11.82189 0.38897,4.28966 3.99143,7.87202 8.58027,8.53242 1.11213,0.16005 1.54464,0.34872 1.61299,0.7036 0.0774,0.40189 -0.11317,0.48235 -1.11296,0.46991 -0.66348,-0.008 -1.89693,-0.23703 -2.741,-0.5084 z m 6.0629,-9.33384 c -3.83645,-1.19334 -5.36609,-5.75212 -3.34977,-9.98329 0.46766,-0.98136 1.46573,-2.53768 2.21795,-3.45848 4.21041,-5.1541 5.82842,-9.17284 5.6171,-13.95151 -0.13335,-3.01556 -1.00163,-5.19278 -2.81926,-7.06935 -3.37049,-3.4798 -8.67307,-4.32357 -19.56213,-3.11281 -7.99551,0.88903 -11.35297,0.68932 -14.58687,-0.86765 -2.23697,-1.07701 -4.80508,-3.62468 -4.82354,-4.78516 -0.0138,-0.86693 0.60317,-0.52498 2.16338,1.19912 3.2548,3.59667 7.64136,4.55725 15.82631,3.46571 5.12989,-0.68412 11.89194,-0.83342 14.57554,-0.3218 6.81983,1.30014 10.38461,5.44135 10.39434,12.07513 0.006,4.4854 -1.77413,8.96854 -5.35518,13.48219 -2.48678,3.13439 -3.33298,4.85107 -3.35046,6.79699 -0.0183,2.04528 0.46569,3.36204 1.6031,4.36069 2.25817,1.98271 6.76508,1.88597 11.46733,-0.24613 2.15603,-0.9776 2.61429,-1.03384 2.61429,-0.32086 0,0.36523 -0.49167,0.74059 -1.65227,1.26144 -3.67471,1.64911 -8.38657,2.28242 -10.97986,1.47577 z m -3.63831,-6.8148 c -0.0702,-0.26857 -0.12762,-0.0488 -0.12762,0.4883 0,0.53713 0.0575,0.75687 0.12762,0.4883 0.0701,-0.26856 0.0701,-0.70804 0,-0.9766 z m 6.22535,-27.7991 c 0,-0.0579 -0.21974,-0.27767 -0.4883,-0.4883 -0.44257,-0.34708 -0.45244,-0.33721 -0.10536,0.10536 0.36452,0.46479 0.59366,0.6126 0.59366,0.38295 z m -37.39005,-6.13867 c 0,-0.0579 -0.21973,-0.27767 -0.4883,-0.4883 -0.44255,-0.34708 -0.45242,-0.33721 -0.10535,0.10536 0.36452,0.46479 0.59365,0.6126 0.59365,0.38294 z m -4.86297,33.24019 c 0.12818,-0.65223 0.23576,-2.39451 0.23907,-3.87172 0.006,-2.59682 -0.0327,-2.76386 -1.16056,-5.04007 -1.12554,-2.27142 -3.6163,-5.24899 -4.39084,-5.24899 -0.18123,0 -1.32475,0.29757 -2.54116,0.66127 -8.462407,2.53019 -13.875849,1.23042 -16.293071,-3.91199 -1.423934,-3.02931 -1.79661,-7.00998 -0.966248,-10.32097 0.704137,-2.80763 1.951848,-5.81104 2.455673,-5.91112 0.68681,-0.13644 0.569939,0.61412 -0.578881,3.71761 -0.969211,2.61827 -1.03293,2.98813 -1.033679,5.99914 -5.59e-4,2.68907 0.102613,3.4702 0.637844,4.82229 2.214771,5.59531 6.818995,7.0066 15.043302,4.61109 1.11906,-0.32596 1.93523,-0.68018 1.81369,-0.78716 -0.12153,-0.10698 -1.34814,-0.79131 -2.7258,-1.52071 -3.305309,-1.75002 -4.466036,-2.57323 -6.165443,-4.37268 -2.194754,-2.32394 -2.494061,-3.39937 -2.474635,-8.89149 l 0.01635,-4.604 1.699629,-5.02254 c 0.934789,-2.7624 1.857903,-5.93288 2.051359,-7.04552 0.287042,-1.65079 0.446192,-2.02297 0.865122,-2.02297 0.348156,0 0.51143,0.20206 0.507338,0.62782 -0.01276,1.32648 -1.131578,5.54183 -2.536519,9.55678 -1.461921,4.1778 -1.464811,4.19286 -1.579404,8.2314 -0.102929,3.62757 -0.05284,4.21064 0.484621,5.63879 0.789328,2.09741 3.56212,4.70696 6.7773,6.37829 1.265622,0.65791 2.869132,1.53062 3.563372,1.93937 0.88752,0.52257 1.42593,0.67745 1.81369,0.52174 1.04949,-0.42146 6.42458,-2.70833 9.68079,-4.11875 6.66461,-2.8868 13.9749,-3.39886 18.07612,-1.26618 2.24019,1.16493 3.90641,2.96272 3.90641,4.21488 0,0.9076 -0.73579,0.81154 -1.23911,-0.16178 -0.64613,-1.24946 -2.84058,-3.01879 -4.43342,-3.57452 -1.12407,-0.39219 -2.27474,-0.50069 -5.20964,-0.4913 -4.74243,0.0152 -6.30224,0.43155 -13.60674,3.63194 -2.95644,1.29533 -5.46772,2.35708 -5.58061,2.35942 -0.11289,0.002 -0.36434,0.10525 -0.55876,0.22866 -0.25846,0.16405 -0.0686,0.52393 0.70637,1.33854 1.44019,1.51395 2.72064,3.49679 3.47093,5.37491 1.15028,2.87939 0.76948,9.5164 -0.54602,9.5164 -0.34634,0 -0.37991,-0.21131 -0.18839,-1.18588 z m -2.39183,-12.57391 c 0,-0.048 -0.40807,-0.4561 -0.90684,-0.90685 l -0.90685,-0.81954 0.81954,0.90685 c 0.76392,0.84531 0.99415,1.0351 0.99415,0.81954 z m 72.63576,9.85124 c -4.18852,-0.6124 -8.80101,-2.73439 -11.68207,-5.37436 -2.98408,-2.73436 -4.04792,-4.32744 -8.42823,-12.62096 -3.87041,-7.32811 -6.30617,-10.48342 -10.57,-13.69248 -4.62643,-3.48195 -8.5949,-4.64375 -18.0186,-5.27511 -10.14328,-0.67957 -14.26315,-1.4024 -18.22057,-3.19678 -2.31441,-1.04941 -3.8862,-2.13355 -7.07651,-4.88102 -5.94202,-5.11726 -9.716885,-10.89363 -11.227729,-17.18089 -0.350349,-1.45794 -0.706299,-2.68228 -0.790994,-2.72076 -0.08468,-0.0385 -1.189907,-0.68623 -2.45601,-1.43943 -1.266103,-0.75319 -2.301996,-1.32909 -2.301996,-1.27977 0,0.0494 0.447868,0.75984 0.995259,1.57893 1.24788,1.86727 3.692848,6.86263 3.923595,8.01637 0.133555,0.66775 0.0753,0.8672 -0.253189,0.8672 -0.27233,0 -1.145213,-1.46948 -2.413404,-4.06293 -2.249709,-4.60064 -3.177348,-5.695 -6.856265,-8.08853 -2.578091,-1.67734 -3.801609,-2.31247 -9.347509,-4.85236 -2.225263,-1.01911 -5.050448,-2.52669 -6.278174,-3.35015 -5.200539,-3.48811 -9.969113,-8.27578 -11.745664,-11.792692 -1.661758,-3.289648 -2.195872,-5.714094 -2.169412,-9.847376 0.02004,-3.123004 0.12554,-3.941396 0.759019,-5.885555 0.404682,-1.241984 1.112774,-2.748747 1.573529,-3.348363 0.460756,-0.599615 1.120726,-1.496733 1.466615,-1.993599 0.345888,-0.496865 0.785837,-0.904943 0.977669,-0.906842 0.754199,-0.0074 0.299591,1.400934 -0.94562,2.929559 -1.327523,1.629677 -2.632414,4.89733 -2.593647,6.494884 0.01255,0.515901 0.146854,0.278963 0.422137,-0.744602 0.83573,-3.107354 2.606744,-5.748436 4.334636,-6.464153 0.830131,-0.343853 1.642554,-0.206501 1.642554,0.277698 0,0.155164 -0.503931,0.539208 -1.119861,0.853426 -2.348494,1.198113 -3.891788,4.458532 -4.112875,8.689005 -0.115669,2.213231 -0.03712,3.031718 0.441604,4.603993 1.04413,3.428995 3.361492,6.654905 6.85386,9.541027 2.535,2.09495 4.21359,3.1497 8.601716,5.40494 l 3.54919,1.82408 -1.204103,-1.42975 c -5.246171,-6.22938 -8.017687,-13.850323 -7.966307,-21.90527 0.02679,-4.201482 0.254391,-5.718422 0.875847,-5.837898 0.439695,-0.08458 0.465016,0.239163 0.31618,4.04228 -0.181244,4.631191 0.07952,7.07019 1.157838,10.830891 1.820865,6.350147 6.552159,13.315227 11.72048,17.254027 1.227736,0.93567 2.79728,2.22376 3.487875,2.86244 1.571263,1.45311 6.047174,4.36704 9.34751,6.08545 2.687052,1.39909 2.689383,1.31152 0.0074,-0.27634 -3.334041,-1.97386 -6.206282,-4.22503 -9.225418,-7.23056 -4.437988,-4.41798 -7.161751,-8.72442 -8.683553,-13.72923 -0.717541,-2.359812 -0.750318,-2.753262 -0.849619,-10.197605 -0.09049,-6.780038 -0.05062,-7.74309 0.319935,-7.74309 0.656701,0 0.732758,0.765926 0.817475,8.231392 0.07076,6.238471 0.143974,7.192111 0.692494,9.022761 2.578819,8.606822 9.552271,16.288042 19.99065,22.019592 7.315152,4.01663 22.736042,10.09195 25.668792,10.11264 0.15236,0.001 -1.29478,-0.85468 -3.21588,-1.90169 -8.7894,-4.79026 -16.77493,-10.61348 -20.242462,-14.76123 -5.703673,-6.82256 -9.759019,-16.823362 -10.340938,-25.501486 -0.202789,-3.024283 -0.01867,-4.234628 0.624145,-4.101422 0.34456,0.0714 0.442132,0.675547 0.509995,3.157627 0.141043,5.158851 1.767598,11.163819 4.63947,17.128161 3.556403,7.386 7.42141,11.48053 16.8846,17.88729 6.33339,4.28782 14.84903,8.72264 20.07203,10.45321 1.22773,0.40679 3.48787,1.34596 5.02254,2.08704 1.53467,0.74108 4.92489,2.22766 7.53382,3.30352 17.94734,7.40104 25.55123,12.42645 30.84039,20.3824 1.05277,1.58357 2.12302,3.42618 2.37832,4.09468 l 0.4642,1.21547 2.1057,0.19732 c 2.50859,0.23508 6.25964,-0.0146 8.57718,-0.57072 0.92081,-0.22099 2.01948,-0.40628 2.44152,-0.41174 1.16267,-0.0151 0.96529,0.75272 -0.27903,1.08538 -3.02344,0.8083 -4.46643,0.98292 -8.17948,0.98984 l -4.06377,0.007 0.6466,2.03657 c 0.61554,1.93875 1.48181,6.23409 1.48181,7.3475 0,0.32106 -0.19807,0.52151 -0.5153,0.52151 -0.43629,0 -0.58739,-0.43412 -0.98556,-2.83161 -0.25865,-1.55737 -0.81153,-3.83601 -1.22864,-5.06363 l -0.75839,-2.23202 -2.62549,-0.76994 c -6.72269,-1.97146 -12.46976,-5.98293 -24.16139,-16.86474 -6.13553,-5.71053 -8.73605,-7.97184 -10.75001,-9.34774 -2.03924,-1.39318 -11.87632,-5.48063 -12.60523,-5.23767 -0.15174,0.0506 1.12314,0.70354 2.83306,1.45101 8.41205,3.67724 15.4779,8.57062 21.66239,15.00207 3.10823,3.23234 5.29884,6.0008 8.55594,10.81288 2.23891,3.30779 2.57953,4.19921 1.60456,4.19921 -0.30693,0 -0.55806,-0.10642 -0.55806,-0.23649 0,-0.37367 -4.08109,-6.3603 -6.11006,-8.96295 -4.0794,-5.23284 -9.57362,-10.33467 -15.09623,-14.01811 -5.66349,-3.77742 -17.60376,-9.13201 -25.36212,-11.37363 -6.6597,-1.92418 -13.32409,-4.40816 -17.58834,-6.5556 -1.86827,-0.94084 -1.973414,-0.9628 -1.973414,-0.41215 0,0.72668 1.746833,6.04367 1.867068,5.68297 0.07319,-0.21952 -0.532595,-2.53894 -1.221683,-4.67768 -0.133418,-0.41409 -0.03797,-0.49467 0.496011,-0.41855 0.581149,0.0829 0.764545,0.44947 1.514124,3.02686 0.92457,3.17905 1.846994,4.77019 3.819354,6.58825 3.69955,3.41013 6.8352,4.20427 18.0798,4.57888 4.54723,0.15149 8.46906,0.41926 9.62654,0.65727 2.83272,0.5825 4.72045,1.34667 4.8383,1.95863 0.1167,0.606 -0.06,0.58299 -4.14073,-0.53935 -2.41156,-0.66326 -3.34837,-0.75115 -10.38031,-0.97387 -4.25125,-0.13464 -8.52041,-0.38298 -9.48703,-0.55185 -4.08664,-0.71395 -7.1287,-2.15053 -9.67707,-4.56988 l -1.80094,-1.70976 0.857068,1.25563 c 1.393222,2.04114 3.843442,4.7259 6.436142,7.05224 6.68304,5.99645 10.30554,7.18511 24.86819,8.16006 7.79948,0.52216 10.69635,1.10828 14.51063,2.93595 3.13754,1.5034 5.30893,3.09441 7.83863,5.7435 2.66693,2.79281 4.53726,5.64379 7.93343,12.09305 1.49215,2.83358 3.34737,6.0696 4.1227,7.19116 4.24693,6.1434 11.20479,9.51635 19.04586,9.23285 2.13538,-0.0772 2.52016,-0.0236 2.59454,0.36157 0.0537,0.2781 -0.15961,0.51838 -0.55399,0.62401 -0.84713,0.22691 -5.00758,0.16494 -6.83161,-0.10177 z m -3.85401,-24.7618 c -2.45601,-4.50408 -6.80053,-9.05525 -11.81553,-12.37755 -3.11319,-2.06241 -11.97509,-6.5667 -17.18601,-8.73524 -1.67802,-0.69831 -3.08418,-1.23642 -3.1248,-1.1958 -0.0406,0.0406 0.84456,0.886 1.96709,1.8786 1.12252,0.99259 4.16101,3.76959 6.75219,6.1711 10.2963,9.54261 16.29551,13.82679 21.8716,15.61906 2.64541,0.85028 2.70973,0.79331 1.53546,-1.36017 z m -4.60479,-7.4299 c 0,-0.0579 -0.21974,-0.27767 -0.4883,-0.4883 -0.44257,-0.34708 -0.45243,-0.33721 -0.10536,0.10535 0.36453,0.4648 0.59366,0.61261 0.59366,0.38295 z m -39.69786,-5.3648 c -0.0927,-0.0927 -0.33338,-0.10261 -0.53481,-0.022 -0.22258,0.0891 -0.15647,0.15518 0.16858,0.16858 0.29415,0.0121 0.45896,-0.0539 0.36623,-0.14656 z m -4.46447,-0.27903 c -0.0927,-0.0927 -0.3334,-0.10261 -0.53481,-0.022 -0.2226,0.0891 -0.15649,0.1552 0.16857,0.16858 0.29414,0.0121 0.45896,-0.0538 0.36624,-0.14655 z m 24.63022,-1.05289 c 0,-0.0579 -0.21974,-0.27768 -0.4883,-0.4883 -0.44257,-0.34708 -0.45244,-0.33721 -0.10536,0.10535 0.36452,0.4648 0.59366,0.61261 0.59366,0.38295 z m -4.46449,-4.18546 c 0,-0.0579 -0.21974,-0.27767 -0.4883,-0.4883 -0.44255,-0.34708 -0.45243,-0.33721 -0.10536,0.10536 0.36452,0.46479 0.59365,0.6126 0.59365,0.38294 z m -42.13356,-3.34836 c 0,-0.0579 -0.21974,-0.27767 -0.48831,-0.4883 -0.44255,-0.34708 -0.45242,-0.33721 -0.10535,0.10536 0.36452,0.46479 0.59366,0.61259 0.59366,0.38294 z m 20.57267,-1.73741 c -0.0927,-0.0927 -0.33338,-0.10262 -0.53481,-0.022 -0.22258,0.0891 -0.15647,0.15519 0.16858,0.16857 0.29415,0.0121 0.45895,-0.0539 0.36623,-0.14654 z m -22.52588,-0.20671 c 0,-0.0529 -0.28252,-0.33547 -0.62781,-0.62782 l -0.62783,-0.53155 0.53155,0.62781 c 0.49952,0.59 0.72409,0.75485 0.72409,0.53156 z m 12.35241,-0.0868 c -0.18892,-0.0765 -0.56561,-0.0811 -0.83709,-0.0105 -0.2715,0.0708 -0.11693,0.13328 0.34347,0.13896 0.4604,0.005 0.68253,-0.0522 0.49362,-0.12863 z m -4.31441,-10.56701 c -0.0859,-0.0859 -0.24194,0.069 -0.34672,0.34413 -0.15142,0.39768 -0.11937,0.42973 0.15619,0.15621 0.1907,-0.18928 0.27644,-0.41443 0.19053,-0.50034 z m -0.74762,-0.0624 c 0.34708,-0.44255 0.33721,-0.45242 -0.10536,-0.10535 -0.46479,0.36452 -0.6126,0.59365 -0.38295,0.59365 0.0579,0 0.27767,-0.21974 0.4883,-0.4883 z m -7.01135,-10.49922 c 0,-0.0579 -0.21974,-0.27769 -0.4883,-0.48831 -0.44256,-0.34707 -0.45243,-0.3372 -0.10536,0.10535 0.36452,0.4648 0.59366,0.61261 0.59366,0.38296 z m -19.27634,-1.39199 c -3.690222,-3.24342 -5.774612,-4.65145 -10.616892,-7.17186 -2.903784,-1.51142 -6.241758,-3.41242 -7.417724,-4.22445 -4.039011,-2.78901 -7.650929,-6.877632 -8.98963,-10.176062 -0.30033,-0.739993 -0.549501,-1.157089 -0.553719,-0.92689 -0.01255,0.686124 1.494814,3.99843 2.422812,5.32387 1.179984,1.685362 4.565425,5.172492 6.762415,6.965542 2.860145,2.33429 5.339093,3.82414 10.16433,6.10877 2.466789,1.16796 5.30117,2.58275 6.298612,3.14399 1.677503,0.94389 2.222047,1.21395 1.929796,0.95709 z m 16.76507,-1.11929 c 0,-0.0579 -0.21974,-0.27768 -0.48831,-0.4883 -0.44255,-0.34707 -0.45242,-0.3372 -0.10535,0.10535 0.36452,0.4648 0.59366,0.61261 0.59366,0.38295 z M 78.300704,110.2171 c 0,-0.0579 -0.219737,-0.27768 -0.488302,-0.4883 -0.442564,-0.34708 -0.452435,-0.33721 -0.105355,0.10535 0.364523,0.4648 0.593657,0.6126 0.593657,0.38295 z m -14.23054,-4.74343 c 0,-0.0579 -0.219737,-0.27768 -0.488302,-0.48831 -0.442563,-0.34707 -0.452435,-0.3372 -0.105354,0.10536 0.364523,0.46479 0.593656,0.61261 0.593656,0.38295 z m -2.790298,-2.7903 c 0,-0.0579 -0.219737,-0.27768 -0.488312,-0.4883 -0.442554,-0.34708 -0.452425,-0.33721 -0.105355,0.10535 0.364513,0.4648 0.593657,0.6126 0.593657,0.38295 z m 0.558053,-2.23224 c 0,-0.0579 -0.219737,-0.27768 -0.488302,-0.488302 -0.442553,-0.34708 -0.452424,-0.33721 -0.105354,0.105362 0.364523,0.46479 0.593656,0.6126 0.593656,0.38295 z M 56.170635,89.185971 c -0.07024,-0.268565 -0.127607,-0.04883 -0.127607,0.488302 0,0.53713 0.05747,0.756867 0.127607,0.488302 0.07013,-0.268565 0.07013,-0.708039 0,-0.976604 z m 0.558053,-0.558064 c -0.07013,-0.268565 -0.127607,-0.04883 -0.127607,0.488302 0,0.537141 0.05748,0.756878 0.127607,0.488302 0.07024,-0.268565 0.07024,-0.708039 0,-0.976604 z m -0.553055,-1.531409 c -0.06676,-0.34709 -0.123884,-0.128819 -0.126984,0.485054 -0.0032,0.613863 0.05157,0.897846 0.121353,0.631063 0.06981,-0.266772 0.07235,-0.769026 0.0053,-1.116117 z m 20.368778,-1.956466 c -0.06655,-0.345298 -0.120921,-0.06275 -0.120921,0.627815 0,0.690606 0.05442,0.973124 0.120921,0.627826 0.06655,-0.345309 0.06655,-0.910343 0,-1.255641 z m 65.959419,87.870518 c -2.01594,-3.52351 -3.99556,-4.99619 -8.39709,-6.24681 -5.09971,-1.44897 -9.48982,-1.1632 -17.16035,1.11703 -3.43991,1.02259 -4.23965,1.1616 -6.69672,1.16399 -3.28914,0.003 -4.85219,-0.5557 -6.75028,-2.41369 -1.51006,-1.47816 -2.28936,-3.33023 -2.66993,-6.34526 -0.31909,-2.52798 -0.20933,-3.36526 0.44112,-3.36526 0.28068,0 0.43253,0.5898 0.55675,2.16248 0.27097,3.4305 0.84916,4.95031 2.51599,6.61356 1.15027,1.14778 1.78413,1.53444 3.13434,1.91195 2.84068,0.79424 3.99252,0.66338 10.16631,-1.15501 1.6114,-0.47461 3.8362,-1.0179 4.94399,-1.20731 1.10781,-0.18941 1.97794,-0.38062 1.93364,-0.42493 -0.0443,-0.0443 -1.13903,-0.27605 -2.43274,-0.515 -1.71301,-0.31638 -3.26811,-0.88061 -5.72291,-2.07641 -3.04957,-1.48551 -3.60267,-1.87649 -5.80491,-4.10346 -2.79659,-2.82798 -4.11025,-4.67063 -4.77183,-6.69327 -0.53732,-1.64278 -0.47899,-3.02303 0.12775,-3.02303 0.26851,0 0.48434,0.43061 0.62303,1.243 0.39111,2.29109 1.5835,4.19363 4.53019,7.22824 2.61803,2.69615 3.01339,2.98939 5.87621,4.35845 3.11883,1.49148 4.22101,1.82274 7.95236,2.39006 1.151,0.175 2.21829,0.47439 2.37175,0.66532 0.15475,0.19251 1.27339,0.42642 2.51128,0.5251 2.67197,0.213 7.03522,1.36831 8.82792,2.33746 0.71175,0.38479 1.80278,1.22096 2.42449,1.85817 1.2997,1.3321 3.11764,4.23532 3.11764,4.97881 0,0.97159 -0.80359,0.4917 -1.648,-0.98418 z m -92.392082,-2.29617 c -0.149669,-0.39366 -0.272124,-0.8912 -0.272124,-1.10566 0,-0.81026 -1.146884,-3.41124 -1.74679,-3.9615 -1.736878,-1.59312 -5.205055,-2.74365 -14.855505,-4.92812 -6.999464,-1.5844 -8.337495,-2.01193 -9.836108,-3.14284 -2.086385,-1.57447 -2.284074,-3.56181 -0.627524,-6.30841 0.613866,-1.01781 1.11612,-2.08656 1.11612,-2.37503 0,-0.28845 -0.313908,-1.4474 -0.697575,-2.57542 -1.099779,-3.23348 -0.929022,-4.4257 0.859239,-5.99915 l 0.951374,-0.83709 -0.834499,-1.67418 c -0.458975,-0.9208 -0.834972,-1.90016 -0.835549,-2.17634 -0.0015,-0.72495 0.739432,-2.04931 1.408879,-2.51822 0.721307,-0.50522 1.938434,-2.13506 1.938434,-2.59573 0,-0.19011 -0.69108,-1.20162 -1.535732,-2.24779 -2.258861,-2.79782 -2.737307,-3.91941 -2.598934,-6.09249 0.146036,-2.29346 0.666603,-2.8674 3.671069,-4.0475 4.664698,-1.83221 8.826307,-4.19397 10.805465,-6.13222 2.129647,-2.08564 2.474891,-2.90771 3.867083,-9.208 1.696147,-7.675823 3.367103,-12.041422 5.927414,-15.486175 0.684386,-0.920795 1.607162,-2.301997 2.050612,-3.069325 1.238853,-2.143669 2.396175,-3.480747 3.647829,-4.214433 1.830263,-1.072837 2.866655,-0.802215 2.901489,0.757626 0.0021,0.09386 -0.921189,0.879095 -2.051747,1.745029 -1.130558,0.865934 -2.618651,2.176425 -3.306876,2.912189 -2.671112,2.855631 -3.220694,7.566402 -1.330641,11.405637 1.145775,2.3274 4.190449,5.461732 7.350172,7.566622 2.160564,1.43927 7.879556,4.39221 11.829505,6.10801 1.288809,0.55984 2.02297,1.03899 2.02297,1.32029 0,0.24286 -0.166701,0.44156 -0.370439,0.44156 -0.476343,0 -3.463852,-1.21405 -5.622633,-2.28488 l -1.680256,-0.83349 2.790298,2.58891 c 3.408738,3.16271 7.135692,6.90074 9.847697,9.87696 1.39585,1.53185 1.657128,1.75072 0.832724,0.69758 -1.735485,-2.21698 -2.525856,-3.58279 -2.345404,-4.05301 0.276359,-0.72018 0.602621,-0.459 2.009608,1.60878 1.652509,2.42862 5.397855,6.25382 8.046246,8.21782 1.98182,1.46967 9.657531,5.60637 9.644222,5.19759 -0.0084,-0.27174 -2.745931,-3.70536 -4.910544,-6.16019 -1.526896,-1.73161 -3.129448,-3.18194 -8.855095,-8.01395 -2.776377,-2.34305 -3.612371,-3.49376 -2.538238,-3.49376 0.23678,0 1.021551,0.54087 1.743943,1.20194 0.722392,0.66107 2.506294,2.1882 3.964229,3.39365 3.46729,2.8668 5.783123,5.10995 7.930662,7.68174 3.396051,4.06692 10.206292,13.08526 10.206292,13.51548 0,0.52389 -0.58117,0.56992 -1.101372,0.0872 -0.308736,-0.28647 -0.340659,-0.24969 -0.17863,0.20583 0.3965,1.11473 0.49401,3.96179 0.2056,6.00259 -0.20157,1.42628 -0.799056,3.28437 -1.876174,5.83467 -1.544022,3.65578 -1.577516,3.79072 -1.454507,5.85964 0.265538,4.46593 3.069581,7.79247 7.683693,9.11543 0.19183,0.055 0.34879,0.2923 0.34879,0.52731 0,1.32953 -4.19882,-0.4302 -6.227943,-2.61013 -1.955043,-2.10035 -2.784224,-4.09079 -2.927101,-7.02641 -0.102824,-2.11268 -0.02963,-2.59912 0.629808,-4.18545 2.171395,-5.22358 2.641094,-6.66438 2.821473,-8.65487 0.34129,-3.7663 -0.74784,-6.64642 -3.791601,-10.02655 l -1.377311,-1.52952 0.845897,1.67994 c 2.17788,4.32524 0.844979,9.637 -3.439396,13.70633 -4.065143,3.8611 -9.387531,5.73799 -14.463933,5.10058 -3.31646,-0.41643 -5.274488,-2.00019 -5.274488,-4.26627 0,-1.43244 0.72601,-1.3461 1.124481,0.13373 0.586917,2.17965 2.369649,3.10875 5.990794,3.12217 2.610225,0.009 4.563686,-0.47188 7.291246,-1.79743 4.115121,-1.99988 7.338924,-5.59188 8.340912,-9.29354 0.617976,-2.28298 0.428591,-4.13957 -0.618513,-6.06345 -1.369855,-2.51688 -3.711936,-3.5591 -6.415536,-2.8549 -1.58358,0.41247 -2.040908,0.34661 -2.040908,-0.2939 0,-0.29326 -0.307607,-0.25839 -1.407494,0.15954 -0.77413,0.29414 -2.521343,0.65003 -3.882708,0.79089 -4.44827,0.4602 -7.094362,2.30918 -8.008101,5.59573 -0.25612,0.92118 -0.567502,1.67488 -0.691977,1.67488 -0.124464,0 -0.150966,0.3767 -0.05885,0.83709 0.132753,0.66373 0.07055,0.83709 -0.300245,0.83709 -0.700615,0 -1.276269,-1.69063 -1.276269,-3.74825 0,-1.52333 -0.129948,-2.01787 -0.813404,-3.09558 -1.107871,-1.74692 -1.525272,-3.65158 -1.287269,-5.87398 0.263028,-2.45613 1.130238,-6.00138 1.528161,-6.24731 0.242738,-0.15002 0.211131,-0.65233 -0.125097,-1.98828 -0.247441,-0.98316 -0.519951,-2.06851 -0.605584,-2.4119 -0.10293,-0.4126 -0.0095,-0.68034 0.274544,-0.78944 0.37373,-0.14342 0.382093,-0.30155 0.06359,-1.2041 -1.076,-3.04971 -2.023687,-4.31775 -5.967931,-7.98526 -2.366243,-2.20023 -4.870459,-4.23119 -6.364915,-5.16206 -4.158054,-2.58997 -7.475425,-6.141732 -8.657859,-9.269592 -0.248262,-0.656724 -0.526505,-2.324113 -0.61832,-3.705304 l -0.166933,-2.511272 -0.887327,1.813694 c -1.26018,2.575814 -2.079475,5.242572 -3.537082,11.513024 -0.70139,3.01731 -1.58484,6.09693 -1.963222,6.84363 -1.160873,2.29088 -3.641666,4.30402 -7.942938,6.44563 -2.093515,1.04236 -4.559773,2.18804 -5.480573,2.54597 -0.9208,0.35791 -1.9567,0.95007 -2.302,1.3159 -1.313824,1.39191 -0.491593,4.42688 1.872647,6.91219 0.583963,0.61387 1.20198,1.39038 1.37337,1.7256 0.748013,1.46299 0.146946,3.13603 -1.633193,4.54593 -0.618487,0.48985 -1.124521,1.04135 -1.124521,1.22557 0,0.18422 0.390526,0.56563 0.867835,0.84758 0.477308,0.28195 1.701553,1.29409 2.720543,2.24918 2.705855,2.53617 4.146571,3.49716 5.242939,3.49716 0.809345,0 0.93474,0.0929 0.93474,0.69288 0,0.55009 -0.284199,0.83689 -1.379117,1.39172 -2.231202,1.13064 -6.10358,2.15855 -7.619607,2.0226 -0.728966,-0.0654 -1.325392,-0.0899 -1.325392,-0.0544 0,0.0354 0.188344,0.51524 0.418545,1.06619 0.703997,1.68491 0.535424,2.88318 -0.697576,4.95862 -1.254746,2.11205 -1.350533,2.78843 -0.575008,4.06031 0.89833,1.47326 3.324001,2.38931 10.617622,4.00972 10.373815,2.30472 14.083125,3.67913 15.571829,5.76981 0.5706,0.80134 1.730514,4.45086 1.730514,5.44484 0,0.75057 -0.814489,0.58968 -1.123026,-0.22182 z m 28.82061,-15.66443 c -0.343189,-0.0662 -0.971015,-0.0679 -1.395155,-0.004 -0.42414,0.0641 -0.143352,0.11833 0.623987,0.12043 0.767329,0.002 1.114356,-0.0504 0.771168,-0.11662 z m -5.933235,-1.30409 c 0,-0.0579 -0.219726,-0.27768 -0.488302,-0.4883 -0.442553,-0.34708 -0.452424,-0.33721 -0.105355,0.10535 0.364513,0.4648 0.593647,0.61261 0.593647,0.38295 z m 26.140416,-6.92271 c -0.08911,-0.2226 -0.155185,-0.15649 -0.168579,0.16857 -0.01213,0.29414 0.05379,0.45895 0.146559,0.36623 0.0927,-0.0927 0.102612,-0.33339 0.02204,-0.5348 z m -69.04861,-2.7557 c 1.423587,-0.4678 2.902248,-1.09631 3.285914,-1.3967 0.383667,-0.30038 0.499494,-0.47659 0.257392,-0.39157 -0.242102,0.085 -0.78111,0.025 -1.197798,-0.13347 -0.862283,-0.32784 -4.084653,-2.855 -5.337772,-4.18617 -1.037546,-1.10216 -2.614413,-2.10069 -2.874736,-1.82037 -0.107028,0.11525 -0.03686,0.26586 0.15593,0.33469 0.192789,0.0689 0.279552,0.23998 0.192805,0.38034 -0.08675,0.14036 -0.01734,0.2552 0.154244,0.2552 0.171582,0 0.242494,0.11241 0.157586,0.2498 -0.08491,0.13738 0.04628,0.32679 0.291513,0.42089 0.262313,0.10061 0.377849,0.34843 0.280623,0.6018 -0.0909,0.23687 -0.05019,0.35955 0.09047,0.27262 0.140659,-0.0869 0.336028,0.0949 0.434152,0.40405 0.09812,0.30917 0.271511,0.56212 0.385303,0.56212 0.113793,0 0.450632,0.20008 0.748531,0.44461 0.297898,0.24453 0.05476,0.17654 -0.540302,-0.1511 -1.06582,-0.58683 -1.079752,-0.58736 -0.935465,-0.0356 0.08056,0.30805 0.06517,0.53771 -0.03419,0.51035 -0.09936,-0.0273 -0.454669,0.1024 -0.789575,0.28828 -0.661814,0.36737 -1.068803,1.2699 -0.970566,2.1523 0.294158,2.64228 1.340911,2.84974 6.245932,1.23793 z m -5.362683,-0.12019 c -0.604691,-0.72862 0.01271,-1.03558 1.560829,-0.77603 0.916626,0.15366 1.36765,0.36517 1.36765,0.64136 0,0.61353 -2.438017,0.72563 -2.928479,0.13467 z m 47.519336,-7.08105 c 0.490084,-0.51742 1.644441,-1.30209 2.565246,-1.74372 0.920794,-0.44162 1.507902,-0.80305 1.30467,-0.80317 -0.203222,-1.2e-4 -1.098833,-0.69588 -1.990246,-1.54614 l -1.620744,-1.54594 -1.027446,3.12264 c -0.565099,1.71744 -1.090797,3.76293 -1.168215,4.5455 l -0.140768,1.42287 0.593224,-1.25564 c 0.326273,-0.69059 0.994195,-1.67898 1.484279,-2.1964 z m -2.469088,-1.09829 c 0.111282,-0.50667 -0.02658,-1.2213 -0.390245,-2.02297 -0.39866,-0.87879 -0.572417,-1.8892 -0.59701,-3.47178 -0.02984,-1.92377 -0.07045,-2.09729 -0.293243,-1.25564 -0.467885,1.76726 -0.413383,5.34014 0.09892,6.48745 0.556376,1.24589 0.946569,1.33273 1.181534,0.26294 z m 13.963293,-2.93394 1.674181,-0.7242 -1.116117,-0.0156 c -3.266462,-0.0456 -7.671177,-1.95398 -10.123054,-4.38587 -1.561032,-1.54831 -2.844599,-3.8904 -2.849124,-5.1987 -0.0042,-1.26027 0.838641,-0.82426 1.318802,0.6821 1.22666,3.84834 6.092279,7.21209 11.095312,7.67054 l 1.674181,0.15341 -2.092721,-1.16013 c -3.172254,-1.75856 -7.038395,-4.8245 -9.431635,-7.47951 -1.181471,-1.31069 -2.86546,-3.14633 -3.742214,-4.07921 l -1.594105,-1.69614 1.105413,3.06934 c 1.964956,5.45595 3.596984,8.47208 5.895543,10.89544 3.163068,3.33482 4.721855,3.76682 8.185538,2.26852 z m 4.138523,0.35808 1.442084,-0.011 -0.928419,-0.40323 c -0.849398,-0.3689 -1.015645,-0.35471 -1.953208,0.16683 -0.563643,0.31353 -0.79479,0.49989 -0.513676,0.41415 0.281126,-0.0857 1.160063,-0.16083 1.953219,-0.16683 z m -16.853873,-1.17512 c 0.350771,-1.25284 0.170624,-2.59427 -0.646355,-4.81311 -0.407752,-1.1074 -0.411084,-1.09325 -0.426808,1.8137 -0.02267,4.18955 0.405157,5.38529 1.073163,2.99941 z m 5.321048,0.2436 c 0,-0.0579 -0.219726,-0.27767 -0.488302,-0.48831 -0.442553,-0.34707 -0.452424,-0.3372 -0.105354,0.10536 0.364512,0.46479 0.593646,0.6126 0.593646,0.38295 z m -1.116117,-0.25846 c 0,-0.0466 -0.470859,-0.51749 -1.046366,-1.04636 l -1.046355,-0.96159 0.961586,1.04637 c 0.89502,0.97393 1.131135,1.17465 1.131135,0.96158 z m 5.441737,-5.28412 c 0.125593,0.11376 0.134251,0.0438 0.0193,-0.1555 -0.161101,-0.27916 -0.299465,-0.28733 -0.6028,-0.0355 -0.216531,0.17972 -0.393704,0.38953 -0.393704,0.46627 0,0.0768 0.168504,-2.8e-4 0.374468,-0.17126 0.205954,-0.17093 0.477208,-0.21769 0.60279,-0.10388 z m -2.930465,-9.80408 c 0,-0.0579 -0.219737,-0.27768 -0.488302,-0.4883 -0.442554,-0.34708 -0.452425,-0.33721 -0.105355,0.10535 0.364523,0.46479 0.593657,0.6126 0.593657,0.38295 z m -13.393449,-5.02255 c 0,-0.0579 -0.219737,-0.27767 -0.488302,-0.4883 -0.442553,-0.34708 -0.452424,-0.33721 -0.105355,0.10536 0.364524,0.46479 0.593657,0.61259 0.593657,0.38294 z M 62.67501,110.2352 c 0,-0.048 -0.408078,-0.45611 -0.906842,-0.90686 l -0.906852,-0.81953 0.819541,0.90685 c 0.763923,0.84531 0.994153,1.0351 0.994153,0.81954 z M 51.670873,82.349733 52.49041,81.442881 51.583563,82.262423 c -0.845311,0.763922 -1.035105,0.994152 -0.819538,0.994152 0.04803,0 0.456103,-0.408078 0.906848,-0.906842 z m 27.106121,69.695517 c -2.421272,-0.92739 -3.545626,-2.30276 -3.545626,-4.33719 0,-2.00618 0.318374,-2.28803 2.463677,-2.18105 l 1.861289,0.0928 0.456158,-1.37539 c 0.533175,-1.60759 1.108165,-2.11248 2.405822,-2.11248 1.789871,0 2.500166,-0.88013 1.632629,-2.02297 -0.203875,-0.26857 -0.576572,-0.4883 -0.828221,-0.4883 -0.709336,0 -0.54234,-0.93238 0.3098,-1.72965 1.392919,-1.30323 2.496908,-1.68909 4.472758,-1.56328 1.689494,0.10758 1.871961,0.18727 2.863878,1.25066 1.38464,1.4844 1.669035,3.09807 0.999236,5.66965 -0.88748,3.40731 -3.314236,6.42878 -6.591507,8.20682 -1.809191,0.98155 -4.775218,1.25095 -6.499893,0.59037 z m 5.801883,-1.55311 c 1.954558,-0.9277 4.431302,-3.48043 5.434049,-5.60074 1.496302,-3.16393 1.38405,-5.36911 -0.347481,-6.82609 -0.752268,-0.63301 -1.073289,-0.72011 -2.283372,-0.6196 -0.774426,0.0643 -1.745735,0.33833 -2.158486,0.60892 l -0.750444,0.49198 0.540125,0.88582 c 0.297071,0.48721 0.5406,1.10556 0.54118,1.37413 5.48e-4,0.26856 0.177099,0.4883 0.392291,0.4883 0.530728,0 1.003897,1.46591 1.003897,3.11016 0,1.16233 -0.142024,1.50991 -1.009076,2.46963 -0.554984,0.61431 -1.175396,1.11693 -1.378681,1.11693 -0.787271,0 -0.686462,-0.62452 0.272066,-1.68551 0.775344,-0.8582 0.998614,-1.34094 0.995302,-2.15195 -0.0063,-1.56063 -0.283224,-1.85088 -1.273031,-1.33472 -0.44848,0.23388 -1.048771,0.426 -1.333977,0.42695 -0.415608,0.001 -0.483272,0.14227 -0.340848,0.70974 0.491382,1.95783 -1.210767,4.31452 -3.116212,4.31452 -1.032277,0 -2.023539,-0.63627 -2.023539,-1.29888 0,-0.2143 -0.299254,-0.3753 -0.697578,-0.3753 -0.612534,0 -0.697577,0.12025 -0.697577,0.98642 0,1.38008 0.720884,2.33065 2.360158,3.11215 1.752918,0.83568 3.834724,0.76376 5.871234,-0.20286 z m -3.557194,-3.96546 c 0.730913,-0.78306 1.042442,-1.96897 0.685017,-2.60766 -0.228965,-0.40913 -0.303146,-0.33541 -0.471112,0.46809 -0.261837,1.25253 -0.869003,2.18085 -1.625765,2.48568 -0.59063,0.2379 -0.586959,0.24693 0.107148,0.26402 0.403639,0.009 0.975581,-0.25754 1.304712,-0.61013 z m 86.847717,-1.91406 c -4.48093,-0.5218 -11.26758,-2.15891 -14.97163,-3.61154 -1.2038,-0.4721 -3.50714,-1.33915 -5.11854,-1.92677 -15.6206,-5.69634 -23.64049,-10.38248 -31.11984,-18.18378 -6.37901,-6.65361 -10.54853,-13.65633 -14.51619,-24.380022 -1.02206,-2.762391 -2.279632,-5.940139 -2.794622,-7.061646 -2.06804,-4.503795 -4.982633,-7.90399 -8.072976,-9.418009 -1.44258,-0.706742 -1.97333,-0.816009 -3.836664,-0.789802 -1.623582,0.02278 -2.162484,-0.06159 -2.162484,-0.338971 0,-0.659115 1.138075,-1.010783 2.897953,-0.895494 4.362668,0.285818 8.43436,3.620492 11.375571,9.316472 0.865862,1.676839 2.477932,5.497283 3.582372,8.489875 2.53976,6.881727 4.69706,11.313487 7.68571,15.788767 2.90539,4.35065 5.5844,7.53379 9.05285,10.75639 7.19408,6.68416 12.92459,9.83268 28.63591,15.73348 7.31452,2.74716 9.67909,3.51168 13.22391,4.27562 4.79656,1.0337 6.49608,1.23294 11.9983,1.40667 4.57415,0.14442 5.44109,0.23848 5.44109,0.59033 0,0.35364 -0.71393,0.42425 -4.604,0.45533 -2.5322,0.0203 -5.54573,-0.0729 -6.69672,-0.2069 z M 95.879605,82.607647 c 0,-0.04999 -0.345298,-0.395286 -0.767339,-0.767339 l -0.767329,-0.676454 0.676454,0.767329 c 0.632255,0.717193 0.858214,0.895294 0.858214,0.676464 z M 47.966528,119.97338 c -0.953471,-0.35428 -2.060248,-0.85819 -2.459504,-1.11979 -0.504815,-0.33077 -0.987799,-0.41813 -1.585701,-0.28681 -0.775878,0.17041 -0.844744,0.13135 -0.705708,-0.40033 0.08474,-0.32404 0.04026,-0.58916 -0.09884,-0.58916 -0.1391,0 -0.267763,0.40808 -0.285921,0.90685 l -0.03301,0.90685 -0.213004,-0.83709 -0.213003,-0.83709 -0.06538,0.83709 c -0.04877,0.62433 -0.10082,0.69525 -0.204808,0.27903 -0.07668,-0.30694 -0.281854,-0.6484 -0.455934,-0.75882 -0.23529,-0.14925 -0.23336,-0.33501 0.0075,-0.72391 0.289188,-0.4669 0.248698,-0.50874 -0.376533,-0.38922 -0.570387,0.10903 -0.681546,0.0362 -0.598212,-0.39222 0.08445,-0.4341 0.369965,-0.53173 1.632169,-0.5581 1.509362,-0.0315 1.528622,-0.0426 1.440537,-0.8245 -0.0491,-0.43588 -0.326743,-0.95885 -0.616974,-1.16214 -0.635268,-0.44495 -1.096236,-1.96016 -0.903335,-2.96927 0.200568,-1.0492 0.817834,-0.90319 1.033117,0.24436 0.100767,0.53713 0.27983,0.97661 0.39792,0.97661 0.118089,0 0.424277,-0.43948 0.680417,-0.97661 0.566419,-1.18779 0.904328,-1.21115 2.351904,-0.16252 1.500791,1.08717 3.672553,4.69695 4.294617,7.13827 0.652958,2.56257 0.681029,2.37317 -0.349377,2.35723 -0.516657,-0.008 -1.71949,-0.30441 -2.672958,-0.65871 z m 1.126015,-1.36719 c -1.152313,-1.46214 -2.070568,-2.48779 -2.139141,-2.38933 -0.04014,0.0577 -0.279219,0.43517 -0.531286,0.83895 l -0.458304,0.73416 1.589118,0.72541 c 1.96193,0.89559 2.1842,0.9087 1.539613,0.0908 z m 0.890405,-1.97013 c -0.804146,-1.81832 -2.37628,-4.30985 -3.168837,-5.022 -0.319601,-0.28718 -0.770977,-0.44928 -1.003055,-0.36022 -0.320083,0.12282 -0.08768,0.50511 0.962604,1.5834 0.761509,0.78181 1.893978,2.29372 2.516601,3.35979 0.622622,1.06608 1.182373,1.93832 1.243891,1.93832 0.06151,0 -0.186523,-0.67468 -0.551204,-1.49929 z m -1.660693,-0.6995 c -0.560206,-1.08332 -1.811045,-2.54473 -2.178073,-2.54473 -0.16361,0 -0.09862,0.21974 0.144435,0.48832 0.243048,0.26856 0.482247,0.60582 0.531549,0.74946 0.09947,0.28979 1.67158,2.11058 1.82233,2.11058 0.05243,0 -0.09168,-0.36163 -0.320241,-0.80363 z m -2.319287,0.0364 c 0.0613,0.1839 0.187083,0.0451 0.279515,-0.3083 0.12631,-0.48301 0.06914,-0.6047 -0.230125,-0.48987 -0.219002,0.0841 -0.398187,0.0417 -0.398187,-0.0942 0,-0.13587 0.154297,-0.29845 0.342882,-0.36132 0.249186,-0.0831 0.203152,-0.32755 -0.168457,-0.89469 -0.281238,-0.42922 -0.372753,-0.69475 -0.203368,-0.59007 0.169386,0.10472 0.307973,0.0618 0.307973,-0.0953 0,-0.15711 -0.242695,-0.41556 -0.539323,-0.57431 -0.438164,-0.23451 -0.572534,-0.184 -0.716379,0.26922 -0.09738,0.30681 -0.38833,0.56804 -0.646554,0.5805 -0.28087,0.0136 -0.133182,0.17076 0.367591,0.39128 0.922552,0.40624 1.052771,0.83883 0.503046,1.67112 -0.56019,0.84812 -0.432947,1.09394 0.3132,0.60505 0.492624,-0.32278 0.707053,-0.35245 0.788186,-0.10905 z m 7.58219,-5.98259 c -2.571144,-2.13815 -4.016698,-2.51159 -6.814866,-1.76053 -2.143579,0.57536 -4.074546,0.55198 -4.306373,-0.0522 -0.286406,-0.74637 0.978808,-1.78534 2.526117,-2.07441 1.696954,-0.31703 5.398091,0.1543 6.790745,0.86479 1.026817,0.52384 3.639451,3.11182 3.639451,3.60511 0,0.65871 -0.553539,0.48291 -1.835074,-0.5828 z m -7.233411,-2.43126 c 2.124426,-0.44144 2.389246,-0.5538 1.719127,-0.72936 -1.665678,-0.43638 -4.648944,0.21541 -4.648944,1.01571 0,0.3213 0.01055,0.32027 2.929817,-0.28635 z m 22.686364,-6.79332 c -1.803739,-3.121762 -3.02809,-5.784127 -4.053575,-8.814526 -0.896612,-2.649583 -1.007989,-3.294546 -1.0196,-5.904318 -0.01055,-2.337831 0.103668,-3.219152 0.564824,-4.361792 0.674028,-1.670216 1.95731,-3.45106 2.486868,-3.45106 0.705065,0 0.707786,0.560089 0.0074,1.478637 -1.514978,1.986227 -1.970186,3.474598 -1.937304,6.334215 0.04408,3.831349 1.449635,7.948675 4.583576,13.426562 1.506931,2.633992 1.622948,3.036212 0.875762,3.036212 -0.319934,0 -0.863076,-0.62823 -1.507722,-1.74393 z"
       id="path24" />
  </g>
</svg>
