<?xml version="1.0" encoding="UTF-8" standalone="no"?>
<svg
   xmlns:dc="http://purl.org/dc/elements/1.1/"
   xmlns:cc="http://creativecommons.org/ns#"
   xmlns:rdf="http://www.w3.org/1999/02/22-rdf-syntax-ns#"
   xmlns:svg="http://www.w3.org/2000/svg"
   xmlns="http://www.w3.org/2000/svg"
   xmlns:sodipodi="http://sodipodi.sourceforge.net/DTD/sodipodi-0.dtd"
   xmlns:inkscape="http://www.inkscape.org/namespaces/inkscape"
   sodipodi:docname="tom.svg"
   inkscape:version="1.0 (4035a4fb49, 2020-05-01)"
   id="svg8"
   version="1.1"
   viewBox="0 0 210 297"
   height="297mm"
   width="210mm">
  <defs
     id="defs2" />
  <sodipodi:namedview
     inkscape:window-maximized="1"
     inkscape:window-y="-8"
     inkscape:window-x="-8"
     inkscape:window-height="1017"
     inkscape:window-width="1920"
     showgrid="false"
     inkscape:document-rotation="0"
     inkscape:current-layer="layer1"
     inkscape:document-units="mm"
     inkscape:cy="555.07132"
     inkscape:cx="126.35992"
     inkscape:zoom="0.7"
     inkscape:pageshadow="2"
     inkscape:pageopacity="0.0"
     borderopacity="1.0"
     bordercolor="#666666"
     pagecolor="#ffffff"
     id="base" />
  <metadata
     id="metadata5">
    <rdf:RDF>
      <cc:Work
         rdf:about="">
        <dc:format>image/svg+xml</dc:format>
        <dc:type
           rdf:resource="http://purl.org/dc/dcmitype/StillImage" />
        <dc:title></dc:title>
      </cc:Work>
    </rdf:RDF>
  </metadata>
  <g
     id="layer1"
     inkscape:groupmode="layer"
     inkscape:label="图层 1">
    <path
       id="path2312"
       d="m 18.894482,260.95282 h 0.36748 c 0.30753,-2.43139 0.37574,-5.60885 1.73726,-7.71664 3.10261,-4.80305 13.49912,-6.9003 18.84122,-6.13702 16.11773,2.30281 32.28837,11.30986 47.77147,1.23284 3.25471,-2.11834 6.672577,-4.96912 8.084408,-8.69261 6.19449,4.35937 15.35191,10.91292 23.51826,6.98198 -3.0368,-5.04452 -2.94346,-8.68081 -2.93978,-14.33144 h 0.36747 l 2.20484,2.20484 c 1.12079,-14.18262 13.38483,-20.73172 21.98076,-30.50025 6.38227,-7.25318 9.09422,-14.9951 12.91814,-23.51826 2.00015,-4.45818 5.39377,-7.12457 5.14094,-12.49408 -0.29214,-6.20258 -5.9751,-7.8099 -9.20005,-12.12808 -6.01553,-8.05574 -8.4809,-18.13441 -15.40593,-25.72163 l 1.10242,-0.36747 -5.14462,-8.81935 h 0.73494 c -1.10131,-4.74701 -4.10724,-6.57556 -8.81935,-6.61451 l 3.30726,-10.65671 h -0.36747 c -2.96992,5.21885 -2.62082,9.78764 -8.45188,12.49407 l 0.36747,-1.10242 -4.0422,1.83737 -2.57231,-16.53629 h -0.36747 c -0.0195,2.34301 -0.5299,4.6298 -0.305,6.98199 0.56517,5.91632 3.55015,12.01784 -1.98252,16.69209 -1.84067,1.55478 -5.25854,0.40679 -7.26678,-0.31566 -5.185403,-1.86529 -10.952888,-4.1054 -16.536278,-4.24431 -7.7636,-0.19329 -13.20036,2.6572 -20.211,5.31072 -3.76917,1.42653 -8.15019,2.69394 -10.98414,5.72265 -1.87742,2.00641 -2.30809,5.19717 -3.35355,7.6879 -0.61038,1.45446 -2.00494,2.4268 -2.91884,3.69053 -2.59969,3.59499 -2.94225,5.8781 -7.73163,5.8781 l 1.10242,-10.65671 h -0.36748 c -0.88057,2.27024 -1.97575,9.38893 -3.83266,10.64642 -1.80937,1.22552 -6.33663,0.40202 -8.29394,-0.14699 -7.7894,-2.18536 -13.45881,-8.61172 -17.6387,-15.27658 -1.24809,1.64775 -0.4745,3.64423 -0.0774,5.51209 0.9966,4.68822 2.48808,8.88366 4.51771,13.22903 2.35304,5.03768 5.74882,9.46647 9.89116,13.16508 2.09077,1.86713 5.03276,3.39986 6.72368,5.64365 1.32511,1.75872 1.46843,4.47729 2.06248,6.54689 0.89752,3.12683 2.34297,6.21434 3.65717,9.18683 1.27755,2.88944 5.02986,7.48909 4.98157,10.65671 -0.0261,1.71169 -2.35576,3.2514 -3.39828,4.40967 -3.13032,3.4785 -6.20393,7.25686 -8.97953,11.02419 -7.70234,10.45424 -12.39655,22.56026 -12.39655,35.64487 0,4.62777 -0.006,9.38419 2.20484,13.5965 m -8.81935,-126.0432 11.39166,12.4305 8.45187,5.82849 5.13441,2.20998 0.37769,4.15171 0.36747,11.02419 c -4.04889,-1.39199 -4.84065,-10.4851 -5.14462,-14.33144 h -0.36747 l 0.36747,10.65671 c -2.79886,-1.23103 -4.88408,-3.70045 -6.96751,-5.87957 -6.01498,-6.29076 -13.21818,-17.0783 -13.61097,-26.09057 m 35.27739,57.69324 h -0.36747 l -1.83736,2.93978 h -0.73495 c -5.51077,-10.50898 -10.81098,-21.4266 -11.75913,-33.44003 h 0.36747 l 3.74958,13.22903 5.80472,12.1266 h 0.36747 c -0.60144,-2.53225 -1.93853,-4.79221 -2.49463,-7.34946 -2.58469,-11.88554 -3.12568,-24.0849 -0.81263,-36.01234 h 0.36748 c -0.30273,7.04923 -1.39364,13.88754 -0.072,20.94596 0.40609,2.16882 0.42186,4.90576 1.90939,6.61451 0,-8.21412 1.23735,-16.0593 4.87232,-23.51827 1.20384,-2.46978 2.88172,-5.84722 5.15969,-7.49387 1.25786,-0.90913 3.20068,-0.36968 4.6669,-0.958 -2.05821,-0.53982 -3.57845,-0.87165 -3.30725,-3.30726 5.58558,0.28957 8.59886,1.58344 13.96397,-1.46989 -1.73227,-0.549 -5.27471,-0.49352 -6.22059,-2.28752 -0.91684,-1.73851 1.39015,-3.53325 2.54622,-4.44863 3.4627,-2.74281 7.49094,-4.67462 11.75877,-5.80055 6.8835,-1.81606 13.04455,-1.38134 19.84354,0.56701 3.762918,1.07853 8.150538,3.55125 12.126598,3.44616 3.59866,-0.0956 5.04798,-4.30826 6.61451,-6.91033 h 0.73495 l 1.46989,4.77715 c -3.96907,0.95432 -4.13958,3.61446 -5.14462,6.98198 l -6.24704,-2.57231 c -0.6394,0.84482 -2.53703,1.14799 -2.707906,2.25739 -0.504539,3.27859 7.321166,3.90366 9.322416,3.98965 v 0.73495 c -3.73168,-3.7e-4 -8.09726,-0.41304 -11.391287,-2.33823 -5.249721,-3.0684 -0.137435,-5.01123 3.306887,-5.01123 v -0.36747 l -4.042201,-1.10242 0.367473,1.10242 c -3.130134,1.2325 -3.191869,3.54501 -0.36196,5.34011 3.809958,2.4165 8.331338,1.47908 12.004598,3.33225 1.02378,0.51629 1.0315,2.09753 1.21891,3.08677 l -22.415848,-3.30726 v 0.36747 c 5.73405,0 11.305309,1.04436 16.903758,2.20374 2.29413,0.47514 5.06451,0.68093 6.24704,2.94088 h 0.36747 c -0.0621,-2.99233 -1.11197,-5.80239 -1.10205,-8.81934 0.004,-1.36958 0.11098,-2.71159 0.45934,-4.04221 2.53483,-9.68474 15.48568,0.32118 17.79377,5.14462 1.28138,2.67815 2.38637,7.37114 -1.34973,8.45188 1.20458,2.1725 2.60906,4.23586 3.39986,6.61451 4.32994,13.02508 -9.93132,16.76375 -16.62888,24.98816 h -0.36747 c -1.27403,-3.19849 2.42091,-8.70323 3.67473,-11.75913 -2.76965,2.24452 -3.42338,6.4124 -4.77715,9.55429 l -5.14462,-2.20484 5.14462,-8.45187 -6.98199,7.71693 2.20484,-6.98199 h 0.73495 l 0.36747,1.46989 h 0.36747 c -0.30463,-7.09553 0.9422,-12.17805 3.67473,-18.74111 h 0.73495 c 3.14299,4.88996 4.79405,0.62617 6.74386,-2.5668 0.51152,-0.83784 1.67274,-1.67016 1.87815,-2.64029 0.29068,-1.37435 -1.74292,-3.61924 -2.46427,-4.71468 -0.70665,-1.07339 -1.80135,-2.71783 -3.21245,-2.87511 -2.02771,-0.22636 -3.28153,3.17129 -3.55971,4.71247 -0.34836,1.92924 0.0419,4.00913 -0.3366,5.87957 -0.44942,2.21954 -2.15964,4.10724 -2.87107,6.24704 -0.39025,1.17371 -0.37004,3.64864 -1.52979,4.36521 -1.15129,0.71106 -3.12756,-0.62691 -4.20242,-1.03444 -3.20473,-1.21523 -6.474501,-2.13832 -9.921768,-2.22284 -6.28121,-0.15397 -11.55959,1.20458 -17.6387,2.33933 -1.16782,0.21791 -5.11301,0.59421 -4.71247,-1.59556 0.41855,-2.28826 4.65478,-3.04452 6.18237,-4.42401 -3.43147,1.04289 -19.29858,3.17754 -13.96397,-4.0422 -2.4889,1.79657 -3.3102,4.70439 0.36784,5.67451 2.8141,0.7423 5.97364,-0.0257 8.81898,-0.16242 v 0.36747 c -2.23607,1.78298 -3.1746,3.48107 -0.36747,5.14462 v 0.73495 c -3.08641,1.7183 -8.28872,4.61362 -7.97159,8.81935 0.31676,4.20242 6.81772,5.82334 10.17642,6.444 9.92839,1.83479 20.704897,-0.80513 30.132778,-3.87169 l -0.73494,3.67473 -5.512096,1.10242 v 0.36747 c 1.301586,-0.24511 4.913476,-1.49745 5.853106,-0.14589 0.6824,0.98152 -0.40716,2.30442 -0.92125,3.08567 -1.60513,2.43782 -3.38516,5.27214 -4.196906,8.08441 h 0.367466 c 1.12888,-3.10221 3.35135,-8.41109 6.06992,-10.42043 2.77662,-2.05197 5.63372,2.25114 5.68921,4.54086 h 0.36748 l 0.36747,-0.73495 c 2.69541,5.11523 1.40522,12.8972 -3.30726,16.53628 l 0.73495,-8.0844 h -0.36747 c -0.24107,5.61058 -1.86456,9.20777 -4.40968,13.96397 l 2.20484,-1.46989 0.36747,1.83736 c 3.01181,-1.28064 7.4281,2.75972 11.02419,2.45141 11.08445,-0.94991 20.51821,-5.17953 29.7653,-11.27076 -8.35376,15.6922 -27.10737,25.35416 -30.50025,43.3618 h -0.36747 l -0.73495,-4.77715 c -5.2872,5.81049 -3.3135,12.51205 -0.36747,18.74112 -7.77021,0 -15.90459,-3.15556 -20.666305,-9.55429 -3.884923,-5.22069 -6.088663,-12.19275 -11.305303,-16.34593 -1.41477,-1.12631 -3.90073,-3.00446 -5.85789,-2.42606 -4.04367,1.19466 -0.50086,5.87516 1.44968,7.01285 v 0.36748 c -4.11973,-0.60891 -5.51172,-2.64581 -5.51209,-6.61451 -2.67336,2.6763 -1.58895,5.99274 -0.73495,9.18682 -3.56081,-1.98656 -5.78953,-6.47377 -3.30725,-9.92177 -3.15108,0.58502 -6.87726,0.28001 -8.45188,-2.93978 2.2324,1.03737 10.0265,2.83101 7.36453,-2.5668 -1.14909,-2.33015 -3.52701,-3.0695 -5.52716,-4.41519 l 1.10242,-0.36747 v -0.36747 c -13.43077,0.27707 -25.67835,10.58285 -33.51717,20.57848 -2.95838,3.77247 -5.93472,7.81688 -7.27233,12.49408 h 0.36748 c 3.53101,-12.25706 16.39418,-23.87655 27.56046,-29.11047 4.28841,-2.01045 12.55104,-4.44936 15.94723,0.48212 3.76843,5.47241 -5.27508,2.94162 -7.12788,2.1703 1.611,3.68612 4.46149,3.55199 6.71079,6.06808 0.9569,1.07045 1.01239,2.95191 1.70581,4.22116 1.70214,3.1147 3.89632,4.48758 7.01726,5.87956 -1.53713,-2.70166 -2.87143,-4.87489 -2.93978,-8.0844 h 0.36747 c 1.93622,3.33996 4.81868,4.63163 8.45188,3.30726 v -0.36748 c -1.6099,-0.5626 -3.07722,-1.30195 -3.82649,-2.94125 -0.55967,-1.22442 -0.47478,-3.15181 1.27439,-3.07905 6.05485,0.25098 8.70837,9.73693 11.52726,13.73723 0.99769,1.41551 3.465269,4.02236 3.200321,5.87957 -0.525121,3.68741 -6.998521,7.20835 -9.970641,8.71899 -8.51766,4.32953 -18.3663,4.53844 -27.56047,2.59528 -6.18089,-1.30633 -12.76637,-3.81385 -19.10859,-3.95941 -6.54028,-0.15015 -11.273,3.03375 -16.90375,5.50669 l 2.93978,-10.28924 h -0.36747 l -4.40968,15.80133 c -1.6566,-3.69016 -0.95484,-9.66571 -0.47209,-13.59649 1.51149,-12.3074 6.99404,-24.01399 14.59231,-33.80751 4.01832,-5.17916 10.01823,-10.50494 11.97036,-16.90375 m -22.78332,-45.56664 13.22902,2.57231 c -1.1e-4,1.12043 0.36439,3.23781 -0.64024,4.03045 -1.01213,0.79888 -2.78141,-0.0301 -3.76943,-0.47037 -3.09166,-1.37876 -6.78873,-3.38148 -8.81935,-6.13239 m 1.59237,93.82807 0.12252,-0.24496 -0.12252,0.24496 m 10.16676,-69.20738 c 2.65172,0.78749 2.45479,4.26379 2.93979,6.61451 h -0.36748 l -2.57231,-6.61451 m 4.0422,-15.43386 h 1.4699 l -1.10242,7.34945 -0.36748,-7.34945 m 0.22144,-2.32206 c -0.43824,-0.89517 -0.48502,-3.26169 0.15625,-4.07087 0.65039,-0.82057 2.63258,-0.80476 3.04099,0.26274 0.55091,1.43976 -1.93695,6.38264 -3.19724,3.80813 m 23.6643,31.35241 v -0.36747 c -7.53576,1.46144 -12.13322,-1.74623 -18.00617,-5.87956 2.41246,6.17611 12.40699,7.69561 18.00617,6.24703 m 1.10242,-13.59649 c -1.40044,-0.029 -2.69725,-0.22747 -4.0422,-0.63242 -10.3135,-3.10699 -3.4649,-12.29601 0.36747,-17.74123 -5.83988,0.87532 -10.34363,6.37419 -12.76674,11.39166 -1.1524,2.38674 -2.31471,5.26442 -0.57142,7.68276 3.39177,4.70475 14.28955,4.62979 17.01289,-0.70077 m -11.39166,17.27122 h 4.0422 v -0.36747 l -4.0422,0.36747 m 8.81935,24.98816 0.36747,-0.36747 -0.36747,0.36747 m 3.30726,-71.65721 5.51209,-1.83737 v -0.36747 c -2.07475,0.16977 -4.02126,0.6993 -5.51209,2.20484 m 35.644872,9.18682 v 0.36747 c -3.633576,1.19796 -3.852958,3.62439 0,5.00204 2.714516,0.9705 5.751676,0.53394 8.451866,-0.22489 -0.0235,1.09985 0.0199,1.59704 -1.10241,1.83736 3.527,2.5488 -1.81091,6.46385 -4.40968,7.11906 -8.499648,2.14347 -17.312378,3.90329 -26.090578,2.64543 -3.83678,-0.5501 -14.11022,-2.7362 -9.57524,-8.5996 0.73201,-0.94661 1.68193,-1.7951 2.59473,-2.56312 1.10793,-0.93228 2.36542,-1.69809 3.67326,-2.31728 6.32825,-2.99564 13.57041,-4.67573 20.57848,-4.35456 2.055645,0.0944 3.800774,1.06494 5.879572,1.08809 m -29.765312,-11.39166 0.36748,-0.36747 -0.36748,0.36747 m 2.20484,-0.36747 h 2.57231 v -0.36748 c -4.18,-3.37082 4.31707,-3.67472 6.24704,-3.67472 v -0.36748 c -3.20253,-0.27964 -10.66921,-3.52994 -5.50511,-6.99337 3.71368,-2.4911 8.57351,-2.56092 12.85457,-2.56092 v -0.36747 c -3.94776,-0.93927 -9.68512,0.11869 -13.22866,2.07548 -4.23733,2.34007 -2.60575,5.87736 1.10205,7.47881 v 0.36747 c -2.54475,0.86834 -3.65341,1.71463 -4.0422,4.40968 m 9.18682,-3.67473 6.24704,0.36747 v -0.36747 h -6.24704 m 7.34946,-10.28924 h 2.57231 v -0.36747 l -2.57231,0.36747 m 5.879567,-54.753469 1.102419,-1.469892 c 1.992438,1.991336 1.522808,4.089973 1.102419,6.614512 l 1.837364,1.469891 -1.469892,-0.367473 v 0.367473 l 4.425471,4.5427 7.33366,2.439285 -2.20484,7.71693 c 1.58749,-1.206781 2.66308,-3.002988 4.40968,-1.102418 5.19239,-1.72602 8.6154,-3.675096 12.86155,-7.349458 0.26862,6.256226 3.36054,15.016044 9.55429,17.638699 -1.03958,1.33025 -2.6322,2.14789 -3.4219,3.68025 -1.45226,2.81999 -0.31787,4.75473 2.68696,3.66922 0.87091,7.82019 6.72071,-0.13523 7.86282,-3.30726 0.97931,-2.71857 -1.3806,-5.847605 -1.98326,-8.451885 l 9.42936,2.247831 6.00451,7.306474 c -1.14725,0.0636 -2.60759,-0.14442 -3.55751,0.6405 -2.93096,2.42165 2.49882,6.49545 4.65992,6.90408 4.11607,0.77794 6.33707,-2.47199 9.92177,-3.06031 3.90514,-0.64124 9.70423,1.40705 13.5965,2.13024 v 0.36747 l -7.71693,1.46989 1.46989,5.14462 -5.09575,0.66219 -2.98865,-6.90922 -9.18683,1.83736 3.30726,16.16881 c -4.73636,0.26237 -0.62654,8.95641 -0.36747,12.1266 6.26063,0 12.47276,-0.36747 18.74112,-0.36747 2.71305,0 6.38851,-0.22379 8.79766,1.25639 3.67253,2.25628 -1.19906,3.42301 -1.43608,5.39781 -0.21387,1.78445 4.11092,7.30573 5.88214,7.43949 2.19491,0.16536 4.35455,-2.21697 5.48159,-3.80482 2.89275,-4.07527 4.36227,-10.66039 1.22883,-15.05022 -4.01979,-5.63189 -13.2948,-5.21995 -19.2192,-6.63031 v -0.36747 l 21.6809,-3.30726 -1.83736,-12.1266 h 1.46989 c 0.0224,-2.71012 2.77883,-9.72958 1.09213,-11.90612 -1.89396,-2.44481 -9.29192,-1.79916 -12.11632,-3.16028 3.21135,-1.0936 6.10336,-2.904874 9.18682,-4.295024 0.99108,-0.446847 3.06804,-0.784922 3.35613,-2.034697 0.31493,-1.364427 -1.16231,-3.442118 -1.63488,-4.694466 -0.46265,-1.226992 -0.90472,-3.595722 -2.23314,-4.182576 -3.54243,-1.5647 -8.09248,3.921303 -11.7933,3.318647 -1.50407,-0.244737 -3.95364,-3.139688 -4.96603,-4.280691 4.79221,-0.205785 9.62448,-1.59961 14.33144,-2.4764 1.48275,-0.27634 4.12378,-0.122368 5.29051,-1.175546 1.41073,-1.273661 -0.47404,-9.381215 -2.06704,-10.09007 -2.21806,-0.986665 -7.58207,0.574728 -9.83798,1.247938 1.71646,-3.205466 9.51203,-5.817831 9.70275,-9.568626 0.0974,-1.910124 -2.25591,-3.9044 -3.45571,-5.130289 h 5.14462 c 0,-2.174705 1.51288,-7.960932 0.32448,-9.700182 -0.82461,-1.206046 -4.86167,-0.890754 -6.20405,-0.989237 -4.50705,-0.330358 -13.06109,0.416347 -16.88942,-2.077324 -2.98829,-1.946136 -5.54774,-5.653937 -8.09873,-8.177741 -0.87716,-0.867971 -2.31876,-2.788017 -3.7225,-2.679612 -1.43425,0.110977 -2.65573,2.09386 -3.62843,2.983145 -1.14358,1.04546 -3.50018,2.412459 -3.70229,4.103202 -0.15581,1.304896 1.41073,2.253343 2.23423,3.003723 2.18096,1.986926 4.03596,4.326626 6.61415,5.817096 v 0.367472 c -3.03386,1.832955 -12.00534,5.819301 -9.5543,9.921768 l -0.36747,0.367473 c -3.61483,-1.068611 -7.75588,0.593836 -6.01112,5.090602 0.33918,0.874218 4.2987,2.045354 2.85747,3.211345 -1.38905,1.123365 -3.5711,-1.78849 -4.56328,-2.499918 -4.38248,-3.14373 -7.31565,-5.609106 -8.0844,-11.314122 h -0.36748 v 6.614512 h 0.36748 l -0.36748,-4.042202 h 0.36748 c 0.74633,2.629268 1.59079,4.989547 3.68942,6.871375 2.75899,2.473828 7.81211,4.081154 6.59982,8.562486 l -9.5543,-9.921768 h -0.36747 c 1.93879,4.491621 11.06865,7.558917 5.14462,11.636029 -0.71694,0.493516 -1.40558,1.064936 -2.20484,1.42506 -1.19833,0.540185 -2.41687,0.263478 -3.67473,0.167935 1.38501,-1.63305 3.552,-2.617877 4.29245,-4.777148 0.79191,-2.308464 -1.20714,-4.044039 -3.19003,-4.737093 -4.05139,-1.41624 -8.7679,-0.432883 -12.86155,0.327419 -0.11759,-2.729589 -1.51362,-4.791112 -1.95937,-7.349458 -0.41267,-2.3702 0.079,-4.926709 -0.43582,-7.349457 -1.39603,-6.572253 -6.10005,-12.480114 -12.30373,-15.059774 -3.29292,-1.369204 -8.91526,-3.061049 -12.04796,-0.5016 -5.003878,4.087768 1.3817,11.931844 0.50638,16.649461 -0.55967,3.015115 -4.914217,4.757671 -7.567008,4.790009 -1.37324,0.0169 -3.76255,-0.444642 -4.66029,0.895899 -3.2367,4.831533 4.4512,7.665851 5.027767,11.232176 m 3.307256,-10.656714 c 1.094334,-1.18804 3.352455,-5.65798 4.777145,-3.307256 1.22957,-5.350405 -6.639865,-19.609822 3.30726,-19.843535 l -2.87364,3.308726 0.30133,5.878096 h 0.36747 c -0.1503,-1.889178 -1.05685,-4.051756 -0.20652,-5.874054 2.14678,-4.601128 9.78874,-1.45115 12.70023,0.572523 5.48233,3.810326 9.61309,11.44678 8.81972,18.163082 l -6.24704,-3.307256 v 0.367473 c 5.30447,1.693682 10.69566,9.872158 6.98198,15.066387 l 1.83737,3.307256 1.10242,-0.367473 c -0.67505,-1.289829 -1.94467,-3.109555 -1.24684,-4.632363 1.54669,-3.375238 12.07957,-2.66969 14.42147,-0.692318 3.22348,2.721871 -1.65032,6.752314 -4.35528,7.162046 l 4.40967,5.512093 v 0.367473 l -2.57231,0.734946 v 0.367472 h 1.10242 l -2.93978,1.102419 c 0.53357,1.690743 1.08808,3.660765 -1.10242,4.042202 v 0.367473 c 2.50359,0.216809 2.06997,-1.821931 1.83736,-3.674729 l 10.65672,-3.639084 5.14462,1.801719 v -0.367472 c -4.54895,-2.054909 -6.71006,-1.201637 -11.39166,-0.734946 l -3.30726,-4.777148 c 1.32253,0.167201 2.71526,0.536878 4.0422,0.213135 1.96782,-0.479552 6.30988,-4.607375 6.98199,-0.580607 h 0.36747 c 0.23775,-2.986085 1.38794,-6.81552 4.77715,-7.349458 l -1.46989,-2.204837 1.83736,-0.367473 v -0.367473 c -1.48349,0.117224 -7.27523,0.695994 -4.40967,-2.204837 v -0.367473 c -1.22112,-1.867497 0.96976,-2.558714 2.57231,-2.56937 2.64213,-0.0169 5.41802,1.079635 7.27081,3.004825 1.13991,1.184365 2.04499,2.924717 0.44612,3.974219 1.38169,3.057375 -1.76314,7.814679 -2.3816,11.024187 -0.37886,1.965612 0.3796,3.92167 0.51116,5.879566 0.28663,4.26048 -0.27377,7.167926 1.13549,11.391659 0.9422,2.824029 3.57,7.459338 2.20484,10.289248 2.23901,1.45887 -0.30133,3.80482 -1.83737,4.78817 -2.62008,1.67752 -6.16325,1.38133 -8.81935,-0.011 l 0.36748,-1.10242 c -1.5026,-0.24547 -2.99527,-2.37387 -0.69453,-2.78471 1.71353,-0.30574 3.98525,0.64639 5.83915,0.57987 v -0.36747 l -3.67473,-0.36747 2.93978,-2.20484 v -0.36747 c -4.05028,0.73752 -6.29591,-2.85601 -7.71693,-6.247051 l 7.34946,-5.14462 c -9.4029,6.962871 -18.8554,2.724444 -27.193,-4.042202 l 6.4565,5.655408 1.99538,4.26636 c -1.65142,-0.75038 -3.21098,-2.51131 -4.40967,-0.367473 h 0.36747 l 0.36747,-1.102419 c 2.36653,0.821302 5.63189,3.837147 4.98881,6.614517 -0.40569,1.75432 -1.78224,2.94861 -2.04902,4.77715 l -1.4699,-0.36747 -0.36747,2.20484 c -1.91453,-1.10757 -2.1861,-2.68329 -2.20484,-4.77715 h -0.36747 c -0.80146,1.49047 -3.47041,2.78067 -2.69284,-0.006 0.56922,-2.03948 2.55945,-3.55017 4.16273,-4.77165 -4.02346,-2.272818 -7.86796,-8.857932 -9.17139,-13.229021 -0.54312,-1.821563 -1.57168,-5.073698 0.71952,-5.879566 V 82.36052 l -2.93979,0.367473 c -0.32925,1.771586 -1.88734,2.234602 -3.24478,3.232291 -2.63442,1.936582 -5.90933,5.069656 -9.49587,2.996374 -2.10194,-1.215233 -0.6383,-3.92461 -2.39482,-4.968233 -2.72812,-1.621291 -7.72575,-1.62717 -7.64785,-6.03758 l 1.10242,0.367473 c 0.75626,-1.038478 1.34606,-0.994381 2.57231,-0.734946 V 77.215899 C 102.45162,76.7301 96.199071,77.156739 98.636151,73.908644 V 73.541641 C 96.896534,71.24567 97.620456,66.623964 98.268678,63.987346 h -0.367473 l -1.837364,3.674729 -0.734946,-0.734946 -0.367473,1.102419 c -1.14137,-0.420389 -2.04719,-0.969761 -2.93978,-1.837365 -0.66917,-0.650427 -1.36994,-1.317758 -1.715,-2.204837 -1.60181,-4.119004 0.41745,-4.750322 3.91983,-4.409675 1.327684,0.128983 3.48622,-0.820934 3.674733,0.734946 m -3.307256,97.747793 v -0.36747 c -4.569897,-3.29917 -0.09334,-4.03228 1.837365,-6.61451 -3.899252,1.13108 -7.532462,5.15821 -1.837365,6.98198 m -2.939787,-31.97014 h 1.4699 v -0.36747 l -1.4699,0.36747 m 1.10242,72.39216 h 0.36748 v -1.10242 l -0.36748,1.10242 m 0.48984,-2.08247 0.12274,-0.24474 -0.12274,0.24474 m 0.36748,-1.10242 0.12273,-0.24474 -0.12273,0.24474 m 0.2451,-0.85731 0.36747,-0.36748 -0.36747,0.36748 m 0.489843,-0.98005 0.122736,-0.24474 -0.122736,0.24474 m 0.245104,-0.85732 0.367473,-0.36747 -0.367473,0.36747 m 0,-128.982987 2.939783,-1.837364 -2.939783,1.837364 m 0.367473,94.808007 0.367473,-0.36747 -0.367473,0.36747 m 0.734946,31.60267 h 0.367473 l 0.734946,-2.57231 h -0.367473 l -0.734946,2.57231 m 0.612577,-31.35756 0.244737,-0.12274 -0.244737,0.12274 m -0.245104,-90.27597 1.102418,-1.102418 -1.102418,1.102418 m 0.734946,118.69375 0.367472,-0.36747 -0.367472,0.36747 m 0,-125.675734 1.102418,-1.102419 -1.102418,1.102419 m 0.367472,124.940784 0.367473,-0.36747 -0.367473,0.36747 m 0.367473,-0.73494 0.367473,-0.36748 -0.367473,0.36748 m 0.245105,-26.58042 0.244737,-0.12273 -0.244737,0.12273 m 0.489841,25.11053 0.367473,-0.36748 -0.367473,0.36748 m 0.367473,-0.73495 0.367473,-0.36747 -0.367473,0.36747 m 0.367473,-0.73495 0.73495,-1.10241 h -0.367477 l -0.367473,1.10241 M 100.4735,66.192183 h 0.36748 c 0.47624,-1.577928 1.35083,-1.879991 2.93978,-1.837364 -1.71683,-1.272191 -3.01989,-0.004 -3.30726,1.837364 M 110.76274,84.9333 h 0.36748 l 1.10242,-1.837365 c -4.79369,-0.851434 -6.84345,-1.86125 -10.65672,-4.777147 0.85327,2.200795 2.54696,3.639819 4.77715,4.422169 1.72749,0.605962 3.85112,0.07166 4.40967,2.192343 M 101.9434,70.601858 c 3.06362,0.47698 4.63236,4.780822 7.34945,6.442534 1.13329,0.693054 3.28925,1.029659 4.03045,2.167355 0.85988,1.319963 -0.15287,2.623022 -1.45814,2.78177 v 0.367473 l 1.10242,0.367473 -0.36747,2.57231 c 4.6331,-0.51777 1.10719,-4.649267 1.83736,-7.716931 -2.07475,-0.565908 -4.59047,-0.848862 -6.24557,-2.275759 -0.63536,-0.547535 -4.62391,-4.979625 -2.13612,-5.391195 1.60917,-0.266418 3.48107,1.714996 4.70696,2.522334 -1.93952,-2.745757 -4.06976,-3.665542 -7.34945,-3.674729 l 0.36747,1.102419 -1.83736,0.734946 m 0,-2.57231 0.36747,-0.367473 -0.36747,0.367473 m 16.90375,-15.801334 h -0.36747 c -0.0397,4.36815 -3.30028,5.65063 -6.98199,3.539866 -3.54097,-2.02992 -5.82592,-5.760137 -7.34946,-9.419432 -1.84251,6.719241 14.69782,17.215002 14.69892,5.879566 m -14.69892,25.723101 2.57231,1.469892 -2.57231,-1.469892 m 0.36748,120.531115 0.36747,-0.36748 -0.36747,0.36748 m 0.36747,-0.73495 0.36747,-0.36747 -0.36747,0.36747 m 1.83736,18.37365 h 0.36748 v -2.57231 l -0.36748,2.57231 m 0,-4.40968 h 0.36748 l 0.36747,-6.61451 -0.73495,6.61451 m 0.36748,-131.92277 0.73494,0.367472 -0.73494,-0.367472 m 0.36747,123.83837 h 0.36747 v -2.93979 l -0.36747,2.93979 m 0.48984,-5.02225 0.12274,-0.24474 -0.12274,0.24474 m 0.2451,-118.081175 0.36748,-0.367473 -0.36748,0.367473 m 22.78332,56.590835 c 9.0369,3.30872 13.59907,11.89767 18.00618,19.84353 l -3.30726,-0.36747 c 2.09974,0.99953 4.04588,2.10599 5.87957,3.55309 9.88024,7.79741 3.07538,17.08382 -4.04221,23.6399 l 4.40968,-2.57231 c -0.50748,2.62302 -2.64323,4.72534 -4.44275,6.609 -5.49335,5.75132 -14.84076,9.58774 -22.75025,9.92728 l 0.73495,1.10242 -6.61451,-0.73495 v 0.36748 l 1.10242,0.36747 c -2.81338,1.18069 -12.60138,-0.88487 -10.82649,-5.14499 0.83527,-2.00456 2.62412,-3.36789 3.80592,-5.14425 1.42469,-2.1409 1.83552,-5.26625 4.45009,-6.25953 3.14704,-1.19576 6.32642,-0.34506 9.55246,-0.35535 7.96461,-0.0254 19.72227,-2.10525 21.85398,-11.39129 2.01706,-8.78701 -10.32562,-10.39544 -14.42184,-16.18314 -1.25602,-1.77489 -1.41109,-3.96577 -2.40731,-5.86523 -0.65006,-1.23875 -2.04609,-2.60428 -2.15523,-4.04221 -0.19182,-2.53703 1.82413,-4.51477 1.1726,-7.34945 m -22.04837,-56.223362 1.10242,0.367473 v -0.367473 h -1.10242 m 1.10242,102.524942 h 0.36747 v -1.83736 l -0.36747,1.83736 m 0,-95.175484 0.36747,-0.367473 -0.36747,0.367473 m 0.36747,92.603174 h 0.36747 l 1.10242,-5.14462 h -0.36747 l -1.10242,5.14462 m 3.30726,-92.970647 V 87.50561 c -1.47283,-0.355346 -2.46575,-0.699301 -2.93979,-2.204837 -0.71804,2.067402 1.28689,2.495141 2.93979,2.57231 m -2.08247,54.508367 0.12273,-0.24474 -0.12273,0.24474 m 0.61258,-68.104864 2.57231,2.204838 0.36747,-1.102419 h 0.36747 l 0.36747,2.204837 h 0.36748 v -1.837364 l 1.10242,1.469891 h 0.36747 l 0.36747,-1.102418 c 1.41183,3.665909 1.10058,5.271031 -1.10242,8.451876 0.70812,1.171871 -2.02036,2.428996 -2.93978,2.939783 v 0.367473 l 4.0422,-1.837365 1.83737,-4.777147 c 4.3156,-0.03565 9.18461,-2.550629 4.0422,-6.614512 l 1.46989,4.409675 c -2.07475,-0.691584 -3.85516,-5.097951 -2.57231,-4.777148 -2.34852,-2.816679 -1.38684,-3.230086 -1.46989,-6.614511 h -0.36747 c -0.89296,2.8108 -0.7875,5.839144 -3.30726,7.71693 l 0.36747,-2.939783 h -0.36747 l -0.36747,2.939783 -1.10242,-1.469891 -0.73495,0.734945 h -0.36747 l -1.10242,-1.102418 0.73495,2.204837 -2.57231,-1.469892 m 1.83736,8.451877 -1.10242,1.837364 1.10242,-1.837364 m 0.36747,34.542457 0.36748,1.10242 5.87956,-2.20484 -0.73494,8.08441 c -3.05223,-0.0632 -8.82119,-3.49283 -5.5121,-6.98199 m 0,17.27123 c 6.15811,1.82744 -0.16426,12.31144 -0.70187,5.14462 -0.0544,-0.7265 -0.057,-1.47871 10e-4,-2.20484 0.0823,-1.02231 0.39283,-1.96855 0.70077,-2.93978 m 2.57231,92.97063 0.36748,-0.36747 -0.36748,0.36747 m 1.22479,-155.686135 0.12274,-0.244737 -0.12274,0.244737 m 0,-20.211008 0.12274,-0.244737 -0.12274,0.244737 m 11.26929,67.492653 -2.20484,-0.36748 5.5121,9.5543 -3.30726,-1.46989 10.28924,14.69891 c -2.57635,-1.43424 -7.01248,-3.42558 -8.87704,-5.68517 -1.61872,-1.9612 -2.11297,-4.50265 -4.01758,-6.40836 -1.55882,-1.55919 -5.12184,-2.91884 -5.99091,-4.93112 -0.57987,-1.34311 -0.19109,-7.3557 1.0958,-8.25087 2.1997,-1.52979 6.27203,1.20605 7.50049,2.85968 m -6.24704,-49.608851 0.36748,-0.367473 -0.36748,0.367473 m 0.73495,0.367473 0.36747,-0.367473 -0.36747,0.367473 m 1.46989,1.102419 0.36747,-0.367473 -0.36747,0.367473 m 0.36747,31.602669 0.36748,-0.36748 -0.36748,0.36748 m 0.36748,-20.21101 c 3.65047,-1.056117 1.86198,-4.588267 1.83736,-7.349458 h -0.36747 l -1.10242,0.367473 c 1.07192,2.996006 1.79547,4.296493 -0.36747,6.981985 m 1.46989,4.777147 2.20483,2.57231 -0.73494,-2.57231 h -1.46989 m 1.46989,39.687083 0.36747,-0.36748 -0.36747,0.36748 m 0.36747,-6.61452 0.73495,0.73495 -0.73495,-0.73495 m 0.36747,-33.072563 0.36748,-0.367473 -0.36748,0.367473 m 1.10242,0.367473 1.83737,0.367473 V 87.50561 h -1.83737 m 2.20484,-0.734946 h 0.36747 l -1.83736,-5.879566 h 0.73495 l 2.20483,2.57231 c -1.70507,-3.95805 -2.04278,-5.469466 -0.36747,-9.554294 -3.53876,3.504221 -3.51488,8.99794 -1.10242,12.86155 m 5.14462,86.356136 v -0.36747 l -1.83736,0.36747 -0.36748,-0.36747 c 1.42653,-3.40317 3.74749,-5.9086 7.34946,-6.96619 1.56139,-0.45824 3.753,-0.74192 4.50301,1.1083 2.86225,7.05989 -9.88281,14.25023 -15.52719,12.83987 0.7456,-3.11066 2.78507,-5.62638 5.87956,-6.61451 m -4.89951,-85.376086 0.24473,-0.122736 -0.24473,0.122736 m 0.12236,18.863496 h 0.73495 l -0.73495,-0.73495 v 0.73495 m 0.36748,23.15079 0.36747,0.36747 -0.36747,-0.36747 m 0,-29.765312 1.10242,1.837362 h 0.36747 l -1.46989,-1.837362 m 2.57241,-11.759132 -1.46989,-4.409675 c -0.63573,1.629742 -0.032,3.535089 1.46989,4.409675 m -1.10242,19.476074 1.46989,0.36747 v -0.36747 h -1.46989 m 1.10242,-2.93979 2.20483,-1.10241 -2.20483,1.10241 m 0.73494,-20.578486 0.36748,-0.367473 -0.36748,0.367473 m 14.57655,-20.333377 0.24474,-0.122735 -0.24474,0.122735 m 17.76107,200.027623 -0.73495,-11.75913 c 9.47162,0 20.95441,-1.29711 30.13278,-3.67473 l -0.70224,-9.18682 -0.67285,-3.29183 -5.97437,0.35204 v -0.36747 c 5.51026,-2.41025 9.08944,-9.89274 8.17333,-15.80133 -0.38878,-2.5047 -2.27723,-4.89511 -2.39813,-7.34946 -0.12126,-2.46574 3.42779,-7.05327 1.91711,-9.29743 -1.22185,-1.81495 -5.70538,-2.79353 -7.69231,-3.56412 v -0.36747 l 7.34946,-2.57231 v -0.73495 l -7.71693,-4.77715 v -0.36747 l 9.18682,-2.57231 c -0.5163,-2.17948 -1.79033,-9.86444 -3.78607,-10.89557 -2.1545,-1.11344 -7.83673,1.2483 -10.1779,1.70912 -6.75048,1.32804 -13.44142,3.02981 -20.21101,4.25349 -3.54758,0.64124 -8.28137,0.82866 -11.39166,2.72812 4.73158,3.19775 11.04072,6.5017 16.53628,8.08441 v 0.73494 l -17.27122,5.87957 c 1.81347,2.64984 8.0686,3.30762 11.02418,4.40967 v 0.36747 c -9.71341,4.61546 -12.93504,17.42336 -5.87956,25.72311 -1.49709,0.62323 -4.92892,1.55147 -5.65798,3.08456 -0.89002,1.87228 -0.0147,4.92818 0.36637,6.8372 0.81983,4.1071 1.2325,8.34495 1.82707,12.49408 0.24841,1.73352 -0.21277,4.62446 1.11271,5.98874 2.24857,2.31486 9.49513,3.21183 12.64107,3.93303 m -15.43386,-180.429192 2.20483,1.837365 -2.20483,-1.837365 m 10.65671,147.356632 1.10242,9.5543 c 9.96329,0 21.07016,-1.84913 30.86772,-3.67473 l 1.46989,11.02418 -30.86772,3.67473 0.73495,11.02419 c -2.45987,-0.69802 -8.72932,-1.49742 -10.28447,-3.54685 -1.05318,-1.38802 -0.97895,-4.33276 -1.13475,-6.00745 -0.38916,-4.18393 -1.48827,-8.30815 -1.77674,-12.49407 -0.0904,-1.31005 -0.75626,-4.16531 -0.0176,-5.27802 1.46364,-2.2041 7.40825,-3.90219 9.90633,-4.27628 m -8.45188,-114.28406 c 1.93438,-0.15397 5.38605,-1.66723 7.19035,-0.86614 1.58013,0.70151 2.29303,5.1957 2.36395,6.7457 l 8.0844,-1.10242 -1.46989,-5.51209 8.45188,-1.83736 1.46989,5.51209 5.87956,-1.10242 -1.10241,-8.0844 7.34945,-1.46989 c 1.94908,5.75572 3.41015,13.04051 3.67473,19.10859 -13.08718,1.65546 -25.32696,4.0422 -38.58465,4.0422 l -3.30726,-15.43386 m 10.65672,-65.410185 -9.18683,-9.186822 c 1.14615,-1.627169 4.73747,-6.531095 6.96766,-6.22499 1.33135,0.183001 2.45692,2.03286 3.32673,2.916265 2.29818,2.334555 5.00829,5.739191 7.7173,7.496814 1.69111,1.097274 4.30862,0.853272 6.24153,0.989237 3.31093,0.233345 6.60201,0.809543 9.92176,1.037008 1.71647,0.117224 4.62318,-0.517402 6.02546,0.744868 1.2766,1.149822 0.549,5.830324 0.10473,7.317855 -0.41341,1.383535 -2.04352,1.184732 -3.1904,1.051707 -3.5406,-0.410467 -7.13449,-0.378497 -10.65672,-0.841513 -1.68266,-0.220851 -4.24688,-0.793374 -5.87956,-0.310882 -2.67962,0.791904 -4.95023,3.309093 -7.34946,4.674255 -1.93291,1.099846 -6.93826,2.043884 -9.18682,2.207777 -1.85978,0.135598 -6.31796,-2.489996 -4.88335,-4.769798 1.58675,-2.521231 7.33329,-5.901247 10.02797,-7.101781 M 156.81665,224.20553 c -4.09144,-24.3223 38.22049,-27.53033 42.01979,-4.77715 2.56202,15.34199 -18.60442,22.95236 -30.37861,17.52368 -3.46968,-1.59998 -0.84335,-5.15013 -3.16321,-6.93568 -1.26815,-0.97601 -3.12389,1.01275 -4.52139,0.75515 -2.16845,-0.39944 -3.64202,-4.69446 -3.95658,-6.566 m 0.24768,-90.7658 c 8.96964,-2.65132 22.85865,-0.97821 31.60267,1.96818 3.89374,1.31188 8.20603,3.56229 9.01484,7.95359 0.68019,3.69494 -1.16011,8.14981 -3.61115,10.83493 -0.96242,1.05465 -2.65316,2.63883 -4.23733,2.13759 -1.84839,-0.58428 -3.73316,-4.32662 -4.47362,-5.99054 4.41592,-2.61383 2.6267,-6.3051 -1.83736,-7.07238 -4.81941,-0.82829 -10.21501,-0.89884 -15.06639,-0.47404 -2.09423,0.183 -6.83683,1.12593 -8.70286,0.1242 -1.90094,-1.02047 -2.19382,-7.47182 -2.6888,-9.48153 m 0,-39.687081 h 0.36747 l 0.73495,-4.042202 h -0.36748 l -0.73494,4.042202 m 0.73494,107.302091 16.53628,-5.87957 v -0.36747 l -9.18682,-4.61693 -6.98198,-3.83495 c 9.44405,-0.77132 18.97593,-4.26489 28.29541,-6.02251 1.98068,-0.37335 7.97931,-2.54769 9.65425,-1.31151 1.78334,1.31629 2.72371,6.69352 3.2073,8.80391 l -10.28924,3.30726 8.0844,5.51209 -8.0844,2.93979 v 0.36747 c 2.02919,0.58428 8.56212,2.38159 9.29927,4.48831 0.67872,1.93952 -1.25529,5.45955 -1.94981,7.27082 -5.10567,-2.87547 -8.1884,-6.83169 -14.33144,-8.20751 -5.48307,-1.22809 -9.5102,1.20017 -14.69892,1.19392 -3.0063,-0.004 -6.68543,-1.9748 -9.5543,-2.90818 v -0.73494 m 0.36748,-92.97064 1.46989,-0.36747 v -0.36748 l -1.46989,0.73495 m 0.73494,-40.054552 0.36748,-0.367473 -0.36748,0.367473 m 0.98005,0.245104 0.24474,-0.122736 -0.24474,0.122736 m 24.37558,5.634462 9.5543,-1.111606 3.45314,0.02462 2.05895,8.068969 -37.84971,6.981985 c -2.16919,-7.339168 0.48874,-11.89326 2.28238,-18.741117 0.56407,-2.154493 -2.14641,-5.072595 0.66476,-6.051176 3.28043,-1.141738 7.00623,-1.074858 10.28189,-0.0048 1.45078,0.47404 3.64165,2.424954 5.14462,1.985456 3.56008,-1.041418 5.33791,-5.85421 8.81972,-7.100678 2.74134,-0.981888 7.44095,2.204102 7.23664,5.258537 -0.0864,1.292402 -1.95055,2.276862 -2.82734,3.022097 -2.93831,2.49808 -6.27754,4.755466 -8.81935,7.667689 m 12.12661,13.229023 2.9339,7.638291 -3.66885,2.348887 -10.28924,5.079209 10.28924,1.96085 3.80592,1.44894 -1.23361,9.81925 c -2.19455,-0.72797 -2.48154,-5.26552 -2.57231,-7.34946 l -9.55429,1.46989 0.36747,4.0422 -21.31343,-3.67473 c 0.55342,-4.38027 -0.96829,-7.73347 -2.57231,-11.759141 -0.80513,-2.021468 -2.26914,-5.131023 -1.64297,-7.343945 1.09764,-3.881616 9.75861,-3.617036 13.03463,-4.347204 1.48349,-0.330726 2.90708,-1.026719 4.40968,-0.401281 2.23019,0.928604 4.29392,4.656617 6.62884,4.74775 3.4932,0.1367 7.90067,-2.875108 11.37733,-3.679506 m -26.45809,70.554807 c -2.77846,1.22773 -1.02598,4.29171 -0.55635,6.61451 1.00099,4.9517 1.25639,10.25727 7.90581,10.40757 5.14425,0.11612 2.24048,-11.2094 -0.73495,-12.61241 l 0.73495,-2.93978 h 0.36747 l 3.30726,11.75913 5.14462,1.46989 c -0.60045,-5.99017 -4.29245,-14.04003 -7.46668,-19.10859 -1.78409,-2.84865 -2.45913,-5.13175 -6.12982,-5.14462 v 2.20484 l -11.02419,-3.67473 c 0.0342,4.14326 1.84949,3.51561 4.18919,6.11365 1.79033,1.98803 1.47614,3.54391 4.26269,4.91054 m -7.34946,-9.5543 c 3.18599,0.54827 9.30184,4.82455 11.39166,1.10242 2.37571,0.68277 3.10735,3.09376 4.13297,5.14462 2.59767,5.19533 5.54149,10.75704 6.52375,16.53628 l -2.93979,-0.73494 c -0.63499,-4.71064 -2.44296,-9.63 -4.35896,-13.96397 -0.83233,-1.88257 -1.50958,-4.04919 -3.72544,-4.40968 1.07927,3.28888 4.29171,7.89626 0.73494,10.28924 2.2776,0.95543 3.61667,1.87558 2.57232,4.40968 1.42175,0.72576 3.01327,5.03364 1.91637,6.49765 -1.64665,2.19712 -6.06147,-0.46595 -7.11171,-2.12215 -0.88744,-1.39934 -0.50601,-3.50459 -1.0517,-5.11045 0.62617,0.14479 1.22956,0.31309 1.84655,0.49278 0.94587,0.27524 4.16934,0.35204 2.42458,-1.4122 -1.58785,-1.60548 -5.97768,-0.53504 -4.27113,-3.85773 l -1.4699,-2.20483 5.87957,0.36747 c -1.40632,-3.82503 -8.70102,-0.88892 -7.71693,-6.98198 -2.07144,-0.75369 -4.58386,-1.61137 -4.77715,-4.04221 m 3.67473,-70.922275 8.81935,-1.469891 c -2.38968,-5.10971 -8.52096,-4.284366 -8.81935,1.469891 m 0.36747,160.218185 3.30726,1.10242 c -1.56066,0.82828 -2.98241,0.84262 -3.30726,-1.10242 m 0.25466,-16.1688 c 1.55772,5.87993 12.08839,5.80313 16.6491,4.68932 2.30111,-0.56187 5.66055,-2.52675 4.78192,-5.4228 -1.70066,-5.60727 -12.15563,-5.7278 -16.54106,-4.54343 -2.43193,0.65704 -5.72449,2.12656 -4.88996,5.27691 m -0.25466,-122.001012 9.92177,1.469892 c -0.89406,-5.729638 -7.38253,-6.521909 -9.92177,-1.469892 m 6.98199,-24.620683 -6.24704,1.469892 c 0.50748,-3.762922 3.75998,-3.032386 6.24704,-1.469892 m -5.71861,146.253855 c -0.42333,-2.51462 2.26069,-3.65967 4.24872,-4.16457 3.67252,-0.93302 14.74889,-1.01239 15.29165,4.53792 0.24731,2.53152 -2.71636,3.47629 -4.63494,3.97936 -3.85332,1.01055 -14.01137,0.958 -14.90543,-4.35271 m 0.20652,-122.368118 c 2.28568,-2.8108 5.91521,-2.081366 7.34945,1.102419 l -7.34945,-1.102419 m 0.73494,54.018528 c 1.00945,4.94655 6.34332,0.51887 0,0 m 1.10242,0.73494 2.20484,0.73495 h -2.20484 v -0.73495 m 1.83736,11.39166 2.93979,0.73495 v 0.36747 l -2.93979,-1.10242 m 0.36748,-103.627361 c 5.58669,-3.434769 8.18913,-4.130028 14.69891,-3.307256 l -7.05401,6.345522 -7.6449,-3.038266 m 0.36747,97.012851 h 1.46989 v 0.36747 l -1.46989,-0.36747 m 4.40968,12.49408 c -0.65594,-1.79952 -1.85868,-2.12032 -3.67473,-2.20484 0.3344,2.15927 1.62533,3.12462 3.67473,2.20484 m -2.93979,-1.46989 1.83737,1.10242 -1.83737,-1.10242 m 2.20484,-12.86155 h 0.36747 l 0.36748,1.46989 -0.73495,-1.46989 m 0.73495,1.83736 0.36747,0.36747 -0.36747,-0.36747 m 5.14462,-44.09674 c 2.98535,0.0246 4.87452,0.40826 5.14462,3.67472 -3.46601,0.14883 -4.62796,0.15802 -5.14462,-3.67472 m 10.28924,-68.717445 h 1.10242 v -1.837364 h 5.14462 v -1.102419 h -5.14462 v -1.837364 h -1.10242 v 4.777147 m 0,-5.512093 h 6.24704 v -1.102418 h -2.93979 v -0.367473 l 2.93979,-0.734946 c -0.51226,-1.581971 -1.78335,-1.850961 -3.30726,-2.204837 v -0.367473 h 3.30726 v -0.734946 h -6.24704 c 0.61625,1.770484 2.76743,2.038005 4.40967,2.57231 -1.72859,0.766181 -3.78681,0.962044 -4.40967,2.939783 z"
       style="fill:#1d1d1d;stroke:none;stroke-width:0.367473" />
  </g>
</svg>
