<?xml version="1.0" encoding="UTF-8" standalone="no"?>
<svg
   xmlns:dc="http://purl.org/dc/elements/1.1/"
   xmlns:cc="http://creativecommons.org/ns#"
   xmlns:rdf="http://www.w3.org/1999/02/22-rdf-syntax-ns#"
   xmlns:svg="http://www.w3.org/2000/svg"
   xmlns="http://www.w3.org/2000/svg"
   xmlns:sodipodi="http://sodipodi.sourceforge.net/DTD/sodipodi-0.dtd"
   xmlns:inkscape="http://www.inkscape.org/namespaces/inkscape"
   sodipodi:docname="绘图-1.svg"
   inkscape:version="1.0 (4035a4fb49, 2020-05-01)"
   id="svg8"
   version="1.1"
   viewBox="0 0 210 297"
   height="297mm"
   width="210mm">
  <defs
     id="defs2" />
  <sodipodi:namedview
     inkscape:window-maximized="0"
     inkscape:window-y="50"
     inkscape:window-x="337"
     inkscape:window-height="1039"
     inkscape:window-width="1301"
     showgrid="false"
     inkscape:document-rotation="0"
     inkscape:current-layer="layer1"
     inkscape:document-units="mm"
     inkscape:cy="560"
     inkscape:cx="400"
     inkscape:zoom="0.35"
     inkscape:pageshadow="2"
     inkscape:pageopacity="0.0"
     borderopacity="1.0"
     bordercolor="#666666"
     pagecolor="#ffffff"
     id="base" />
  <metadata
     id="metadata5">
    <rdf:RDF>
      <cc:Work
         rdf:about="">
        <dc:format>image/svg+xml</dc:format>
        <dc:type
           rdf:resource="http://purl.org/dc/dcmitype/StillImage" />
        <dc:title></dc:title>
      </cc:Work>
    </rdf:RDF>
  </metadata>
  <g
     id="layer1"
     inkscape:groupmode="layer"
     inkscape:label="图层 1">
    <path
       id="path24"
       d="m 78.01442,194.64917 c -1.15041,-0.60834 -2.59851,-2.02149 -3.12009,-3.04478 -1.08433,-2.12731 0.5121,-8.23598 2.67923,-10.25197 l 0.7033,-0.65425 -0.5182,-0.86032 -0.5182,-0.86031 -0.78184,0.74226 c -0.43001,0.40825 -1.22303,1.49142 -1.76226,2.40706 -0.53922,0.91563 -1.13051,1.82856 -1.31397,2.02873 -0.18346,0.20017 -0.38561,0.57582 -0.44923,0.83479 -0.26157,1.06476 -2.0321,2.53165 -3.05569,2.53165 -0.91337,0 -2.08076,-1.16178 -2.38357,-2.37211 -0.44649,-1.78461 0.11251,-4.5409 1.28539,-6.33787 1.06064,-1.62502 3.72356,-3.86617 5.78601,-4.86957 l 0.90207,-0.43887 -0.12187,-2.13477 c -0.067,-1.17412 -0.14557,-2.16203 -0.17452,-2.19535 -0.10031,-0.11543 -3.21789,0.55504 -3.69017,0.79361 -0.26094,0.13182 -0.88714,0.42035 -1.39156,0.64119 -0.88368,0.38688 -1.73102,1.12815 -4.58894,4.01445 -1.65059,1.66698 -2.72045,2.156 -3.94634,1.80383 -1.01822,-0.29252 -2.12461,-1.35912 -2.38995,-2.30399 -0.24121,-0.85895 0.0224,-1.74803 1.22317,-4.12512 0.57472,-1.13774 1.00386,-1.67346 2.15745,-2.69323 1.70462,-1.50688 3.89551,-2.70086 5.99465,-3.26693 1.25508,-0.33845 2.02459,-0.41242 4.44,-0.42685 l 2.92179,-0.0174 0.3544,-1.23961 c 0.3926,-1.37327 1.00678,-2.84705 1.98134,-4.75447 0.35488,-0.69457 0.64607,-1.34966 0.64708,-1.45575 9.5e-4,-0.10609 0.29991,-0.55244 0.66421,-0.99188 0.36431,-0.43943 0.66237,-0.85665 0.66237,-0.92713 0,-0.0705 -0.16818,-0.27411 -0.37374,-0.45249 -0.36353,-0.31545 -0.4122,-0.29007 -1.77816,0.92714 -1.68751,1.50375 -4.20509,2.82316 -7.24198,3.79537 -3.70905,1.18738 -6.99648,1.07896 -9.58367,-0.31607 -2.36537,-1.27542 -4.03568,-2.62429 -5.12477,-4.13851 -0.25194,-0.35029 -0.62323,-0.7521 -0.82509,-0.89291 -1.03129,-0.71937 -1.61082,-1.86941 -2.89706,-5.74899 -0.63655,-1.91999 -0.73237,-2.44728 -0.79358,-4.36727 -0.0383,-1.201 0.0262,-3.04345 0.14337,-4.09432 0.11713,-1.05088 0.21093,-2.09101 0.20843,-2.3114 -0.007,-0.61284 0.90948,-1.33635 2.17212,-1.71488 1.32248,-0.39646 5.3244,-0.76367 6.49981,-0.59641 0.95053,0.13526 0.99067,0.015 0.40072,-1.20034 -0.6073,-1.25108 -1.10599,-3.20597 -1.23743,-4.85081 l -0.11861,-1.48438 0.75803,-0.37081 c 1.30691,-0.63931 3.05207,-0.81761 6.6915,-0.68366 l 3.32667,0.12244 1.51821,0.73019 c 3.51515,1.69065 3.79241,1.87069 5.70528,3.70493 1.05037,1.00719 2.31877,2.39994 2.81866,3.09499 2.78884,3.8776 3.92283,8.77445 2.94075,12.69881 -0.23218,0.92777 -0.63541,2.12308 -0.89607,2.65624 l -0.47393,0.96939 0.60406,0.57736 c 0.38966,0.37243 0.6526,0.50629 0.74081,0.37714 0.0752,-0.11013 0.35024,-0.30719 0.61119,-0.43792 0.26094,-0.13073 1.15763,-0.74571 1.99264,-1.36661 1.96425,-1.4606 4.00101,-2.65025 4.83927,-2.82658 0.8091,-0.1702 2.88265,-0.89393 3.09656,-1.0808 0.18765,-0.16392 0.23155,-5.70155 0.0475,-5.98715 -0.0715,-0.11094 -0.55685,-0.20171 -1.07854,-0.20171 -1.95237,0 -3.58825,-0.57506 -5.44685,-1.91473 -1.35806,-0.97889 -1.5904,-1.26852 -2.03798,-2.54059 -0.36698,-1.04301 -0.42761,-3.71786 -0.10242,-4.51854 0.11443,-0.28174 0.20806,-0.82226 0.20806,-1.20114 0,-1.03391 0.32607,-1.76841 1.54171,-3.47273 1.3778,-1.9317 2.77749,-3.31124 3.85007,-3.79468 1.7948,-0.80895 3.10367,-1.11851 4.72932,-1.11851 2.16944,0 3.2373,0.2237 5.14941,1.07869 3.80444,1.70115 5.21935,3.92592 5.22381,8.21384 0.002,2.02091 -0.30638,3.34224 -1.19721,5.12796 l -0.794,1.59162 -1.5182,0.71882 c -0.83502,0.39534 -2.01139,0.8524 -2.61416,1.01568 l -1.09595,0.29687 0.0522,2.85179 c 0.0445,2.43013 0.0943,2.84103 0.33686,2.77902 1.65967,-0.42424 10.74295,-0.46954 12.05074,-0.0601 0.31313,0.098 1.12442,0.27425 1.80287,0.39157 1.13771,0.19676 2.01104,0.43721 4.70266,1.2948 l 1.00203,0.31927 0.26081,-0.59854 c 0.37314,-0.85631 0.74768,-2.56297 0.62806,-2.86187 -0.0559,-0.13975 -0.46787,-0.35929 -0.91544,-0.48787 -1.56887,-0.45071 -4.24864,-2.11176 -5.11944,-3.17327 -1.76578,-2.15249 -1.67096,-5.68345 0.25116,-9.3532 0.77032,-1.47069 1.56295,-2.17454 3.61012,-3.20573 2.0896,-1.05257 3.40466,-1.35548 5.1637,-1.18939 3.11281,0.2939 5.56633,1.38785 7.42111,3.30882 1.50674,1.56052 1.60143,1.74894 1.89659,3.77384 0.27201,1.86613 0.15977,3.98504 -0.28734,5.42435 -0.40514,1.30422 -1.56105,2.76386 -3.00705,3.79721 -0.39028,0.2789 -0.78236,0.6176 -0.87131,0.75268 -0.2742,0.41643 -1.38896,0.75739 -2.47625,0.75739 -1.11747,0 -1.08867,-0.0271 -1.35399,1.27379 -0.0714,0.35029 -0.33635,1.33423 -0.58867,2.18652 l -0.45877,1.54963 1.77997,1.75743 c 0.97898,0.96658 2.10537,2.23452 2.50308,2.81764 0.39771,0.58312 0.7509,1.09335 0.78487,1.13384 0.034,0.0405 0.42272,-0.328 0.86388,-0.81886 1.88132,-2.09329 4.63079,-4.50344 6.09899,-5.34629 0.63042,-0.36191 0.71211,-0.48256 0.60514,-0.89381 -0.89708,-3.44901 -1.25293,-6.41272 -0.88087,-7.33621 0.0926,-0.2299 0.27503,-0.86837 0.40535,-1.41883 0.58579,-2.47428 3.01245,-5.71359 5.68884,-7.59395 1.84749,-1.29801 4.00234,-2.35128 5.21882,-2.55092 1.53746,-0.25231 5.22698,-0.004 6.4131,0.43243 1.10788,0.4072 2.85965,1.69615 3.3817,2.48825 0.33382,0.50651 0.37175,0.79543 0.29141,2.22002 -0.0878,1.55738 -0.41407,2.69865 -1.17457,4.10881 l -0.27131,0.50307 1.2122,0.65001 c 1.23968,0.66476 2.85782,2.1972 3.18117,3.01269 0.37318,0.94115 0.4075,3.36907 0.0737,5.21457 -0.78631,4.34744 -2.12647,6.69204 -4.74916,8.30862 -1.7524,1.08014 -2.8897,1.43861 -4.84739,1.52783 -1.64993,0.0752 -1.99459,0.0274 -4.06291,-0.56311 -2.61365,-0.74624 -4.55261,-1.84504 -6.38466,-3.61815 l -1.11246,-1.07668 -1.28912,0.8227 c -1.27617,0.81443 -2.66695,2.10666 -4.54162,4.2198 -1.8549,2.09084 -2.01808,2.57851 -1.49189,4.45826 0.15408,0.55046 0.28117,1.26696 0.28241,1.59223 0.001,0.32528 0.0827,0.59141 0.18099,0.59141 0.0983,0 0.89479,-0.32781 1.76997,-0.72845 3.03036,-1.38727 6.4751,-1.48448 8.35428,-0.23576 1.0105,0.67147 1.98892,1.62951 2.35229,2.30327 0.16467,0.30535 0.34104,1.05254 0.39193,1.66043 0.11019,1.31633 0.005,1.43751 -1.59067,1.83761 -1.36155,0.34134 -1.8322,0.3569 -5.66839,0.18746 -2.7107,-0.11972 -3.15855,-0.0967 -4.17506,0.21447 l -1.13865,0.34857 1.32843,0.12493 c 3.24894,0.30554 6.40569,2.28693 7.9265,4.9752 1.40723,2.48753 0.88237,7.05635 -0.8531,7.42608 -0.78026,0.16624 -1.1631,-0.0258 -1.67463,-0.83983 -1.15534,-1.83865 -2.53168,-3.7669 -3.07379,-4.30639 -0.73762,-0.73404 -1.78859,-1.117 -3.31641,-1.20845 -1.2663,-0.0758 -1.45478,0.0182 -1.66771,0.83169 -0.11677,0.44611 -0.0445,0.52823 0.84554,0.9607 2.78364,1.35256 4.37557,3.96208 4.37557,7.17253 0,1.74315 -0.32998,2.99056 -1.12299,4.24519 -0.77043,1.21893 -1.69716,1.86839 -2.43115,1.70377 -1.91927,-0.43044 -2.28044,-1.00654 -2.63273,-4.19943 -0.14357,-1.30126 -0.26205,-2.71118 -0.26327,-3.13313 -0.002,-0.8305 -0.52928,-2.09718 -0.83206,-2.00041 -0.10275,0.0328 -0.27832,0.21667 -0.39016,0.40851 -1.05272,1.8058 -3.49129,4.70482 -5.11859,6.0851 -0.53228,0.45147 -1.01246,0.87807 -1.06707,0.94799 -0.24078,0.30826 -4.41679,2.42009 -5.90624,2.98681 -1.37065,0.52152 -2.0266,0.65328 -3.98529,0.80058 -1.28952,0.097 -2.68619,0.27071 -3.10369,0.3861 -0.41751,0.11538 -1.69849,0.21872 -2.84663,0.22962 -1.91853,0.0182 -3.15372,-0.0771 -8.25524,-0.63714 -3.09532,-0.3398 -6.66555,-1.2029 -9.33249,-2.25611 -2.33866,-0.92357 -3.11335,-1.32825 -4.46928,-2.33463 l -1.37147,-1.01792 -0.66861,0.83964 c -0.88022,1.10537 -0.91832,1.66709 -0.27481,4.05155 0.39137,1.45019 0.46878,2.82066 0.19782,3.50229 -0.0921,0.2317 -0.40264,0.64646 -0.69009,0.92169 -0.67701,0.64824 -1.4204,0.64401 -2.66694,-0.0152 z m 2.65936,-0.82902 c 0.48427,-0.62195 0.47262,-1.49645 -0.0499,-3.75054 -0.22042,-0.95079 -0.4036,-1.95653 -0.40706,-2.23498 -0.0138,-1.10644 1.17197,-2.86018 1.93384,-2.86018 0.19301,0 0.91141,0.41193 1.59646,0.91539 1.42118,1.04447 2.07074,1.38364 4.39057,2.29257 3.67903,1.44148 7.47515,2.22422 12.75836,2.6307 1.40908,0.10841 3.0814,0.2398 3.71627,0.29197 0.68616,0.0564 2.26395,-0.0549 3.8904,-0.27434 1.50485,-0.20306 3.31185,-0.41865 4.01554,-0.4791 1.5476,-0.13293 3.42233,-0.82748 6.28536,-2.3286 1.83363,-0.96139 2.38652,-1.37217 4.17216,-3.09979 1.35292,-1.30896 2.48621,-2.62375 3.30662,-3.83618 0.68651,-1.01457 1.27208,-1.87497 1.30126,-1.91201 0.0292,-0.037 0.27675,-0.0135 0.55014,0.0523 0.62726,0.15096 1.30761,1.51316 1.17659,2.35579 -0.0488,0.31393 0.0712,1.70969 0.26667,3.10169 0.39838,2.8368 0.77816,3.6075 1.89337,3.84237 1.16935,0.24627 2.57107,-1.3709 3.08698,-3.56147 0.39713,-1.6862 0.38886,-2.07585 -0.0796,-3.75193 -0.67227,-2.40549 -1.81531,-3.77524 -4.04828,-4.85124 -1.14606,-0.55224 -1.32936,-0.95161 -0.82998,-1.80833 0.57798,-0.99155 0.64702,-1.02021 2.19756,-0.91222 0.84989,0.0592 1.79623,0.25279 2.27413,0.46523 0.98237,0.43668 2.28096,1.83342 3.37744,3.63268 1.1342,1.86116 1.56776,2.351 2.02304,2.28565 1.56816,-0.22509 1.93807,-4.58924 0.5794,-6.83553 -1.48659,-2.45777 -4.70772,-4.41415 -7.55749,-4.5901 -1.45952,-0.0901 -1.5182,-0.11103 -1.5182,-0.54108 0,-0.38946 0.16619,-0.50201 1.28451,-0.86988 1.24346,-0.40904 1.39301,-0.41734 4.68033,-0.25955 4.87448,0.23398 6.65523,-0.10674 6.65523,-1.27335 0,-0.74314 -0.92117,-2.28172 -1.82153,-3.04243 -1.17569,-0.99331 -1.72367,-1.26324 -3.03717,-1.49607 -1.59236,-0.28225 -3.40888,0.054 -5.55278,1.02777 -2.57263,1.16855 -2.5403,1.17905 -2.96572,-0.96343 -0.53597,-2.69919 -0.49059,-3.307 0.33228,-4.45137 0.95937,-1.3342 4.36096,-4.7615 5.21958,-5.25903 0.38982,-0.22588 0.95016,-0.60027 1.2452,-0.83198 0.29504,-0.23172 0.68117,-0.4213 0.85806,-0.4213 0.17689,0 0.82999,0.50486 1.45134,1.1219 2.03533,2.02126 4.22442,3.1533 7.6808,3.97198 1.61959,0.38361 1.92413,0.40472 3.08509,0.21383 2.05195,-0.3374 4.52729,-1.627 5.80836,-3.02605 1.20265,-1.3134 2.28727,-3.92823 2.70496,-6.52116 0.29549,-1.83435 0.12763,-4.53041 -0.32314,-5.19007 -0.86841,-1.27086 -2.08252,-2.22561 -3.53602,-2.78068 -0.4037,-0.15416 -0.52188,-0.32033 -0.52188,-0.7338 0,-0.29398 0.12913,-0.72348 0.28696,-0.95445 0.41329,-0.60482 1.22258,-3.35774 1.22726,-4.1747 0.008,-1.32922 -1.56479,-2.85769 -3.97515,-3.86409 -0.70713,-0.29525 -1.28984,-0.354 -3.51085,-0.354 h -2.66301 l -1.70798,0.89796 c -2.587,1.36011 -4.30685,2.68421 -5.80619,4.47015 -1.70884,2.0355 -2.74312,4.27786 -2.95088,6.39769 -0.14167,1.44548 0.19187,4.21358 0.70127,5.81984 0.51141,1.61263 0.48797,1.72954 -0.43665,2.17746 -1.36075,0.65921 -4.42963,3.35355 -6.35132,5.57619 -0.36776,0.42535 -0.81409,0.77337 -0.99185,0.77337 -0.18619,0 -0.69601,-0.5232 -1.20272,-1.23429 -0.48374,-0.67886 -1.6944,-2.03363 -2.69035,-3.0106 -0.99596,-0.97697 -1.81083,-1.8966 -1.81083,-2.04363 0,-0.14703 0.0843,-0.40952 0.18737,-0.58331 0.19603,-0.33058 1.14106,-4.03762 1.14106,-4.476 0,-0.27141 0.76386,-0.47236 1.87403,-0.493 0.87598,-0.0163 1.1915,-0.14015 2.06036,-0.80889 1.79043,-1.37803 3.01466,-2.76067 3.47907,-3.92925 0.41032,-1.03248 0.46082,-1.43894 0.44969,-3.61967 -0.0106,-2.07065 -0.0736,-2.58524 -0.40106,-3.27546 -0.95526,-2.01337 -4.28548,-4.54924 -5.97427,-4.54924 -0.19432,0 -0.74261,-0.17547 -1.21844,-0.38994 -0.74895,-0.33757 -1.0717,-0.37466 -2.40338,-0.27619 -0.91313,0.0675 -1.81395,0.25052 -2.21666,0.4503 -0.37311,0.1851 -1.29465,0.64344 -2.04784,1.01852 -0.7532,0.37509 -1.63322,0.97004 -1.9556,1.32211 -1.30813,1.42859 -2.54133,4.68792 -2.5353,6.70073 0.008,2.50036 1.63836,4.48995 4.91147,5.99181 0.93939,0.43104 1.90807,0.84346 2.15262,0.9165 0.39361,0.11755 0.43463,0.21953 0.3574,0.88853 -0.11496,0.99586 -0.7018,3.05712 -0.95789,3.36458 -0.23852,0.28637 -0.849,0.21435 -2.5959,-0.30622 -3.23857,-0.96507 -4.09181,-1.15077 -6.83191,-1.48686 -3.56782,-0.43761 -5.34664,-0.45135 -8.67325,-0.067 -1.39876,0.16162 -2.58523,0.25355 -2.63659,0.2043 -0.13264,-0.12719 -0.15033,-6.31123 -0.0184,-6.43772 0.06,-0.0575 0.81868,-0.33441 1.68594,-0.61527 2.60975,-0.84517 3.26634,-1.28603 4.00958,-2.6922 1.1104,-2.10083 1.35381,-3.01974 1.35852,-5.12856 0.005,-2.25458 -0.27899,-3.46032 -1.10143,-4.67602 -0.86249,-1.27491 -1.95165,-2.14257 -3.74345,-2.98216 -2.65709,-1.24505 -5.04655,-1.54549 -7.1411,-0.8979 -2.99694,0.92659 -4.2397,1.8666 -6.19353,4.68469 -1.15777,1.6699 -1.26972,1.9842 -1.54338,4.33322 -0.38524,3.30681 0.0289,5.14031 1.35186,5.98435 0.39939,0.25482 1.03772,0.71775 1.41852,1.02874 0.82394,0.6729 3.37559,1.43052 4.84031,1.43716 l 0.97806,0.004 0.11361,1.86519 c 0.0625,1.02586 0.092,2.60197 0.0657,3.50248 l -0.0479,1.6373 -2.29119,0.7385 c -1.26016,0.40617 -2.55432,0.91816 -2.87593,1.13774 -0.32161,0.21959 -0.63847,0.39925 -0.70413,0.39925 -0.0983,0 -2.16947,1.44527 -4.69131,3.27365 -0.67768,0.49134 -0.79674,0.47059 -1.67742,-0.29233 -0.80682,-0.69893 -0.93691,-1.19456 -0.46919,-1.78749 0.15311,-0.1941 0.51334,-1.0539 0.80051,-1.91068 0.46691,-1.39304 0.52107,-1.81755 0.51214,-4.01437 -0.009,-2.17077 -0.0723,-2.64713 -0.54545,-4.09431 -1.50441,-4.60128 -4.83668,-8.63965 -8.94241,-10.83733 -3.5233,-1.88593 -3.36644,-1.85047 -7.84466,-1.7733 -3.39085,0.0584 -4.02093,0.11508 -4.72689,0.425 -0.91691,0.40254 -1.1249,0.84149 -0.83308,1.75819 0.10523,0.33059 0.24567,1.04022 0.31209,1.57696 0.10917,0.88233 0.75496,2.70042 1.3581,3.82346 0.47884,0.89157 0.031,1.11532 -1.95903,0.97879 -1.30849,-0.0898 -3.40714,0.10997 -5.328,0.50709 -1.08955,0.22526 -2.17052,0.9521 -2.01054,1.35187 0.0551,0.13758 -0.007,0.44079 -0.13796,0.6738 -0.29913,0.53229 -0.46513,2.70919 -0.41537,5.44677 0.0362,1.99391 0.0905,2.26267 0.97411,4.82219 1.25662,3.64019 1.5829,4.30763 2.39686,4.90293 0.38037,0.27818 0.80787,0.71758 0.95,0.97643 0.31787,0.57888 2.04007,2.2648 3.13203,3.06604 0.44504,0.32656 1.53927,0.9407 2.43161,1.36477 l 1.62243,0.77104 2.5766,-10e-4 c 2.04061,-0.001 2.75426,-0.0699 3.4306,-0.33026 0.46969,-0.18084 1.28098,-0.44243 1.80286,-0.58131 1.89892,-0.50534 4.79634,-2.09966 6.36018,-3.49974 0.81047,-0.7256 1.5851,-1.31928 1.72139,-1.31928 0.36254,0 1.31232,0.92759 1.31232,1.28167 0,0.16705 -0.29108,0.66927 -0.64685,1.11604 -0.97131,1.21975 -2.84803,5.28196 -3.51208,7.60196 l -0.34103,1.19147 -3.01629,0.008 c -3.34929,0.009 -4.6503,0.21341 -6.40769,1.00732 -1.7942,0.81054 -2.23022,1.09018 -3.77445,2.42067 -1.26089,1.08636 -1.55674,1.47063 -2.43104,3.15757 -1.21125,2.33707 -1.30093,3.10299 -0.48364,4.13056 0.74772,0.94009 1.66969,1.29721 2.63388,1.02021 1.02188,-0.29357 2.96321,-1.91023 3.71244,-3.09156 0.52827,-0.83294 2.30649,-2.16243 3.80374,-2.84389 2.21085,-1.00624 4.90492,-1.58739 5.27808,-1.13857 0.11106,0.13358 0.26052,1.31533 0.33212,2.62612 l 0.1302,2.38325 -1.60196,0.86212 c -3.15788,1.69945 -5.48698,4.17054 -6.20727,6.58569 -0.41344,1.38623 -0.49488,2.96173 -0.20048,3.87821 0.25038,0.77946 1.29069,1.83173 1.81001,1.83082 0.87821,-0.001 2.33057,-1.28682 2.67236,-2.36493 0.0793,-0.2502 0.33501,-0.70058 0.5682,-1.00083 0.2332,-0.30025 0.77907,-1.1724 1.21305,-1.93811 0.8399,-1.4819 2.48243,-3.2496 3.01581,-3.24564 0.32792,0.002 1.3662,1.80962 1.36564,2.37699 -1.5e-4,0.1577 -0.22538,0.48525 -0.5005,0.72788 -0.66437,0.58593 -1.59637,2.02478 -2.11713,3.2685 -0.89383,2.13474 -1.23798,5.25511 -0.71256,6.46088 0.41949,0.9627 2.15508,2.6186 3.23502,3.0865 1.06064,0.45954 1.3696,0.38119 2.07639,-0.52654 z m -3.47551,-0.93841 c -0.31583,-0.25483 -0.79208,-0.90485 -1.05832,-1.44449 -1.08077,-2.19059 -0.36082,-5.45359 1.93473,-8.76874 0.83465,-1.20536 1.31208,-1.2713 2.0787,-0.28712 0.29235,0.37531 0.766,0.92804 1.05255,1.22829 0.64939,0.68044 0.65559,1.00038 0.0303,1.56052 -0.27088,0.24263 -0.71922,0.80964 -0.99632,1.26001 -0.45557,0.74044 -0.50186,0.98444 -0.48333,2.54758 0.0125,1.05337 0.14848,2.14074 0.34811,2.7834 0.42638,1.37268 0.2622,1.58387 -1.23127,1.58387 -0.9027,0 -1.20423,-0.0834 -1.67511,-0.46332 z m 2.37801,-0.0403 c 0.16287,-0.0994 0.1206,-0.58172 -0.16318,-1.8624 -0.33936,-1.53146 -0.35692,-1.88232 -0.15419,-3.08056 0.2422,-1.43155 0.48401,-1.92928 1.39469,-2.87079 l 0.56454,-0.58365 -0.6499,-0.69014 c -0.35744,-0.37957 -0.80238,-0.89485 -0.98875,-1.14506 l -0.33886,-0.45493 -0.46855,0.54591 c -0.72614,0.84602 -1.39287,2.05088 -1.99559,3.60632 -1.15716,2.98622 -0.43147,6.04426 1.53982,6.48876 0.88238,0.19896 1.00287,0.20341 1.25997,0.0465 z m 18.09355,-2.78449 c -0.78282,-0.0717 -1.63681,-0.21061 -1.89775,-0.30876 -0.26094,-0.0982 -1.11493,-0.27729 -1.89776,-0.39807 -5.16557,-0.79701 -10.72337,-3.7977 -13.49717,-7.28719 -1.90873,-2.40121 -2.69426,-4.10318 -3.61144,-7.8247 -0.35562,-1.44297 -0.42658,-2.25508 -0.42931,-4.91318 -0.003,-2.87313 0.0477,-3.38018 0.51842,-5.18614 0.28694,-1.10092 0.70219,-2.53393 0.92278,-3.18447 0.37781,-1.11421 1.70897,-3.72425 2.41265,-4.73055 0.17521,-0.25058 0.44284,-0.70125 0.59472,-1.0015 0.46493,-0.91911 3.97052,-4.12773 5.68811,-5.20626 3.384,-2.12491 6.09955,-3.34798 9.662,-4.35173 1.10505,-0.31136 2.4289,-0.68944 2.94188,-0.84017 1.47194,-0.43252 9.86386,-0.449 11.40272,-0.0224 0.62626,0.17361 1.81439,0.39983 2.64028,0.5027 0.8259,0.10287 1.59449,0.2569 1.70798,0.34229 0.11349,0.0854 0.82084,0.28579 1.57189,0.44536 1.5471,0.32868 3.65481,1.28719 5.07499,2.30791 1.37259,0.98651 3.32428,2.97451 4.37528,4.45668 0.49679,0.70059 1.05329,1.43757 1.23667,1.63773 1.40358,1.53204 2.7671,6.1065 3.06458,10.28129 0.28433,3.99033 0.13373,6.22574 -0.56756,8.4242 -0.31269,0.98026 -0.64628,1.88101 -0.74131,2.00166 -0.095,0.12066 -0.28283,0.58786 -0.41733,1.03824 -0.81051,2.71396 -3.06464,5.48489 -7.66156,9.41812 -2.01855,1.72711 -4.47832,2.93302 -7.15261,3.50661 -0.57408,0.12312 -1.48114,0.3354 -2.01571,0.47172 -2.08333,0.53127 -10.07874,0.77276 -13.92544,0.4206 z m 12.35327,-0.71089 c 4.99066,-0.73459 7.21085,-1.61432 10.30685,-4.08402 4.2385,-3.38106 6.43524,-6.10667 7.7115,-9.56805 0.23987,-0.65054 0.49791,-1.26469 0.57344,-1.36478 0.0755,-0.10008 0.28261,-0.71423 0.46018,-1.36477 0.17758,-0.65054 0.42161,-1.38045 0.54229,-1.62202 0.28577,-0.57204 0.23725,-7.80511 -0.0542,-8.08461 -0.11043,-0.10589 -0.20086,-0.40133 -0.20094,-0.65655 -5.7e-4,-1.53723 -1.40439,-5.86916 -2.33234,-7.1969 -3.0939,-4.42682 -4.91125,-6.232 -7.75241,-7.70045 -1.69631,-0.87673 -4.41823,-1.60857 -8.61325,-2.31582 -2.67824,-0.45153 -3.07016,-0.4724 -6.82665,-0.36357 -2.19191,0.0635 -4.24149,0.18949 -4.55462,0.27996 -0.31313,0.0905 -1.20982,0.33792 -1.99264,0.54989 -6.31083,1.70884 -12.47626,5.22719 -15.24866,8.70179 -0.93146,1.16738 -2.78134,4.16661 -3.16071,5.12449 -0.13873,0.35029 -0.31594,0.71878 -0.39378,0.81886 -0.17683,0.22733 -0.86785,2.67586 -1.23253,4.36728 -0.69807,3.23772 -0.50176,7.68614 0.48533,10.99752 1.43466,4.81285 4.67087,8.4326 9.81935,10.98313 1.61272,0.79893 5.41035,1.95493 7.26392,2.21114 0.4697,0.0649 1.23829,0.19776 1.70798,0.29519 2.88307,0.59807 9.4017,0.59434 13.49192,-0.008 z m -12.06861,-7.53649 c -0.96624,-0.29151 -1.46988,-0.55327 -2.4434,-1.26995 -2.12085,-1.56129 -3.1935,-2.86805 -3.85799,-4.69996 -0.41782,-1.15191 -0.48289,-1.64289 -0.48952,-3.69408 -0.009,-2.78285 0.26872,-3.82137 1.02186,-3.82137 0.45243,0 0.45618,0.0162 0.58662,2.52532 0.1078,2.07385 0.23419,2.83833 0.70696,4.27628 0.56513,1.71887 1.45857,3.11575 1.9928,3.11575 0.13279,0 0.39243,0.15999 0.57699,0.35554 0.52145,0.55249 2.89425,1.41441 4.46845,1.62315 1.77494,0.23537 4.8453,-0.10265 5.97713,-0.65802 2.12894,-1.04463 4.68556,-3.21813 5.39845,-4.58946 0.57066,-1.09774 1.49487,-4.52113 1.57383,-5.82969 0.0443,-0.73398 0.10104,-0.82461 0.54744,-0.87424 1.21832,-0.13546 1.42391,1.21383 0.64325,4.22143 -0.65002,2.50428 -1.98587,4.78343 -3.7768,6.44379 -1.22123,1.13219 -1.54814,1.32462 -3.43317,2.02084 -2.29739,0.84853 -3.96719,1.11222 -6.93093,1.09448 -0.99157,-0.006 -2.14446,-0.11385 -2.56197,-0.23981 z m 6.98196,-0.57864 c 0.54374,-0.15876 1.77634,-0.57749 2.73912,-0.93051 1.59607,-0.58524 1.86393,-0.75693 3.0364,-1.94623 0.70725,-0.71741 1.41093,-1.54802 1.56374,-1.84581 0.1528,-0.29779 0.44161,-0.77396 0.6418,-1.05815 0.56165,-0.79736 1.38797,-3.17895 1.55775,-4.48971 0.1709,-1.31935 0.13801,-1.80263 -0.1452,-2.13389 -0.32601,-0.38131 -0.52912,-0.0662 -0.53342,0.8276 -0.01,1.97896 -1.19636,5.68184 -2.18062,6.80346 -0.60708,0.6918 -2.47965,2.14553 -3.88809,3.01845 -3.00387,1.86172 -9.33696,1.68385 -11.87191,-0.33343 -0.15303,-0.12179 -0.55477,-0.35389 -0.89275,-0.51579 -0.45289,-0.21695 -0.79446,-0.63955 -1.29872,-1.60679 -0.82666,-1.58567 -1.08537,-2.68677 -1.38327,-5.88753 l -0.22751,-2.44445 -0.25048,1.34744 c -0.39402,2.11966 -0.0471,5.02487 0.77922,6.52448 1.34055,2.43299 4.2043,4.591 6.60553,4.97766 1.26208,0.20323 4.61435,0.0243 5.74841,-0.3068 z m 13.5676,-19.32115 c -0.4795,-0.52711 -0.71801,-1.08226 -0.71801,-1.67126 0,-0.75843 0.55594,-0.74434 1.32318,0.0335 0.94916,0.9623 1.018,1.95618 0.1355,1.95618 -0.24804,0 -0.58134,-0.14331 -0.74067,-0.31845 z m 0.79419,-0.45493 c -0.008,-0.29501 -0.92946,-1.30181 -1.06914,-1.16787 -0.13984,0.13408 0.67444,1.39534 0.90084,1.39534 0.0959,0 0.1716,-0.10236 0.1683,-0.22747 z m 1.372,-1.89154 c -0.43662,-0.46321 -0.60926,-0.80833 -0.56933,-1.13809 0.0827,-0.68242 0.66789,-0.68319 1.63369,-0.002 0.69968,0.49339 0.80806,0.65684 0.75862,1.14407 -0.0493,0.48546 -0.14078,0.57519 -0.62701,0.61471 -0.44706,0.0363 -0.7039,-0.0965 -1.19597,-0.61853 z m 1.37393,0.13567 c 0.11529,-0.17887 -1.20311,-1.37062 -1.35508,-1.22491 -0.1093,0.10481 0.92474,1.38854 1.11848,1.38854 0.0721,1e-5 0.17859,-0.0736 0.2366,-0.16363 z m -31.21125,-0.29706 c -0.53235,-0.61505 0.66287,-2.86129 1.57677,-2.96332 0.46596,-0.052 0.51576,-0.001 0.51576,0.52315 0,0.31941 -0.22516,1.06182 -0.50036,1.64982 -0.39471,0.84336 -0.59015,1.06908 -0.92564,1.06908 -0.23391,0 -0.53385,-0.12543 -0.66653,-0.27873 z m 1.25249,-1.27963 c 0.49056,-0.9943 0.51405,-1.33687 0.0738,-1.07597 -0.24669,0.14619 -0.93104,1.50454 -0.93758,1.86096 -0.01,0.52864 0.39884,0.15738 0.86378,-0.78499 z m 1.88176,1.37322 c -0.14265,-0.22132 0.0719,-2.02918 0.27895,-2.3504 0.0801,-0.12422 0.3494,-0.19821 0.59854,-0.16443 0.39169,0.0531 0.46061,0.17371 0.50936,0.89139 0.0784,1.15472 -0.21064,1.80858 -0.79959,1.80858 -0.25736,0 -0.52163,-0.0833 -0.58726,-0.18514 z m 1.04581,-1.38564 c 0,-0.22518 -0.0765,-0.45471 -0.16989,-0.51009 -0.22506,-0.13337 -0.40088,0.33564 -0.39341,1.04943 0.006,0.54631 0.0206,0.55801 0.28467,0.22329 0.15324,-0.19428 0.27863,-0.53746 0.27863,-0.76263 z m 26.50213,-0.32295 c -1.14156,-0.99446 -1.3516,-1.58058 -0.61517,-1.71657 0.76295,-0.14089 2.74537,1.28129 2.76231,1.98167 0.009,0.36274 -0.36594,0.72113 -0.74278,0.71042 -0.16179,-0.005 -0.79375,-0.44358 -1.40436,-0.97552 z m 1.58464,0.29005 c 0,-0.19979 -0.94463,-1.03256 -1.45828,-1.2856 -0.73843,-0.36377 -0.73243,-0.21741 0.0153,0.37359 0.40207,0.31779 0.82718,0.68316 0.94467,0.81194 0.244,0.26742 0.4983,0.31849 0.4983,0.10007 z m -34.91665,0.24127 c -0.3807,-0.43985 -0.0759,-1.02017 1.21998,-2.32248 1.22243,-1.22852 1.89646,-1.52717 2.12995,-0.94373 0.19703,0.49231 -0.54334,1.58834 -1.98961,2.9454 -0.69591,0.65298 -1.00893,0.7268 -1.36032,0.32081 z m 2.66157,-2.65303 c 0.18425,-0.33012 0.16991,-0.34576 -0.13777,-0.15028 -0.53676,0.34103 -2.14708,2.14272 -2.13937,2.39363 0.008,0.25183 1.95543,-1.66696 2.27714,-2.24335 z m 39.78319,31.72033 c -0.36355,-0.69323 -0.50121,-1.45097 -0.69409,-3.82056 -0.18537,-2.27739 -0.72213,-4.04221 -1.45983,-4.79981 l -0.4647,-0.47723 0.40574,-0.82768 c 0.22316,-0.45523 0.53676,-0.87589 0.69689,-0.93481 0.33292,-0.1225 2.40912,0.83187 3.05268,1.40322 1.24029,1.10114 2.03257,3.27003 2.01698,5.5216 -0.014,2.0275 -0.49614,3.14938 -1.68789,3.92778 -0.98977,0.64648 -1.52954,0.64865 -1.86578,0.007 z m 2.47372,-1.45895 c 0.82165,-1.43303 0.70572,-4.27974 -0.24775,-6.08394 -0.56982,-1.07823 -1.40384,-1.86451 -2.5907,-2.4424 l -0.90208,-0.43923 -0.37401,0.58972 -0.37401,0.58972 0.45094,0.45998 c 0.68612,0.69987 1.06613,2.03313 1.34997,4.73628 0.22611,2.15348 0.50723,3.61019 0.78072,4.04561 0.16078,0.25599 1.52073,-0.78219 1.90692,-1.45574 z m -63.78645,0.0942 c -0.83039,-1.22886 -0.88095,-4.68621 -0.0905,-6.19087 0.9728,-1.85182 3.25245,-3.926 5.51377,-5.01679 1.18134,-0.56985 1.53854,-0.48026 1.70475,0.42753 0.0731,0.39946 0.26752,1.03075 0.43196,1.40284 0.16445,0.3721 0.29899,0.79695 0.29899,0.9441 0,0.14716 -0.70454,0.94952 -1.56564,1.78303 -1.16177,1.12453 -1.81043,1.95025 -2.51453,3.20089 -0.52188,0.92698 -1.27151,2.1744 -1.66584,2.77206 -0.61128,0.92648 -0.79944,1.08664 -1.27661,1.08664 -0.37188,0 -0.65247,-0.13736 -0.83632,-0.40943 z m 1.70678,-1.00553 c 0.32167,-0.47281 0.86447,-1.37873 1.20622,-2.01316 1.00664,-1.86872 1.98508,-3.16414 3.21373,-4.25488 l 1.15313,-1.02367 -0.34037,-1.28517 c -0.18721,-0.70684 -0.3922,-1.33486 -0.45554,-1.39559 -0.18485,-0.17725 -2.19244,0.95652 -3.34241,1.88759 -2.71761,2.2003 -3.55775,3.99713 -3.23273,6.9139 0.25081,2.25072 0.81389,2.61745 1.79797,1.17098 z m 67.59607,-6.0003 c -0.16058,-0.17515 -0.48245,-0.68694 -0.71527,-1.13732 -0.46656,-0.90252 -1.77894,-2.63815 -2.37266,-3.13783 -1.08517,-0.91329 -2.66368,-1.53041 -4.35822,-1.70385 -0.41387,-0.0424 -0.83027,-0.15159 -0.92533,-0.24274 -0.10393,-0.0996 -0.0521,-0.6608 0.13013,-1.40751 0.16663,-0.68298 0.32683,-1.4465 0.356,-1.6967 0.0522,-0.44792 0.0764,-0.45415 1.57124,-0.4045 1.62353,0.0539 3.5935,0.56733 4.55461,1.18699 2.15267,1.38792 3.68782,4.13037 3.69766,6.60562 0.003,0.82742 -0.32669,1.91064 -0.64489,2.11702 -0.36362,0.23583 -0.99267,0.14867 -1.29327,-0.17918 z m 1.36499,-1.20499 c 0.20051,-0.68669 0.17689,-0.9744 -0.18271,-2.22567 -0.85532,-2.97617 -2.61954,-4.78809 -5.36354,-5.50857 -0.81008,-0.2127 -1.88712,-0.38672 -2.39343,-0.38672 h -0.92055 l -0.12614,1.18051 c -0.0694,0.64929 -0.17086,1.29228 -0.22553,1.42888 -0.0746,0.18654 0.19418,0.27778 1.07995,0.36656 1.24623,0.1249 2.86313,0.73923 3.76673,1.43115 0.66472,0.50899 1.93181,2.0412 2.38547,2.8846 0.1846,0.34319 0.54133,0.93707 0.79274,1.31974 0.54582,0.83083 0.83623,0.71083 1.18701,-0.49048 z M 60.86098,174.8829 c -0.39805,-0.40627 -0.4291,-0.56849 -0.33959,-1.7742 0.12148,-1.63655 0.62081,-2.73793 1.98413,-4.37641 1.00057,-1.20251 1.76141,-1.73743 3.94624,-2.77446 2.35774,-1.11911 6.51033,-1.79918 8.63479,-1.41413 l 0.85399,0.15478 -0.0684,1.53992 c -0.0376,0.84696 -0.16291,1.65159 -0.27836,1.78806 -0.14777,0.17468 -0.47198,0.21838 -1.09522,0.1476 -1.6716,-0.18983 -4.4053,0.71607 -6.36092,2.10789 -1.03501,0.73663 -1.53837,1.24132 -2.629,2.63597 -1.66256,2.12603 -3.66172,2.97126 -4.64762,1.96498 z m 1.75824,-0.27242 c 1.0321,-0.46105 1.56776,-0.92641 2.75351,-2.39216 0.53439,-0.66059 1.43783,-1.58297 2.00763,-2.04974 1.90829,-1.56326 5.34005,-2.80744 7.06103,-2.55997 l 0.80086,0.11515 0.0704,-1.24651 c 0.0387,-0.68557 0.0389,-1.28745 3.8e-4,-1.33749 -0.0385,-0.05 -1.15135,-0.0788 -2.47302,-0.0639 -2.18189,0.0246 -2.56825,0.0819 -4.19834,0.62267 -1.96267,0.6511 -4.2104,1.799 -4.91682,2.51098 -1.64029,1.65319 -2.48948,3.17703 -2.75843,4.9499 -0.10419,0.68678 -0.0565,0.91684 0.27368,1.31928 0.21992,0.26809 0.44105,0.48744 0.49139,0.48744 0.0503,0 0.44978,-0.16004 0.88766,-0.35565 z m 68.2148,-9.15227 c -0.0524,-0.82569 -0.0209,-1.59123 0.0699,-1.70121 0.15583,-0.18858 1.60232,-0.90547 3.29766,-1.63435 0.54022,-0.23225 1.39731,-0.34909 2.97242,-0.4052 2.13833,-0.0762 2.24995,-0.0611 3.2947,0.44344 1.26221,0.60961 1.88884,1.25413 2.20591,2.2689 0.31549,1.00972 0.055,1.65278 -0.77434,1.91144 -0.38087,0.11879 -2.39195,0.21013 -4.93009,0.22392 -2.35774,0.0128 -4.58514,0.10677 -4.94977,0.2088 -1.0768,0.30131 -1.08431,0.29297 -1.18643,-1.31574 z m 6.15444,0.59574 c 2.36777,-0.002 4.52409,-0.0842 4.79183,-0.18181 0.56526,-0.20607 0.63211,-0.71839 0.21779,-1.66919 -0.32459,-0.74491 -0.69506,-1.07428 -1.81853,-1.61683 -1.84116,-0.88913 -4.35943,-0.63935 -7.3538,0.72939 l -1.56565,0.71566 v 1.17203 1.17202 l 0.71166,-0.15846 c 0.39141,-0.0872 2.64893,-0.16042 5.0167,-0.16281 z m -73.24228,-8.02167 c -1.61002,-0.30444 -3.44947,-1.42052 -5.37038,-3.25846 -1.58046,-1.5122 -1.93227,-1.96877 -2.73913,-3.55474 -1.98322,-3.89824 -2.61709,-6.55055 -2.63108,-11.00917 -0.005,-1.65138 0.0489,-3.2153 0.12008,-3.47539 0.28861,-1.05384 5.1473,-1.76814 7.91749,-1.164 0.78282,0.17073 1.66538,0.35305 1.96124,0.40516 l 0.53793,0.0947 -0.38872,-0.73062 c -0.21379,-0.40183 -0.69926,-1.61997 -1.07881,-2.70696 -0.58176,-1.66611 -0.69456,-2.24666 -0.71854,-3.69824 l -0.0284,-1.72188 1.04377,-0.24103 c 0.69593,-0.1607 1.86592,-0.21669 3.51085,-0.16801 2.68711,0.0795 3.63619,0.30781 6.35748,1.5292 3.5233,1.58136 4.96753,2.66797 6.78287,5.10329 2.01026,2.6968 2.88461,4.52271 3.40113,7.10262 0.15415,0.7699 0.32678,1.62576 0.38364,1.9019 0.0569,0.27615 0.0123,0.60725 -0.0989,0.73578 -0.11125,0.12853 -0.26303,0.80334 -0.33729,1.49958 -0.24719,2.31748 -1.983,6.0621 -3.57163,7.705 -0.88865,0.919 -4.31267,3.42003 -5.60686,4.09544 -0.48303,0.25209 -1.3434,0.54201 -1.91193,0.64429 -0.56853,0.10227 -1.67418,0.3074 -2.457,0.45584 -0.78283,0.14844 -1.86662,0.27315 -2.40844,0.27712 -0.54182,0.004 -1.0379,0.0891 -1.10241,0.18919 -0.13365,0.20736 -0.42442,0.20538 -1.56692,-0.0107 z m 5.5542,-1.07223 c 3.16455,-0.59863 3.7704,-0.86122 6.53744,-2.83348 2.3188,-1.65276 3.51662,-3.01205 4.56653,-5.18212 0.2179,-0.45037 0.47703,-0.98263 0.57585,-1.1828 0.81833,-1.65769 1.37707,-4.86868 1.10825,-6.36894 -0.65024,-3.62888 -2.5353,-7.02527 -5.42362,-9.7719 -0.85637,-0.81436 -1.66335,-1.31267 -3.75421,-2.31821 -3.45581,-1.66198 -4.71435,-2.02041 -7.18451,-2.04613 -2.27248,-0.0236 -4.11551,0.3104 -4.10987,0.74493 0.0204,1.57037 1.27367,5.89966 2.1046,7.27011 0.2194,0.36184 0.32206,0.75916 0.25136,0.97276 -0.14152,0.42756 -0.47042,0.4074 -3.48367,-0.21354 -1.55586,-0.32061 -2.12283,-0.36827 -2.65686,-0.22332 -0.3734,0.10135 -1.30557,0.27454 -2.07148,0.38487 -2.11412,0.30453 -2.05586,0.23811 -2.20346,2.51198 -0.49016,7.55139 2.51408,14.55618 7.55182,17.60812 2.03927,1.23542 2.52209,1.38354 4.10967,1.26073 0.78282,-0.0605 2.61979,-0.33643 4.08216,-0.61306 z m 59.588,-0.55275 c -0.0685,-0.2991 -0.20339,-0.59054 -0.29974,-0.64763 -0.39183,-0.23221 -0.15987,-1.2362 0.47585,-2.05962 1.04697,-1.3561 3.68625,-3.67962 6.02465,-5.30388 1.24496,-0.86475 1.98619,-0.63052 2.3366,0.73837 0.10432,0.40754 -0.0123,0.54934 -0.97241,1.18281 -1.3273,0.87569 -5.26877,4.57798 -6.14216,5.76942 -0.73677,1.00507 -1.24002,1.11844 -1.42279,0.32053 z m 4.11194,-3.90839 c 1.06744,-0.97761 2.38843,-2.10154 2.93555,-2.49762 0.84546,-0.61207 0.97188,-0.77956 0.84237,-1.11596 -0.0838,-0.21769 -0.28157,-0.42032 -0.43949,-0.45028 -0.59435,-0.11278 -5.17217,3.58199 -6.6915,5.40071 l -0.8178,0.97896 0.29853,0.77235 0.29853,0.77235 0.81651,-1.04152 c 0.44909,-0.57284 1.68987,-1.84138 2.7573,-2.81899 z m 12.33477,1.9009 c -0.76544,-0.28229 -1.53403,-0.62777 -1.70798,-0.76775 -0.17394,-0.13996 -0.95676,-0.61064 -1.73958,-1.04594 -1.89581,-1.05419 -2.98554,-1.92542 -3.39821,-2.71685 -0.18695,-0.35852 -0.6377,-1.18412 -1.00167,-1.83466 -0.83961,-1.50065 -1.09329,-2.18914 -1.30747,-3.54841 -0.0946,-0.6005 -0.25965,-1.5422 -0.36673,-2.09266 -0.37744,-1.94026 0.32394,-5.50084 1.35953,-6.90167 1.42548,-1.92824 3.48207,-4.01369 5.04498,-5.11579 0.3975,-0.28031 1.40381,-0.77981 2.23624,-1.11001 1.44404,-0.5728 1.62715,-0.60061 3.98981,-0.6058 l 2.4763,-0.005 1.87191,0.9148 c 1.02955,0.50314 2.03934,1.12983 2.24398,1.39265 0.3398,0.43641 0.35143,0.56221 0.1341,1.4508 -0.13088,0.53513 -0.29769,1.05485 -0.37068,1.15493 -0.073,0.10008 -0.4148,0.95989 -0.75957,1.91068 -0.34477,0.9508 -0.75192,1.86686 -0.90479,2.0357 -0.36284,0.40076 -0.17708,0.6665 0.39289,0.56202 0.71943,-0.13187 2.00508,0.62176 3.49398,2.04812 l 1.37587,1.31807 v 1.63071 c 0,1.97932 -0.71805,5.28985 -1.49038,6.87128 -0.69573,1.4246 -2.27273,3.22695 -3.3562,3.83579 -2.32661,1.3074 -5.66785,1.5593 -8.21633,0.61943 z m 7.04132,-0.58355 c 3.11828,-1.38891 5.16207,-5.14318 5.39729,-9.91439 l 0.10956,-2.22204 -1.24738,-1.17854 c -1.46407,-1.38328 -2.22756,-1.81009 -3.26693,-1.82629 -0.71789,-0.0112 -0.76238,-0.0446 -0.81949,-0.61512 -0.0332,-0.33181 0.0246,-0.70148 0.12845,-0.82148 0.30452,-0.35183 2.11436,-5.08367 2.11436,-5.528 0,-0.67391 -2.34633,-1.98894 -4.51643,-2.5313 -1.39337,-0.34824 -2.44601,-0.31496 -4.16369,0.13161 -2.39593,0.62291 -3.53425,1.29679 -5.64794,3.34356 -2.7937,2.70525 -3.28176,3.4768 -4.08881,6.46382 -0.26845,0.99355 -0.21635,3.41822 0.0874,4.06682 0.14768,0.31537 0.30647,1.00857 0.35286,1.54044 0.0583,0.66835 0.35296,1.48333 0.95401,2.63856 1.37726,2.64714 1.7805,3.13539 3.49114,4.22711 0.85562,0.54606 1.59252,0.99283 1.63754,0.99283 0.045,0 0.58325,0.28983 1.19606,0.64407 1.72323,0.99612 2.52165,1.17519 5.0046,1.12244 1.90836,-0.0405 2.31992,-0.10762 3.27741,-0.5341 z m -72.03553,-0.65097 c -0.63726,-0.63779 -0.63778,-0.90747 -0.004,-1.83637 0.72034,-1.05497 1.13138,-1.12364 1.90167,-0.31767 0.34558,0.36157 0.62832,0.72897 0.62832,0.81643 0,0.26123 -1.53138,1.84799 -1.78349,1.84799 -0.12816,0 -0.4625,-0.22967 -0.74297,-0.51038 z m 1.57698,-1.71032 c -0.54599,-0.42393 -0.75804,-0.3575 -1.20591,0.37781 -0.33842,0.55562 -0.33972,0.60173 -0.0263,0.93378 0.32234,0.34153 0.34458,0.33459 0.99916,-0.31172 l 0.66948,-0.66103 z m 38.60693,-4.24111 c -1.03621,-0.43624 -1.1271,-0.68078 -0.69257,-1.86323 0.2115,-0.57552 0.52872,-1.5171 0.70494,-2.09239 0.17621,-0.5753 0.40183,-1.09425 0.50136,-1.15323 0.0995,-0.059 0.60403,-0.0515 1.1211,0.0167 0.93234,0.12295 0.94012,0.12949 0.9387,0.78929 -0.002,0.91227 -0.35024,2.89665 -0.57396,3.27028 -0.10095,0.1686 -0.26687,0.53173 -0.36871,0.80696 -0.20909,0.56509 -0.67224,0.62915 -1.63086,0.22558 z m 1.33372,-0.86247 c 0.14168,-0.32528 0.39717,-1.2395 0.56775,-2.03162 0.33576,-1.55912 0.27367,-1.73575 -0.61219,-1.74147 -0.49042,-0.003 -0.62821,0.25665 -1.27996,2.41332 l -0.42769,1.41528 0.50034,0.26066 c 0.7484,0.38988 0.96842,0.33431 1.25175,-0.31617 z m -26.71659,-4.60762 c -0.0672,-1.78131 -0.0949,-3.2649 -0.0616,-3.29686 0.0333,-0.0319 0.55599,-0.14592 1.16147,-0.25324 0.87399,-0.15492 1.15111,-0.1454 1.34468,0.0462 0.26782,0.2651 0.37865,1.84349 0.31433,4.47663 -0.0403,1.64791 -0.0532,1.6921 -0.54992,1.87318 -0.27978,0.10199 -0.86377,0.23211 -1.29776,0.28915 l -0.78907,0.10371 z m 2.13325,2.35702 c 0.13874,-0.12325 0.11628,-5.31017 -0.0236,-5.44432 -0.0735,-0.0705 -0.53247,-0.0708 -1.02003,-7.3e-4 l -0.88647,0.12747 0.1186,0.8297 c 0.0652,0.4564 0.1186,1.72628 0.1186,2.82203 v 1.99226 l 0.80655,-0.12777 c 0.4436,-0.0703 0.84244,-0.15966 0.88632,-0.19864 z m 23.92683,-2.97825 c -1.09533,-0.20084 -2.73277,-0.755 -3.69782,-1.25145 -0.41596,-0.21399 -0.87214,-0.38906 -1.01375,-0.38906 -0.32175,0 -1.19262,-0.61109 -2.13764,-1.5 -0.48182,-0.45321 -0.76486,-0.90989 -0.84586,-1.36477 -0.0669,-0.376 -0.21352,-0.94271 -0.32571,-1.25934 -0.15945,-0.45003 -0.1286,-0.88263 0.14133,-1.98169 0.53449,-2.17628 1.28338,-3.42631 3.01935,-5.03985 0.8345,-0.77565 1.60883,-1.41026 1.72074,-1.41026 0.1119,0 0.54379,-0.18425 0.95975,-0.40944 0.67184,-0.36371 0.99999,-0.40685 2.93871,-0.38637 3.0412,0.0321 3.73836,0.28383 7.11658,2.5694 0.43456,0.29401 1.00251,0.93879 1.32843,1.50814 0.55632,0.97183 0.5693,1.05277 0.56808,3.54213 -0.001,2.25519 -0.0556,2.69236 -0.47444,3.80914 -0.6974,1.85933 -1.40713,2.48864 -3.5096,3.11191 -1.84638,0.54735 -4.24505,0.73446 -5.78815,0.45151 z m 3.32107,-0.3647 c 3.52131,-0.76122 4.34437,-1.17135 5.0436,-2.51323 0.78255,-1.50177 1.19442,-3.46289 1.07145,-5.10162 -0.11339,-1.51092 -0.67748,-2.99073 -1.35026,-3.54222 -2.63979,-2.16384 -4.83905,-3.08311 -7.42165,-3.10219 -1.31694,-0.01 -1.68514,0.0639 -2.77748,0.55515 -0.6926,0.3115 -1.2904,0.6388 -1.32843,0.72733 -0.038,0.0885 -0.40038,0.40051 -0.80521,0.69329 -1.47706,1.06822 -2.96031,3.5468 -3.25673,5.44213 -0.26028,1.66427 0.55033,3.70388 1.70382,4.28708 0.30201,0.1527 0.70573,0.42094 0.89716,0.59608 0.19142,0.17515 0.47898,0.31845 0.63902,0.31845 0.16003,0 0.69378,0.19558 1.18609,0.43463 2.2235,1.07962 4.76493,1.55828 6.39862,1.20512 z m -2.00169,-2.65104 c -0.19934,-0.23031 -0.20098,-0.5968 -0.009,-1.95617 0.31692,-2.24129 0.33032,-4.25066 0.034,-5.09599 -0.76983,-2.19611 -3.62653,-0.39435 -5.02327,3.16824 -0.48141,1.22791 -0.90708,1.60859 -1.37889,1.23314 -0.40876,-0.32529 -0.24895,-1.05164 0.61556,-2.79786 1.23901,-2.50268 2.96056,-3.91235 4.77795,-3.91235 0.77399,0 1.01645,0.09 1.52407,0.56591 0.33201,0.31125 0.7071,0.90493 0.83353,1.31928 0.53032,1.73795 0.16012,6.66657 -0.55889,7.44076 -0.36371,0.39163 -0.50152,0.39756 -0.81529,0.035 z m 0.86273,-1.96183 c 0.36054,-1.67369 0.40989,-3.91291 0.1098,-4.98154 -0.1179,-0.41984 -0.43321,-1.01272 -0.70068,-1.31752 -0.41657,-0.47471 -0.6159,-0.55419 -1.38985,-0.55419 -1.41015,0 -2.93798,1.21226 -3.89876,3.09349 -0.28113,0.55046 -0.63172,1.21818 -0.77908,1.48383 -0.29467,0.53121 -0.37381,1.42821 -0.10108,1.14563 0.0918,-0.0951 0.27422,-0.50042 0.40546,-0.90075 0.89082,-2.71745 3.14693,-4.88504 4.73618,-4.55034 1.0311,0.21715 1.36031,0.93672 1.3966,3.05257 0.0176,1.02394 -0.0408,2.59869 -0.12965,3.49944 -0.0889,0.90075 -0.11486,1.59441 -0.0578,1.54147 0.0571,-0.0529 0.24108,-0.73338 0.40882,-1.51209 z m -31.69221,1.51905 c -3.25061,-0.49037 -5.19917,-2.39428 -5.52682,-5.40018 -0.20025,-1.83701 0.58533,-4.74726 1.68508,-6.24257 0.18199,-0.24746 0.3309,-0.5778 0.3309,-0.7341 0,-0.15629 0.44834,-0.69746 0.99632,-1.2026 2.56862,-2.36782 3.76395,-2.85791 6.97425,-2.85947 2.53619,-10e-4 3.22481,0.19184 5.1564,1.4458 1.22824,0.79736 2.42972,2.09321 3.0383,3.27697 0.51234,0.99655 0.81961,3.38252 0.58857,4.57023 -0.47192,2.42601 -0.77351,3.0674 -2.02757,4.31203 -1.23731,1.228 -1.9495,1.61343 -4.38351,2.37232 -1.485,0.463 -5.17146,0.71206 -6.83192,0.46157 z m 6.07282,-0.76081 c 0.52188,-0.1085 1.6445,-0.51258 2.49471,-0.89798 1.26482,-0.57334 1.72117,-0.90193 2.5104,-1.80761 0.53051,-0.60879 1.05055,-1.40893 1.15565,-1.7781 0.10509,-0.36916 0.31116,-1.086 0.45793,-1.59297 0.2232,-0.77096 0.22743,-1.17285 0.0258,-2.45659 -0.27995,-1.78263 -0.48895,-2.28766 -1.47307,-3.55944 -1.1323,-1.46326 -3.12689,-2.63512 -5.17135,-3.03826 -1.82483,-0.35984 -4.31176,4e-4 -5.74615,0.83233 -1.97955,1.14812 -3.00869,2.20564 -3.93461,4.04313 -0.46854,0.9298 -0.85188,1.80681 -0.85188,1.94891 0,0.1421 -0.10675,0.36064 -0.23722,0.48564 -0.16023,0.15352 -0.23722,0.85926 -0.23722,2.17454 0,1.63631 0.0675,2.08348 0.42241,2.80028 0.90282,1.82317 2.32042,2.78841 4.45966,3.03658 1.49974,0.17398 4.87703,0.069 6.12491,-0.19046 z m -5.4042,-2.32648 c -0.14668,-0.2628 -0.10022,-0.77519 0.17737,-1.95618 0.83385,-3.54757 2.07392,-5.76416 3.55724,-6.35843 0.3375,-0.13522 1.04744,-0.24585 1.57765,-0.24585 0.8985,0 1.02594,0.0594 1.87552,0.87402 0.76769,0.73612 0.96447,1.07347 1.24718,2.13814 0.40459,1.52373 0.63662,4.34785 0.41408,5.04 -0.1177,0.36606 -0.28455,0.50041 -0.62147,0.50041 -0.6278,0 -0.83021,-0.58874 -0.83298,-2.42294 -0.004,-2.72932 -0.89979,-4.68063 -2.14238,-4.66743 -1.14829,0.0122 -1.81656,0.61749 -2.67518,2.42306 -0.27847,0.5856 -0.71151,1.84008 -0.96229,2.78773 -0.25079,0.94764 -0.55735,1.84011 -0.68125,1.98326 -0.31475,0.36366 -0.69906,0.32422 -0.93349,-0.0958 z m 1.09462,-2.0367 c 0.21575,-0.86564 0.56912,-1.94614 0.78528,-2.40112 0.21615,-0.45497 0.39301,-0.87974 0.39301,-0.94393 0,-0.30127 1.28685,-1.7871 1.74416,-2.01385 0.81684,-0.40503 1.99327,-0.32724 2.50746,0.1658 0.75251,0.72156 1.28777,2.39393 1.37958,4.3104 0.0456,0.95079 0.13004,1.93343 0.18777,2.18364 0.0977,0.42361 0.11487,0.42987 0.24906,0.091 0.19874,-0.5019 -0.10182,-3.81183 -0.44275,-4.8759 -0.35165,-1.0975 -1.02291,-1.94996 -1.88672,-2.39602 -0.58728,-0.30327 -0.7672,-0.31875 -1.44417,-0.12426 -0.42532,0.12219 -0.96611,0.41174 -1.20175,0.64345 -0.76239,0.74967 -1.28242,1.38325 -1.28242,1.56244 0,0.0963 -0.15698,0.44367 -0.34884,0.77199 -0.33075,0.56596 -1.3633,4.11958 -1.36047,4.68216 0.003,0.62057 0.3548,-0.18729 0.7208,-1.65578 z"
       style="fill:#000000;stroke-width:0.185832" />
  </g>
</svg>
