<?xml version="1.0" encoding="UTF-8" standalone="no"?>
<svg
   xmlns:dc="http://purl.org/dc/elements/1.1/"
   xmlns:cc="http://creativecommons.org/ns#"
   xmlns:rdf="http://www.w3.org/1999/02/22-rdf-syntax-ns#"
   xmlns:svg="http://www.w3.org/2000/svg"
   xmlns="http://www.w3.org/2000/svg"
   xmlns:sodipodi="http://sodipodi.sourceforge.net/DTD/sodipodi-0.dtd"
   xmlns:inkscape="http://www.inkscape.org/namespaces/inkscape"
   sodipodi:docname="绘图.svg"
   inkscape:version="1.0 (4035a4fb49, 2020-05-01)"
   id="svg8"
   version="1.1"
   viewBox="0 0 210 297"
   height="297mm"
   width="210mm">
  <defs
     id="defs2" />
  <sodipodi:namedview
     inkscape:window-maximized="1"
     inkscape:window-y="-8"
     inkscape:window-x="-8"
     inkscape:window-height="1017"
     inkscape:window-width="1920"
     showgrid="false"
     inkscape:document-rotation="0"
     inkscape:current-layer="layer1"
     inkscape:document-units="mm"
     inkscape:cy="592.36685"
     inkscape:cx="514.16852"
     inkscape:zoom="0.7"
     inkscape:pageshadow="2"
     inkscape:pageopacity="0.0"
     borderopacity="1.0"
     bordercolor="#666666"
     pagecolor="#ffffff"
     id="base" />
  <metadata
     id="metadata5">
    <rdf:RDF>
      <cc:Work
         rdf:about="">
        <dc:format>image/svg+xml</dc:format>
        <dc:type
           rdf:resource="http://purl.org/dc/dcmitype/StillImage" />
        <dc:title></dc:title>
      </cc:Work>
    </rdf:RDF>
  </metadata>
  <g
     id="layer1"
     inkscape:groupmode="layer"
     inkscape:label="图层 1">
    <path
       id="path54"
       d="m 69.795275,134.73699 c -0.527438,-1.83137 -1.650547,-4.33243 -0.752094,-7.33501 0.315235,-1.05351 0.758576,-2.09542 1.226992,-3.07046 1.47246,-3.06518 3.88687,-5.76514 6.689523,-7.77374 6.348871,-4.54975 14.573627,-5.88728 22.17559,-6.22059 2.307114,-0.10133 4.685534,-0.16768 6.993844,-0.16393 0.48905,8.5e-4 0.89913,0.0113 1.36465,0.0723 0.52061,0.0684 0.97316,0.0913 1.53523,0.0989 3.43142,0.0462 7.22907,0.75073 10.57605,1.59835 7.63284,1.93337 15.7607,6.43757 17.5339,14.77679 0.27105,1.27424 0.40564,3.00206 0.3746,4.26454 -0.0167,0.68607 -0.0943,1.16012 -0.29528,1.87639 -0.17416,0.62024 -0.41349,1.1417 -0.64975,1.70513 -0.14584,0.34765 -0.22926,0.6448 -0.50406,0.90494 -0.7028,0.66527 -1.91427,0.83806 -2.98347,1.0385 -3.86282,0.72377 -7.68265,1.03423 -11.59954,1.13027 -4.54975,0.11139 -9.27656,0.3369 -13.8171,0.3386 -0.52062,1.8e-4 -0.88208,-0.008 -1.36465,0.0486 -0.51601,0.0609 -0.99057,0.11924 -1.53524,0.1218 -1.45591,0.007 -2.97425,-0.0331 -4.43511,0.003 -5.533496,0.13562 -11.190318,0.49435 -16.716987,-0.0316 -3.921327,-0.37306 -8.075326,-0.58493 -11.599539,-2.31752 -0.794228,-0.39046 -1.558774,-0.91875 -2.217559,-0.83534 -0.480187,0.0609 -0.752435,0.26815 -1.1939,0.58663 -1.212834,0.87508 -3.897104,4.04739 -2.626613,5.59848 0.454429,0.55456 1.37881,0.60864 1.944117,0.59857 0.444364,-0.008 0.707742,-10e-4 1.19407,-0.035 0.694949,-0.0483 1.215734,-0.14516 1.705814,-0.15523 0,0.79918 -0.22022,1.84228 0.291695,3.24105 0.180134,0.49213 0.381249,0.98153 0.812138,1.38154 2.259351,2.09747 5.816828,2.44767 8.789892,2.83489 7.405965,0.96481 14.89415,0.5503 22.346172,0.73299 5.89973,0.14449 11.84381,0.75773 17.74047,0.35396 3.46656,-0.23745 7.6818,-0.19327 10.91721,-1.45915 0.67585,-0.26441 1.22052,-0.48446 1.60535,-0.98068 0.28862,-0.37204 0.32393,-0.73026 0.44334,-1.15773 0.15079,-0.53972 0.4331,-1.81704 0.48036,-2.38814 0.0413,-0.49708 0.0689,-1.06187 -0.38552,-1.34709 -0.45255,-0.28418 -0.88344,-0.13117 -1.4612,-0.18218 -1.12584,-0.0993 -2.91899,-0.5752 -4.09395,-0.48615 -2.1275,0.16154 -3.44592,1.93507 -5.62919,2.00808 -1.76416,0.059 -3.42937,-0.88668 -5.11745,-1.21949 -0.62688,-0.12367 -1.07278,-0.1339 -1.70581,0.002 -2.18532,0.46893 -3.64737,2.75523 -5.97035,2.75523 -1.22614,0 -2.21364,-0.58458 -3.24105,-1.13658 -1.29898,-0.69802 -2.64265,-1.55144 -4.09395,-1.72697 -1.34709,-0.1629 -2.44085,0.25724 -3.582216,0.87423 -1.292154,0.69819 -2.443408,1.34026 -3.923373,1.41839 -0.979649,0.0517 -1.901472,-0.3224 -2.729304,-0.75193 -1.417873,-0.73571 -2.957029,-1.95213 -4.605699,-2.06727 -1.181618,-0.0824 -2.109581,0.46927 -3.070466,1.04123 -0.911929,0.54262 -1.832386,1.16558 -2.899885,1.4107 -2.424133,0.55627 -3.719188,-1.41821 -5.458607,-2.60085 -1.526874,-1.03816 -3.949131,-0.88975 -5.288025,-0.72054 m 27.634197,-26.78128 h 0.341162 m 8.870236,2.55872 h 0.68233 m 8.52907,0 h 1.19407 m -30.534082,1.36465 h 0.852907 m 37.527925,2.04698 h 0.17058 m -30.19292,1.02349 h 0.511744 m 20.469776,1.36465 c 0.72002,0.0322 0.83261,0.0836 1.19407,0.17058 m -36.333852,0.51174 h 0.170582 m 24.05199,0.17058 1.36465,-0.17058 m -15.522915,3.92338 0.511744,0.17058 m 8.358491,0 c 0.59021,-0.14193 0.71405,-0.14909 1.19407,-0.17058 m 18.59338,0.51174 h 0.51174 m 15.35234,7.67617 c 0.46483,1.07875 1.95298,2.56656 1.21147,3.92337 -0.88379,1.61728 -2.31002,2.42686 -3.42903,2.89988 m -62.603399,3.58221 c -0.908688,0.91108 -1.688074,1.65891 -2.251676,2.89989 -0.356856,0.78587 -0.333145,1.55638 0.385344,2.14608 0.269689,0.22142 0.503045,0.34748 0.842843,0.43072 0.511574,0.12555 1.011719,0.002 1.535233,-0.0162 1.583678,-0.0551 3.485662,-0.51004 5.117444,-0.31166 0.908517,0.11054 1.649864,0.52352 2.38814,1.03902 0.888389,0.62023 1.771489,1.18997 2.899885,1.3104 2.39667,0.2557 4.625999,-1.21249 6.99384,-0.98698 2.040837,0.19446 3.580505,1.68159 5.629188,1.83187 2.29688,0.16854 4.391791,-1.11219 6.652678,-0.78638 1.83324,0.26423 3.19328,1.57839 5.11744,1.53285 1.84535,-0.0437 3.45735,-1.13403 5.28803,-1.33839 1.16643,-0.13032 2.23598,0.41725 3.41163,0.43345 1.35783,0.0189 2.5478,-0.66731 3.92337,-0.66561 1.06068,0.001 2.08945,0.6129 3.07047,0.78331 1.32968,0.23097 2.4765,-0.35191 3.75279,-0.55132 1.23842,-0.19344 2.38592,0.3555 3.58221,0.22312 1.18059,-0.13066 1.79332,-1.03747 2.89989,-1.4049 0.57673,-0.19157 0.95423,0.028 1.52772,-0.2001 0.71286,-0.28333 1.0704,-1.18417 0.93394,-1.93405 -0.22551,-1.23791 -1.35118,-2.16468 -1.94992,-2.89988 m -62.603397,4.09395 c 0,1.74368 -0.06004,5.50006 2.096276,7.62499 2.674547,2.63549 7.301057,2.92377 10.867915,3.26323 0.98562,0.0938 1.705815,-0.0142 2.558722,0.0444 0.668168,0.0457 1.029801,0.14653 1.705815,0.15454 2.037766,0.0242 4.412772,6.9e-4 6.482095,6.9e-4 4.433413,0 8.862904,-0.17059 13.305354,-0.17059 6.25659,0 12.78969,0.55627 18.93454,-0.64889 2.20067,-0.43157 5.00879,-0.96719 6.2496,-3.1039 1.02553,-1.76637 1.08438,-4.66148 1.08541,-6.14093"
       style="fill:none;stroke:#0f0f0f;stroke-width:0.170581" />
  </g>
</svg>
