<?xml version="1.0" encoding="UTF-8" standalone="no"?>
<svg
   xmlns:dc="http://purl.org/dc/elements/1.1/"
   xmlns:cc="http://creativecommons.org/ns#"
   xmlns:rdf="http://www.w3.org/1999/02/22-rdf-syntax-ns#"
   xmlns:svg="http://www.w3.org/2000/svg"
   xmlns="http://www.w3.org/2000/svg"
   xmlns:sodipodi="http://sodipodi.sourceforge.net/DTD/sodipodi-0.dtd"
   xmlns:inkscape="http://www.inkscape.org/namespaces/inkscape"
   sodipodi:docname="绘图-1.svg"
   inkscape:version="1.0 (4035a4fb49, 2020-05-01)"
   id="svg8"
   version="1.1"
   viewBox="0 0 210 297"
   height="297mm"
   width="210mm">
  <defs
     id="defs2" />
  <sodipodi:namedview
     inkscape:window-maximized="1"
     inkscape:window-y="-8"
     inkscape:window-x="-8"
     inkscape:window-height="1017"
     inkscape:window-width="1920"
     showgrid="false"
     inkscape:document-rotation="0"
     inkscape:current-layer="layer1"
     inkscape:document-units="mm"
     inkscape:cy="580.05355"
     inkscape:cx="220.5827"
     inkscape:zoom="0.7"
     inkscape:pageshadow="2"
     inkscape:pageopacity="0.0"
     borderopacity="1.0"
     bordercolor="#666666"
     pagecolor="#ffffff"
     id="base" />
  <metadata
     id="metadata5">
    <rdf:RDF>
      <cc:Work
         rdf:about="">
        <dc:format>image/svg+xml</dc:format>
        <dc:type
           rdf:resource="http://purl.org/dc/dcmitype/StillImage" />
        <dc:title></dc:title>
      </cc:Work>
    </rdf:RDF>
  </metadata>
  <g
     id="layer1"
     inkscape:groupmode="layer"
     inkscape:label="图层 1">
    <path
       id="path544"
       d="m 70.870532,100.93224 c 0.370417,-1.209884 2.196395,-2.115641 3.880556,-2.469441 m -6.350001,14.816671 c 0.48895,1.35276 0.294923,1.65371 0,2.46944 -0.8001,-2.16404 0.07549,-2.93525 0.401814,-5.64444 0.119239,-0.99113 -0.119944,-1.46756 0.09807,-2.46945 0.864305,-3.9733 4.024841,-6.93441 7.614003,-8.819444 m 3.527778,0 c 2.258483,1.707974 7.794978,4.500494 6.702778,7.408334 l -0.705556,-1.76389 m -18.344445,9.17222 -1.411111,0.70556 c 0.0025,-0.61309 1.083733,-4.37483 1.058333,-5.29167 -0.0314,-1.12917 -0.402519,-1.58355 -0.196144,-2.82222 0.317852,-1.90638 1.529291,-4.41378 3.371144,-5.64444 m 1.763889,0.35277 -0.352778,0.70556 m 10.583334,-0.70556 0.705556,0.70556 m -9.172223,0.35278 c -2.101497,3.16551 -2.980619,9.38307 -4.233333,11.64166 -0.714023,-1.95297 -0.484717,-1.66705 -0.156634,-3.88055 0.11042,-0.7468 0.18415,-1.33985 0.401461,-2.11667 0.469195,-1.67396 1.455562,-3.58327 1.871839,-5.29167 m 5.291667,1.41112 -2.822222,5.99722 0.705556,-0.70556 m -0.352778,-4.23333 v 0.35278 m 3.880556,0.70555 -2.822223,11.99445 c -0.753533,-1.81173 -1.245305,-4.83627 -1.411111,-5.99723 -2.328686,2.15735 -2.932995,7.10149 -4.938889,9.52501 -1.186745,-2.62474 -0.618772,-3.02871 -1.058334,-5.64445 m 13.758335,-9.87778 -5.291667,13.05278 -0.352778,-1.05833 m 8.113889,-11.99445 1.401234,5.29167 -0.509412,2.11667 -0.891822,2.11666 -0.705555,4.58611 0.352777,0.35278 H 85.6872 c 1.150055,-2.0737 0.847725,-2.40873 0.705555,-3.88055 -0.731308,0.56052 -1.152878,0.71606 -1.411111,3.175 m 2.822222,-13.05278 h -1.058333 m -11.994445,0.35278 v 1.76388 m 12.347223,-1.76388 c 0,2.58236 0.09278,3.11061 0.274461,5.29166 0.137936,1.65492 -0.235656,2.90107 -1.332795,4.23334 m 2.116667,-9.525 c 0.893586,2.38961 1.630186,4.64393 1.362075,7.05555 -0.236361,2.1282 -1.801636,6.8948 -3.478742,6.35 m -19.402779,-12.7 c -0.340077,1.79839 -0.352777,2.60414 -0.352777,3.88056 m 1.763889,-3.52778 v 0.35278 m 14.463889,-0.35278 v 1.76389 m -10.230556,-0.70556 1.058334,4.58611 m 0.705555,-3.52777 v 0.35277 l 0.352778,0.70556 0.352778,-1.05833 m 8.113889,0.70555 v 0.35278 m 2.116667,-0.35278 0.705556,2.46945 M 74.39831,111.1628 v 0.70555 m -6.702778,0 h 0.705555 m 14.111112,0 c 0,4.7618 -2.083858,12.40953 -3.880555,16.22778 -1.255537,-2.26402 -0.148873,-5.21476 -1.665817,-7.27114 -0.771878,-1.04595 -1.156406,-1.30591 -1.156406,-2.95941 m -7.055556,-5.64445 v 0.70556 m 1.058334,0.70555 1.058333,5.29167 m 15.169445,-4.93889 c 0,1.37259 0,1.03766 0,1.76389 m -19.755556,-0.70556 1.058333,3.17501 m 5.997223,-3.17501 c 0.653697,1.42731 0.650169,0.97402 0.705555,2.46945 0.103364,2.79527 -0.527403,5.11203 0.705556,7.05556 0.907344,-1.227 1.168753,-1.57304 1.411111,-3.88056 m -1.763889,-5.64445 -0.352778,0.70556 m 15.875001,-0.35278 v 0.35278 m -23.98889,0.70556 c -0.29457,1.43104 -0.656872,1.31677 -0.597606,2.82222 0.02858,0.73427 0.222956,1.09273 0.372181,1.76389 0.294569,1.32542 0.32138,3.13411 0.93098,4.23333 l 1.763889,-4.93889 m 18.344446,-3.52778 1.058333,1.05834 m -18.697223,0.35278 v 1.05833 m 3.175,-0.70556 -0.705555,4.93889 -0.705556,-2.46944 m 5.997223,-2.11667 v 1.41111 m -11.994446,-0.35278 c 0,1.57364 -0.513644,4.19132 1.411112,5.64445 m 17.286112,-5.29167 -1.763889,5.64445 1.411111,-0.35278 c -0.492831,-0.8605 -0.318206,-0.59888 -1.058333,-1.41111 m 2.116666,-3.88056 0.352778,1.41111 v -1.41111 m 0.705556,0 H 85.6872 m 0.352777,0.70556 c -0.217311,0.95747 -0.564797,1.91286 -0.872066,2.82222 -0.411339,1.21726 -0.776111,2.39924 -1.548342,3.50816 -0.517525,0.74352 -1.490839,1.1605 -0.754592,1.43073 m -13.405556,-7.40833 c -0.457553,2.86586 -2.070806,4.32703 -2.165703,7.05555 -0.08008,2.30858 0.823383,2.37349 0.646642,4.23333 -0.14605,1.54059 -0.348898,2.91783 -0.597606,4.23334 m 16.580557,-15.16945 0.352777,0.70556 1.058334,-0.35278 0.352778,0.35278 m -2.116667,0 c 0.493183,0.78525 0.18415,0.4705 1.411111,1.76389 m 0,-1.41111 -1.058333,0.70555 m 1.763889,-0.35278 c 2.071864,-0.10445 3.532716,-0.72788 5.997222,-0.049 2.603853,0.71731 5.340351,2.80508 7.408334,4.28234 m -27.516668,-3.88056 c -0.01129,2.69579 -0.759178,2.99942 -1.626659,5.99722 -1.163814,4.02167 -1.195211,7.93821 0.921103,11.64167 l 1.058333,-2.82222 c 0.880887,1.87184 1.309512,5.05389 2.822223,7.76111 m 9.172223,-22.57778 -0.705556,0.70556 M 69.812199,123.8628 v 1.41111 m 4.233333,-0.70555 0.705556,0.35277 m 1.058333,-0.35277 c 0,1.43972 0.08326,3.43005 0.352778,5.99722 m -1.763889,-5.29167 c -0.124178,1.84775 0.2286,3.5366 0.352778,5.99722 m -3.175,-5.29166 c 0.820914,1.28562 0.845608,2.48461 2.116666,2.11666 m 9.172223,-2.11666 -0.352778,2.11666 m -16.227778,-1.76389 0.705555,1.76389 m 14.46389,-1.76389 -1.058333,5.99723 m -14.111112,-4.93889 c -2.464859,2.42358 -4.72052,4.2164 -6.63434,7.40833 -1.015294,1.69369 -1.376539,3.25085 -1.47955,5.29167 m 16.227779,-12.7 v 0.70555 m 4.233334,0 c 0,2.81658 -0.683331,7.65846 0.705555,10.58334 m 21.872221,-10.23056 5.99723,2.88114 13.05277,6.64386 m -55.033333,-8.81944 c -0.451203,2.38689 0.03775,7.58472 0.352778,10.58333 m 7.055556,-10.58333 c -0.006,1.42275 0.276578,0.97966 -0.323497,2.46944 -0.74295,1.84538 -0.986367,1.50248 -0.382059,3.175 0.896762,-0.89676 0.683331,-1.06786 0.705556,-2.11667 m 9.877778,-3.175 -1.411111,2.46945 m -14.111112,-0.70556 c 0,0.71579 0,0.62513 0,2.11667 m 13.758334,-0.70556 -0.352777,3.88056 m -8.466668,-1.76389 v 3.52778 m 24.341669,-3.52778 8.819446,2.88114 9.17222,3.46886 m -19.402778,-5.99722 c -1.437569,1.51377 -4.446764,5.27756 -2.106789,6.85941 2.129014,1.43969 5.090937,2.28388 5.271912,5.84059 0.05821,1.143 -0.470959,2.52942 -0.970139,3.52778 -0.620536,1.24142 -1.483784,2.48214 -1.842206,3.88055 m 26.10556,-16.58055 2.46944,2.82222 M 59.581642,139.7378 c 2.285295,3.91266 3.817409,8.12659 7.408334,10.93611 m -1.058333,-10.23055 v 0.70555 m 25.752779,0 -0.705555,3.175 m 25.752783,-2.82222 1.76389,0.35278 m -3.17501,0 1.76389,3.175 5.99723,-2.82222 m -65.263897,0 -0.352777,10.23055 v 3.88056 l -0.176389,3.5179 -3.684553,6.0071 -7.780726,17.99167 m 29.633335,-41.62778 c 2.044348,5.17666 6.759576,5.87163 9.525001,10.23055 m 8.466667,-9.87778 c 0.372534,1.97027 0.49142,6.38599 -1.69545,9.17223 -1.480256,1.88665 -4.403372,5.12692 -6.065661,6.6929 -2.939345,2.7693 -6.967362,6.48864 -9.525001,9.1821 -2.11455,-2.79612 -3.92042,-7.54804 -6.085417,-11.28889 -0.921808,-1.59315 -1.932517,-2.74461 -2.38125,-4.58611 m 57.502778,-9.17223 c 3.09775,0.79411 5.09059,4.44536 6.70278,6.70278 m -61.383336,-5.29167 5.644445,17.63889 m 40.922221,-16.58055 -9.90706,11.28889 -3.85127,4.93889 c 2.04964,0.97296 3.65619,1.2827 4.84082,3.52777 0.87806,1.6637 0.8202,3.4985 0.80362,5.29167 -0.01,1.03646 -0.0914,1.48872 -0.28433,2.46945 -0.77259,3.92818 -2.30012,8.06802 -2.89067,10.93611 2.64443,-0.95568 5.91926,-5.35129 7.76112,-8.11389 4.57129,-6.85694 5.9436,-15.54692 11.28889,-21.51945 m -59.266675,-4.23333 c -1.403703,2.21227 -0.896761,3.73486 -1.273881,5.99722 -0.452614,2.71604 -0.885825,6.04873 -1.969558,8.81945 -0.691092,1.76671 -0.956381,2.61937 -2.048228,4.23333 m 72.672222,-17.99167 c 3.81812,4.02096 6.62623,8.77606 9.58392,13.40556 2.25848,3.53518 4.1843,6.98324 6.86929,9.95609 1.76777,1.95721 3.97686,4.55084 6.47735,5.21335 m -47.97778,-25.04722 0.35278,0.35278 m -38.100004,0.70555 -0.352777,0.35278 m 54.680561,0.35278 c 1.80269,3.15489 2.92523,6.79944 5.64444,9.525 5.08671,5.0987 11.63497,8.0839 14.46389,14.81667 M 95.2122,157.72947 c 0,0.95461 0.03916,2.32727 -0.0099,3.175 -0.03704,0.64241 -0.376413,1.25024 -0.195791,2.11667 0.177094,0.85125 0.744714,1.48307 1.342319,2.09691 0.873125,0.89676 1.755775,0.78669 2.743906,1.32291 1.784356,0.96908 2.955926,3.04024 3.175006,5.04684 m -2.11667,-8.46666 c 0.92604,-1.1042 1.59279,-1.26119 2.82222,-1.41112 m -45.861114,0.70556 1.411111,0.35278 m 33.161113,0.70555 c -0.334786,6.64034 -4.6482,11.89214 -8.358717,16.93334 -1.1303,1.53529 -1.903589,2.14841 -3.28295,3.52778 m 15.169445,-20.10834 -2.116667,5.64445 m 5.644445,-4.23334 c 1.812574,-1.00541 3.278014,-0.39793 4.938894,0 m -6.702783,-0.35278 -0.352778,0.35278 m 80.080561,9.17222 c 3.20005,-1.68063 6.44666,-5.32941 8.81945,-8.46666 1.15781,1.41287 0.83467,1.88948 0.35277,3.52778 h 0.70556 v -0.35278 -0.35278 m -89.252785,-2.46944 0.705556,3.88055 -1.763889,6.35 m 36.688888,-8.81944 -0.70555,0.70555 m 1.76389,-0.70555 -0.35278,0.35277 m -57.502783,0 c -0.643819,1.05693 -1.725436,2.76367 -1.763889,4.58612 m -14.46389,-3.175 c -0.758119,1.12077 -1.040694,1.69933 -1.773767,2.82222 -2.821869,4.32294 -6.251328,8.43703 -9.162345,12.7 -0.911542,1.33491 -1.520542,2.76719 -2.822222,3.79236 -1.95647,1.54093 -9.166473,1.19274 -10.936112,-0.26458 -1.776624,1.46297 -3.554024,1.645 -6.35,0.35277 M 185.87609,169.37114 c -0.81385,1.2827 -0.91828,1.98049 -0.35277,3.52777 0.55351,-1.33067 0.60184,-1.11619 0.70555,-3.175 m -1.05833,2.82223 -1.05833,1.76388 m -68.08612,-1.05833 8.11389,0.73484 4.58611,0.32349 m 1.41111,-0.35277 8.11389,2.46944 m -64.205558,-1.41111 c 0,2.02142 0.05503,2.58763 -0.215547,4.23333 -0.121708,0.74048 -0.06244,1.34303 -0.225425,2.11667 -0.661106,3.13866 -3.553178,5.15761 -5.909028,6.57543 -1.030817,0.62053 -1.586795,1.11795 -2.822223,1.53846 m 35.277781,-14.46389 c -0.312562,6.19725 -4.72299,15.7166 -11.994446,14.46389 m 96.308336,-14.46389 -3.13584,3.175 -2.5086,5.64445 m -3.52778,-8.46667 c -3.17006,2.35761 -7.5251,2.5654 -11.28889,2.46944 -2.50895,-0.0638 -2.87479,0 -4.93889,0 -1.26576,0 -3.2452,-0.17815 -4.58611,-0.35278 m -15.16944,-0.70555 2.82222,-0.35278 m -11.28889,0.70556 4.58611,0.35277 m 12.34722,1.05834 c 0.33197,1.61325 0.61348,3.17923 2.46945,2.82222 m 6.35,-1.41111 6.70278,1.87184 3.175,1.3522 3.52777,-0.049 2.82223,0.24483 4.93889,1.51906 m -5.29167,-3.52778 2.11667,-0.35278 m -29.28056,1.41111 -0.19615,3.05753 -3.68441,0.47025 -10.58333,-1.76389 m 32.10278,0 2.11666,-1.41111 m 1.41112,0.70556 v 1.41111 c 1.50918,-0.58032 1.18427,-0.82162 1.41111,-1.41111 m -62.44167,0.35278 c -0.43286,1.66123 -3.13585,5.22146 -4.93889,7.05555 m 2.46944,-2.82222 c 3.38102,1.8609 9.20362,-0.49601 12.7,-1.36208 1.09679,-0.27164 2.00449,-0.41134 3.175,-0.61736 3.18171,-0.55986 6.98994,-1.02976 10.23056,-1.90112 m 35.27778,0 1.76389,1.05834 m -0.35278,-0.35278 -2.11667,0.70555 m -119.238893,-0.35277 -5.291667,1.05833 m 106.5389,-0.70556 c 2.27612,1.44392 4.57023,0.35278 7.40833,0.35278 m 1.41111,-0.35278 7.76111,0.35278 m -125.588895,1.76389 0.705556,-1.41111 c 0,1.80904 -1.942077,0.72637 -3.175,0.70556 m 1.411111,2.46944 c 0.485316,-1.64571 2.196888,-1.65876 3.527778,-2.46944 m -9.525001,1.76388 2.822223,-1.05833 -1.411111,1.76389 m 7.408333,-1.76389 h 1.763889 m 26.458335,0.70556 c -0.351014,-1.05305 -0.212019,-0.51718 0.352778,-0.70556 m -33.866669,0.35278 1.763889,0.35278 m 62.441671,4.58611 c -5.9944,1.93957 -10.345915,0.61066 -16.227779,-0.27446 -3.359503,-0.50553 -9.057217,-0.20003 -12.347223,-0.0783 -0.863247,0.0321 -1.271058,0.11571 -2.116667,0.13723 -3.185583,0.0811 -6.803672,0.66005 -9.172222,-0.84279 1.247069,-1.85808 1.724025,-1.84749 3.880555,-2.62607 1.547989,-0.55916 3.337631,-1.1737 4.93889,-1.25448"
       style="fill:none;stroke:#242424;stroke-width:0.352778" />
  </g>
</svg>
